<?xml version="1.0" encoding="utf-8"?>
<!-- Copyright 2022 Virtual Console LLC. All rights reserved. Julia. Generator: Adobe Illustrator 23.1.0, SVG Export Plug-In . SVG Version: 6.00 Build 0)  -->
<svg version="1.1" id="Arista_DCS-7050T-52" xmlns="http://www.w3.org/2000/svg" xmlns:xlink="http://www.w3.org/1999/xlink"
	 x="0px" y="0px" viewBox="0 0 600 55" style="enable-background:new 0 0 600 55;" xml:space="preserve">
<style type="text/css">
	.st0{fill:#B0B5B3;}
	.st1{fill:#354868;}
	.st2{fill:#E7E1DB;}
	.st3{fill:#E7E7E3;}
</style>
<rect class="st0" width="600" height="55"/>
<g>
	<g>
		<path class="st1" d="M15.4238758,52.9530754h0.8221264l-2.2998333-3.6243706
			c-0.120245-0.1895027-0.3970089-0.1888008-0.5162983,0.0013046l-0.0136814,0.0218048l-0.0001431-0.0000572l-2.244875,3.5815697
			l0.7742233,0.0197487l0.6554127-1.0685387h1.3640823l0.3589554-0.5943527h-1.3584805l0.6709251-1.0938301L15.4238758,52.9530754z"
			/>
		<path class="st1" d="M33.380558,52.9530754h0.8221283l-2.2998352-3.6243706
			c-0.1202431-0.1895027-0.397007-0.1888008-0.5162964,0.0013046l-0.0136833,0.0218048l-0.0001411-0.0000572l-2.2448769,3.5815697
			l0.7742233,0.0197487l0.6554146-1.0685387h1.3640823l0.3589554-0.5943527h-1.3584785l0.6709213-1.0938301L33.380558,52.9530754z"
			/>
		<path class="st1" d="M16.3736248,52.9530754v-3.7660751h2.850111c0.6330833,0,1.1462975,0.5132179,1.1462975,1.1462975v0.0000038
			c0,0.6330833-0.5132141,1.1462975-1.1462975,1.1462975h-0.1946564l1.4507523,1.4507523h-1.032793l-1.9853096-2.060276h1.7495251
			c0.2552547,0,0.4621792-0.2069244,0.4621792-0.4621811l0,0c0-0.2545929-0.2058945-0.4612427-0.4604855-0.4621773
			l-2.1343479-0.0078163v3.0151749H16.3736248z"/>
		<rect x="21.0487366" y="49.1870003" class="st1" width="0.6997566" height="3.7660713"/>
		<path class="st1" d="M25.6568909,49.897953l0.4949493-0.7109528h-2.7422295c-0.625206,0-1.1320343,0.5068321-1.1320343,1.1320381
			l0,0c0,0.625206,0.5068283,1.1320343,1.1320343,1.1320343h1.8547325c0.2356491,0,0.4266815,0.1910324,0.4266815,0.4266815l0,0
			c0,0.2356491-0.1910324,0.4266815-0.4266815,0.4266815h-2.4918175l-0.3413429,0.6486397h2.8672562
			c0.612709,0,1.1094093-0.4967003,1.1094093-1.1094131l0,0c0-0.6127129-0.4967003-1.1094131-1.1094093-1.1094131h-1.9285603
			c-0.2356491,0-0.4266796-0.1910324-0.4266796-0.4266815v-0.0116653c0-0.2377472,0.1943169-0.4296379,0.4320469-0.4266472
			L25.6568909,49.897953z"/>
		<polygon class="st1" points="30.0912209,49.1870003 28.6563301,49.1870003 27.9565735,49.1870003 26.7937508,49.1870003 
			26.4078484,49.8918114 27.9565735,49.8918114 27.9565735,52.9530754 28.6563301,52.9530754 28.6563301,49.8918114 
			30.0912209,49.8918114 		"/>
	</g>
</g>
<circle cx="590.3901978" cy="5.0046692" r="1.0653677"/>
<circle cx="584.1277466" cy="5.0046692" r="1.0653677"/>
<circle cx="577.8696289" cy="5.0046692" r="1.0653678"/>
<circle cx="510.800354" cy="20.7412205" r="1.0653678"/>
<circle cx="510.800354" cy="24.7412205" r="1.0653678"/>
<circle cx="560.800354" cy="20.7412205" r="1.0653678"/>
<circle cx="560.800354" cy="24.7412205" r="1.0653678"/>
<circle cx="571.3931274" cy="5.0046692" r="1.0653682"/>
<rect x="484.3104553" y="52.0700378" width="4.2183533" height="2.9299622"/>
<rect x="490.6777954" y="52.0700378" width="4.2183533" height="2.9299622"/>
<rect x="497.045105" y="52.0700378" width="4.2183533" height="2.9299622"/>
<rect x="503.4124451" y="52.0700378" width="4.2183533" height="2.9299622"/>
<rect x="509.1844482" y="52.0700378" width="4.2183533" height="2.9299622"/>
<rect x="515.5517578" y="52.0700378" width="4.2183533" height="2.9299622"/>
<rect x="521.9190674" y="52.0700378" width="4.2183533" height="2.9299622"/>
<rect x="508.8070374" width="4.2183533" height="2.9299622"/>
<rect x="508.8070374" y="5" width="4.2183533" height="2.9299622"/>
<rect x="508.8070374" y="10" width="4.2183533" height="2.9299622"/>
<rect x="508.8070374" y="15" width="4.2183533" height="2.9299622"/>
<rect x="559.003418" y="5" width="4.2183533" height="2.9299622"/>
<rect x="559.003418" y="10" width="4.2183533" height="2.9299622"/>
<rect x="559.003418" y="15" width="4.2183533" height="2.9299622"/>
<rect x="515.1743774" width="4.2183533" height="2.9299622"/>
<rect x="521.541687" width="4.2183533" height="2.9299622"/>
<rect x="527.9090576" width="4.2183533" height="2.9299622"/>
<rect x="533.6810303" width="4.2183533" height="2.9299622"/>
<rect x="533.6810303" y="4.6611905" width="4.2183533" height="2.9299622"/>
<rect x="540.0483398" width="4.2183533" height="2.9299622"/>
<rect x="546.4156494" width="4.2183533" height="2.9299622"/>
<rect x="552.6360474" width="4.2183533" height="2.9299622"/>
<rect x="559.003418" width="4.2183533" height="2.9299622"/>
<rect x="545.6785278" y="52.0700378" width="4.2183533" height="2.9299622"/>
<rect x="552.0458374" y="52.0700378" width="4.2183533" height="2.9299622"/>
<rect x="558.413208" y="52.0700378" width="4.2183533" height="2.9299622"/>
<rect x="509.1844482" y="46.5524788" width="4.2183533" height="3.7577033"/>
<rect x="515.5517578" y="46.5524788" width="4.2183533" height="3.7577033"/>
<rect x="521.9190674" y="46.5524788" width="4.2183533" height="3.7577033"/>
<rect x="545.6785278" y="46.5524788" width="4.2183533" height="3.7577033"/>
<rect x="552.0458374" y="46.5524788" width="4.2183533" height="3.7577033"/>
<rect x="558.413208" y="46.5524788" width="4.2183533" height="3.7577033"/>
<rect x="509.1844482" y="40.5524788" width="4.2183533" height="3.7577033"/>
<rect x="509.1844482" y="34.5524788" width="4.2183533" height="3.7577033"/>
<rect x="509.1844482" y="28.5524769" width="4.2183533" height="3.7577033"/>
<rect x="558.413208" y="34.5524788" width="4.2183533" height="3.7577033"/>
<rect x="558.413208" y="28.5524769" width="4.2183533" height="3.7577033"/>
<rect x="515.5517578" y="40.5524788" width="4.2183533" height="3.7577033"/>
<rect x="521.9190674" y="40.5524788" width="4.2183533" height="3.7577033"/>
<rect x="545.6785278" y="40.5524788" width="4.2183533" height="3.7577033"/>
<rect x="552.0458374" y="40.5524788" width="4.2183533" height="3.7577033"/>
<rect x="558.413208" y="40.5524788" width="4.2183533" height="3.7577033"/>
<rect x="564.2839355" y="52.0700378" width="4.2183533" height="2.9299622"/>
<rect x="570.6512451" y="52.0700378" width="4.2183533" height="2.9299622"/>
<rect x="577.0185547" y="52.0700378" width="4.2183533" height="2.9299622"/>
<rect x="594.3709106" y="9.7976189" width="4.2183533" height="2.9299622"/>
<rect x="594.3709106" y="13.7976189" width="4.2183533" height="2.9299622"/>
<rect x="594.3709106" y="39.7976189" width="4.2183533" height="2.9299622"/>
<rect x="594.3709106" y="43.7976189" width="4.2183533" height="2.9299622"/>
<rect x="594.3709106" y="22.7976189" width="4.2183533" height="2.9299622"/>
<rect x="594.3709106" y="26.7976189" width="4.2183533" height="2.9299622"/>
<rect x="594.3709106" y="30.7976189" width="4.2183533" height="2.9299622"/>
<rect x="414.2697449" y="52.0700378" width="4.2183533" height="2.9299622"/>
<rect x="420.637085" y="52.0700378" width="4.2183533" height="2.9299622"/>
<rect x="427.0043945" y="52.0700378" width="4.2183533" height="2.9299622"/>
<rect x="433.3717346" y="52.0700378" width="4.2183533" height="2.9299622"/>
<rect x="439.7391052" y="52.0700378" width="4.2183533" height="2.9299622"/>
<rect x="446.1064453" y="52.0700378" width="4.2183533" height="2.9299622"/>
<rect x="452.4737549" y="52.0700378" width="4.2183533" height="2.9299622"/>
<rect x="458.841095" y="52.0700378" width="4.2183533" height="2.9299622"/>
<rect x="465.2084351" y="52.0700378" width="4.2183533" height="2.9299622"/>
<rect x="471.5757446" y="52.0700378" width="4.2183533" height="2.9299622"/>
<rect x="477.9431152" y="52.0700378" width="4.2183533" height="2.9299622"/>
<rect x="382.3511353" y="52.0700378" width="4.2183228" height="2.9299622"/>
<rect x="312.3104553" y="52.0700378" width="4.2183533" height="2.9299622"/>
<rect x="318.6777954" y="52.0700378" width="4.2183533" height="2.9299622"/>
<rect x="325.045105" y="52.0700378" width="4.2183533" height="2.9299622"/>
<rect x="331.4124451" y="52.0700378" width="4.2183533" height="2.9299622"/>
<rect x="337.7797852" y="52.0700378" width="4.2183228" height="2.9299622"/>
<rect x="344.1471558" y="52.0700378" width="4.2183228" height="2.9299622"/>
<rect x="350.5144653" y="52.0700378" width="4.2183228" height="2.9299622"/>
<rect x="356.8817749" y="52.0700378" width="4.2183228" height="2.9299622"/>
<rect x="363.2491455" y="52.0700378" width="4.2183228" height="2.9299622"/>
<rect x="369.6164551" y="52.0700378" width="4.2183228" height="2.9299622"/>
<rect x="375.9837646" y="52.0700378" width="4.2183228" height="2.9299622"/>
<rect x="242.2697449" y="52.0700378" width="4.2183533" height="2.9299622"/>
<rect x="248.637085" y="52.0700378" width="4.2183533" height="2.9299622"/>
<rect x="255.0043945" y="52.0700378" width="4.2183533" height="2.9299622"/>
<rect x="261.3717346" y="52.0700378" width="4.2183533" height="2.9299622"/>
<rect x="267.7391052" y="52.0700378" width="4.2183533" height="2.9299622"/>
<rect x="274.1064453" y="52.0700378" width="4.2183533" height="2.9299622"/>
<rect x="280.4737549" y="52.0700378" width="4.2183533" height="2.9299622"/>
<rect x="286.841095" y="52.0700378" width="4.2183533" height="2.9299622"/>
<rect x="293.2084351" y="52.0700378" width="4.2183533" height="2.9299622"/>
<rect x="299.5757446" y="52.0700378" width="4.2183533" height="2.9299622"/>
<rect x="305.9431152" y="52.0700378" width="4.2183533" height="2.9299622"/>
<rect x="388.7313843" y="52.0700378" width="4.2183228" height="2.9299622"/>
<rect x="395.0986938" y="52.0700378" width="4.2183228" height="2.9299622"/>
<rect x="401.4660645" y="52.0700378" width="4.2183228" height="2.9299622"/>
<rect x="407.833374" y="52.0700378" width="4.2183228" height="2.9299622"/>
<rect x="210.3511353" y="52.0700378" width="4.2183228" height="2.9299622"/>
<rect x="140.3104553" y="52.0700378" width="4.2183533" height="2.9299622"/>
<rect x="146.6777954" y="52.0700378" width="4.2183533" height="2.9299622"/>
<rect x="153.045105" y="52.0700378" width="4.2183533" height="2.9299622"/>
<rect x="159.4124451" y="52.0700378" width="4.2183533" height="2.9299622"/>
<rect x="165.7797852" y="52.0700378" width="4.2183228" height="2.9299622"/>
<rect x="172.1471558" y="52.0700378" width="4.2183228" height="2.9299622"/>
<rect x="178.5144653" y="52.0700378" width="4.2183228" height="2.9299622"/>
<rect x="184.8817749" y="52.0700378" width="4.2183228" height="2.9299622"/>
<rect x="191.2491455" y="52.0700378" width="4.2183228" height="2.9299622"/>
<rect x="197.6164551" y="52.0700378" width="4.2183228" height="2.9299622"/>
<rect x="203.9837646" y="52.0700378" width="4.2183228" height="2.9299622"/>
<rect x="70.2697449" y="52.0700378" width="4.2183533" height="2.9299622"/>
<rect x="76.637085" y="52.0700378" width="4.2183533" height="2.9299622"/>
<rect x="83.0043945" y="52.0700378" width="4.2183533" height="2.9299622"/>
<rect x="89.3717346" y="52.0700378" width="4.2183533" height="2.9299622"/>
<rect x="95.7391052" y="52.0700378" width="4.2183533" height="2.9299622"/>
<rect x="102.1064453" y="52.0700378" width="4.2183533" height="2.9299622"/>
<rect x="108.4737549" y="52.0700378" width="4.2183533" height="2.9299622"/>
<rect x="114.841095" y="52.0700378" width="4.2183533" height="2.9299622"/>
<rect x="121.2084351" y="52.0700378" width="4.2183533" height="2.9299622"/>
<rect x="127.5757446" y="52.0700378" width="4.2183533" height="2.9299622"/>
<rect x="133.9431152" y="52.0700378" width="4.2183533" height="2.9299622"/>
<rect x="216.7313843" y="52.0700378" width="4.2183228" height="2.9299622"/>
<rect x="223.0986938" y="52.0700378" width="4.2183228" height="2.9299622"/>
<rect x="229.4660645" y="52.0700378" width="4.2183228" height="2.9299622"/>
<rect x="235.833374" y="52.0700378" width="4.2183228" height="2.9299622"/>
<g>
	<path class="st1" d="M582.8157959,2.0171199v0.5576515h-0.1882324V1.1502681h0.5258179
		c0.1553345,0,0.277832,0.0398312,0.3664551,0.1194973c0.0876465,0.0796642,0.1324463,0.184721,0.1324463,0.31567
		c0,0.1384182-0.0438232,0.2449703-0.1294556,0.3196545c-0.0866699,0.0746861-0.2111206,0.11203-0.37146,0.11203H582.8157959z
		 M582.8157959,1.8632674h0.3375854c0.1005859,0,0.1772461-0.0234032,0.2310181-0.0707035
		c0.0527954-0.0473003,0.0796509-0.1160107,0.0796509-0.2056351c0-0.0846424-0.0268555-0.1528549-0.0796509-0.2036419
		c-0.053772-0.050787-0.1274414-0.077673-0.2210693-0.0796642h-0.3475342V1.8632674z"/>
	<path class="st1" d="M584.3115234,1.9399447c-0.1613159-0.0463066-0.2788696-0.1035652-0.3525391-0.1707821
		c-0.0726929-0.0677147-0.1095581-0.1508656-0.1095581-0.2499485c0-0.1125259,0.0448608-0.2051353,0.1344604-0.2783279
		c0.0895996-0.0736904,0.2061157-0.1100368,0.3495483-0.1100368c0.0975952,0,0.1851807,0.0189209,0.2619019,0.0567608
		c0.0766602,0.0378418,0.1364136,0.0896225,0.1782227,0.1563416s0.0627441,0.1394138,0.0627441,0.2180824h-0.1882324
		c0-0.0861378-0.0278931-0.1543503-0.0826416-0.2036419c-0.0547485-0.0492935-0.1324463-0.0741882-0.2319946-0.0741882
		c-0.0926514,0-0.1643066,0.0204144-0.2161255,0.0612411c-0.0527954,0.0408287-0.0786743,0.0975895-0.0786743,0.1702843
		c0,0.0582542,0.0249023,0.1070499,0.074707,0.1473789c0.0487671,0.0403309,0.1324463,0.0771751,0.2509155,0.1100368
		c0.1185303,0.0333595,0.2111206,0.0702057,0.277832,0.1105347c0.0667114,0.0398331,0.1165161,0.0866356,0.1483765,0.1404095
		c0.0328979,0.0532761,0.0488281,0.1165104,0.0488281,0.1887054c0,0.1155148-0.0447998,0.2081242-0.1344604,0.2773342
		c-0.0905762,0.069706-0.2111206,0.1040611-0.3614502,0.1040611c-0.0975952,0-0.189209-0.0184212-0.2738647-0.056263
		c-0.0846558-0.0373421-0.1503906-0.0886269-0.196167-0.1538525c-0.0458374-0.0652256-0.0687256-0.1394138-0.0687256-0.222065
		h0.1882324c0,0.0861378,0.0318604,0.1538525,0.0955811,0.2036419c0.0637207,0.0502892,0.1483765,0.0751839,0.2549438,0.0751839
		c0.0995483,0,0.1752319-0.0204144,0.2280273-0.0607433c0.0527954-0.0403309,0.0786743-0.0955982,0.0786743-0.1653042
		c0-0.0697079-0.0239258-0.1239796-0.0726929-0.1618195C584.5285645,2.0146289,584.4399414,1.976789,584.3115234,1.9399447z"/>
	<path class="st1" d="M585.6279907,2.5747714h-0.1812744V1.3683505l-0.3654785,0.1339359V1.3379779l0.5188599-0.1946812h0.0278931
		V2.5747714z"/>
</g>
<g>
	<path class="st1" d="M588.9089355,2.1223426V2.679996h-0.1882324V1.2554908h0.5258179
		c0.1553345,0,0.277832,0.0398331,0.3664551,0.1194973c0.0876465,0.0796661,0.1324463,0.1847229,0.1324463,0.3156719
		c0,0.1384182-0.0438232,0.2449684-0.1294556,0.3196545c-0.0866699,0.0746861-0.2111206,0.1120281-0.37146,0.1120281H588.9089355z
		 M588.9089355,1.9684901h0.3375854c0.1005859,0,0.1772461-0.0234013,0.2310181-0.0707016
		c0.0527954-0.0473003,0.0796509-0.1160126,0.0796509-0.2056351c0-0.0846424-0.0268555-0.1528568-0.0796509-0.2036419
		c-0.053772-0.050787-0.1274414-0.077673-0.2210693-0.0796661h-0.3475342V1.9684901z"/>
	<path class="st1" d="M590.4046631,2.0451674c-0.1613159-0.0463047-0.2788696-0.1035633-0.3525391-0.1707802
		c-0.0726929-0.0677147-0.1095581-0.1508656-0.1095581-0.2499485c0-0.1125259,0.0448608-0.2051373,0.1344604-0.2783279
		c0.0895996-0.0736904,0.2061157-0.1100368,0.3495483-0.1100368c0.0975952,0,0.1851807,0.018919,0.2619019,0.0567608
		c0.0766602,0.0378399,0.1364136,0.0896225,0.1782227,0.1563416s0.0627441,0.1394138,0.0627441,0.2180824h-0.1882324
		c0-0.0861378-0.0278931-0.1543503-0.0826416-0.2036438c-0.0547485-0.0492916-0.1324463-0.0741863-0.2319946-0.0741863
		c-0.0926514,0-0.1643066,0.0204144-0.2161255,0.0612411c-0.0527954,0.0408287-0.0786743,0.0975895-0.0786743,0.1702843
		c0,0.0582542,0.0249023,0.1070499,0.074707,0.1473789c0.0487671,0.0403309,0.1324463,0.0771751,0.2509155,0.1100368
		c0.1185303,0.0333595,0.2111206,0.0702057,0.277832,0.1105347c0.0667114,0.0398331,0.1165161,0.0866356,0.1483765,0.1404095
		c0.0328979,0.0532761,0.0488281,0.1165104,0.0488281,0.1887054c0,0.1155148-0.0447998,0.2081242-0.1344604,0.2773342
		c-0.0905762,0.069706-0.2111206,0.1040611-0.3614502,0.1040611c-0.0975952,0-0.189209-0.0184231-0.2738647-0.056263
		c-0.0846558-0.037344-0.1503906-0.0886269-0.196167-0.1538525c-0.0458374-0.0652256-0.0687256-0.1394138-0.0687256-0.222065
		h0.1882324c0,0.0861359,0.0318604,0.1538525,0.0955811,0.2036419c0.0637207,0.0502892,0.1483765,0.0751839,0.2549438,0.0751839
		c0.0995483,0,0.1752319-0.0204144,0.2280273-0.0607433c0.0527954-0.0403309,0.0786743-0.0955982,0.0786743-0.1653061
		c0-0.069706-0.0239258-0.1239777-0.0726929-0.1618176C590.6217041,2.1198535,590.5330811,2.0820136,590.4046631,2.0451674z"/>
	<path class="st1" d="M592.0596924,2.679996h-0.9331055V2.5500426l0.4929199-0.548193
		c0.0726929-0.0826511,0.1234741-0.149868,0.1513672-0.2021484c0.0278931-0.0517826,0.0418701-0.1050587,0.0418701-0.1608238
		c0-0.0741863-0.0229492-0.1354294-0.067749-0.1827297c-0.0447998-0.0478001-0.1055298-0.0716991-0.1802368-0.0716991
		c-0.0895996,0-0.1603394,0.0258923-0.210083,0.0771751c-0.0498047,0.050787-0.074707,0.1224842-0.074707,0.2136021h-0.1812744
		c0-0.130949,0.0428467-0.2370033,0.1275024-0.318161c0.0836182-0.0806618,0.1971436-0.1209908,0.338562-0.1209908
		c0.1324463,0,0.2369995,0.0343552,0.3136597,0.1040611c0.0776978,0.0692101,0.1155396,0.1618195,0.1155396,0.2773323
		c0,0.1404095-0.088623,0.3072071-0.2678833,0.5008926l-0.3814087,0.4137592h0.7150269V2.679996z"/>
</g>
<g>
	<rect x="567.6315308" y="9.6569557" class="st2" width="25.0903931" height="37.4367599"/>
	<polygon points="585.9354248,15.835393 585.9354248,13.6200027 583.5460205,13.6200027 583.5460205,11.2625999 
		576.3778076,11.2625999 576.3778076,13.6200027 574.4274902,13.6200027 574.4274902,15.835393 571.0286865,15.835393 
		571.0286865,24.9809761 589.3248291,24.9809761 589.3248291,15.835393 	"/>
	<polygon points="574.4180298,40.6427917 574.4180298,42.858181 576.8074341,42.858181 576.8074341,45.2155838 
		583.975708,45.2155838 583.975708,42.858181 585.9260254,42.858181 585.9260254,40.6427917 589.3248291,40.6427917 
		589.3248291,31.4972057 571.0286865,31.4972057 571.0286865,40.6427917 	"/>
</g>
<g>
	<path class="st1" d="M568.3955688,2.3320022c0.0791016,0.0488281,0.1943359,0.0893555,0.3164062,0.0893555
		c0.1806641,0,0.2861328-0.0952148,0.2861328-0.2333984c0-0.1279297-0.0732422-0.2006836-0.2578125-0.2719727
		c-0.2226562-0.0791016-0.3613281-0.1948242-0.3613281-0.387207c0-0.2133789,0.1767578-0.371582,0.4423828-0.371582
		c0.140625,0,0.2421875,0.0322266,0.3027344,0.0668945l-0.0488281,0.144043
		c-0.0449219-0.0244141-0.1357422-0.0649414-0.2597656-0.0649414c-0.1865234,0-0.2578125,0.1118164-0.2578125,0.2050781
		c0,0.1279297,0.0830078,0.190918,0.2724609,0.2636719c0.2314453,0.0893555,0.3486328,0.2011719,0.3486328,0.4018555
		c0,0.2114258-0.15625,0.394043-0.4785156,0.394043c-0.1318359,0-0.2763672-0.0385742-0.3496094-0.0874023L568.3955688,2.3320022z"
		/>
	<path class="st1" d="M569.678772,1.3295608h-0.4160156V1.1796584h1.0126953v0.1499023h-0.4179688v1.2177734h-0.1787109V1.3295608z"
		/>
	<path class="st1" d="M570.4951782,2.1171584l-0.1416016,0.4301758h-0.1826172l0.4648438-1.3676758h0.2128906l0.4667969,1.3676758
		h-0.1884766l-0.1464844-0.4301758H570.4951782z M570.944397,1.9789748l-0.1337891-0.3935547
		c-0.03125-0.0893555-0.0507812-0.1704102-0.0712891-0.2495117h-0.0039062
		c-0.0205078,0.0810547-0.0429688,0.1640625-0.0693359,0.2475586l-0.1337891,0.3955078H570.944397z"/>
	<path class="st1" d="M571.6182251,1.3295608h-0.4160156V1.1796584h1.0126953v0.1499023h-0.4179688v1.2177734h-0.1787109V1.3295608z
		"/>
	<path class="st1" d="M572.5420532,1.1796584v0.8095703c0,0.3066406,0.1357422,0.4365234,0.3183594,0.4365234
		c0.203125,0,0.3330078-0.1342773,0.3330078-0.4365234V1.1796584h0.1787109v0.7973633
		c0,0.4199219-0.2216797,0.5927734-0.5175781,0.5927734c-0.2802734,0-0.4912109-0.1606445-0.4912109-0.5844727V1.1796584
		H572.5420532z"/>
	<path class="st1" d="M573.6524048,2.3320022c0.0791016,0.0488281,0.1953125,0.0893555,0.3164062,0.0893555
		c0.1806641,0,0.2861328-0.0952148,0.2861328-0.2333984c0-0.1279297-0.0732422-0.2006836-0.2578125-0.2719727
		c-0.2226562-0.0791016-0.3613281-0.1948242-0.3613281-0.387207c0-0.2133789,0.1767578-0.371582,0.4423828-0.371582
		c0.140625,0,0.2421875,0.0322266,0.3027344,0.0668945l-0.0488281,0.144043
		c-0.0449219-0.0244141-0.1357422-0.0649414-0.2597656-0.0649414c-0.1865234,0-0.2578125,0.1118164-0.2578125,0.2050781
		c0,0.1279297,0.0830078,0.190918,0.2724609,0.2636719c0.2314453,0.0893555,0.3486328,0.2011719,0.3486328,0.4018555
		c0,0.2114258-0.15625,0.394043-0.4785156,0.394043c-0.1318359,0-0.2763672-0.0385742-0.3496094-0.0874023L573.6524048,2.3320022z"
		/>
</g>
<g>
	<path class="st1" d="M576.2075195,1.2839065h0.7363281v0.1479492h-0.5595703v0.4545898h0.5175781v0.1459961h-0.5175781v0.6191406
		h-0.1767578V1.2839065z"/>
	<path class="st1" d="M577.371582,1.2839065v0.8095703c0,0.3066406,0.1357422,0.4365234,0.3183594,0.4365234
		c0.203125,0,0.3330078-0.1342773,0.3330078-0.4365234V1.2839065h0.1787109v0.7973633
		c0,0.4199219-0.2216797,0.5927734-0.5175781,0.5927734c-0.2802734,0-0.4912109-0.1606445-0.4912109-0.5844727V1.2839065H577.371582
		z"/>
	<path class="st1" d="M578.5053711,2.6515822V1.2839065h0.1923828l0.4384766,0.6918945
		c0.1015625,0.1601562,0.1806641,0.3041992,0.2460938,0.4443359l0.0039062-0.0019531
		c-0.0166016-0.1826172-0.0205078-0.3491211-0.0205078-0.5620117V1.2839065h0.1660156v1.3676758h-0.1777344l-0.4345703-0.6938477
		c-0.0957031-0.1523438-0.1865234-0.3085938-0.2558594-0.4570312l-0.0058594,0.0024414
		c0.0097656,0.1723633,0.0136719,0.3369141,0.0136719,0.5639648v0.5844727H578.5053711z"/>
</g>
<rect x="16.1942596" width="17.7312469" height="6.0700369"/>
<rect x="35.8804359" width="17.7312469" height="6.0700369"/>
<rect x="55.5666084" width="17.7312469" height="6.0700369"/>
<rect x="75.2527847" width="17.7312508" height="6.0700369"/>
<rect x="94.9389572" width="17.7312508" height="6.0700369"/>
<rect x="114.6251373" width="17.7312508" height="6.0700369"/>
<rect x="134.3113098" width="17.7312508" height="6.0700369"/>
<rect x="153.9974823" width="17.7312508" height="6.0700369"/>
<rect x="173.6836548" width="17.7312508" height="6.0700369"/>
<rect x="193.3698425" width="17.7312508" height="6.0700369"/>
<rect x="213.056015" width="17.7312508" height="6.0700369"/>
<rect x="232.7421875" width="17.7312508" height="6.0700369"/>
<rect x="252.42836" width="17.7312508" height="6.0700369"/>
<rect x="272.1145325" width="17.7312508" height="6.0700369"/>
<rect x="291.8007202" width="17.7312508" height="6.0700369"/>
<rect x="311.4868774" width="17.7312508" height="6.0700369"/>
<rect x="331.1730652" width="17.7312508" height="6.0700369"/>
<rect x="350.8592224" width="17.7312508" height="6.0700369"/>
<rect x="370.5454102" width="17.7312508" height="6.0700369"/>
<rect x="390.2315674" width="17.7312508" height="6.0700369"/>
<rect x="409.9177551" width="17.7312508" height="6.0700369"/>
<rect x="429.6039124" width="17.7312508" height="6.0700369"/>
<rect x="449.2901306" width="17.7312508" height="6.0700369"/>
<rect x="468.9762878" width="17.7312508" height="6.0700369"/>
<rect x="488.6624756" width="15.7638474" height="6.0700369"/>
<rect x="515.1743774" y="11.3753357" width="20.4314327" height="12.3389893"/>
<rect x="536.4230347" y="11.3753357" width="20.4314079" height="12.3389893"/>
<rect x="515.1743774" y="25.3277111" width="20.4314327" height="12.3389893"/>
<rect x="536.4230347" y="25.3277111" width="20.4314079" height="12.3389893"/>
<rect x="527.7719727" y="45.2155838" width="16.4849072" height="7.2592316"/>
<g>
	<g>
		<g>
			<rect x="16.1942596" y="9.725337" width="156.3879547" height="37.2999954"/>
			<rect x="17.0942535" y="10.4253378" class="st3" width="154.7625732" height="35.5999985"/>
			<g>
				<polygon points="33.8942413,13.6253386 33.8942413,11.6253386 31.9942474,11.6253386 31.9942474,10.3253374 
					26.0942535,10.3253374 26.0942535,11.6253386 24.1942596,11.6253386 24.1942596,13.6253386 20.2942657,13.6253386 
					20.2942657,25.025341 37.7942657,25.025341 37.7942657,13.6253386 				"/>
				<polygon points="52.7942657,13.6253386 52.7942657,11.6253386 50.7942657,11.6253386 50.7942657,10.3253374 
					44.9942474,10.3253374 44.9942474,11.6253386 43.0942535,11.6253386 43.0942535,13.6253386 39.1942596,13.6253386 
					39.1942596,25.025341 56.6942673,25.025341 56.6942673,13.6253386 				"/>
				<polygon points="71.4942551,13.6253386 71.4942551,11.6253386 69.5942612,11.6253386 69.5942612,10.3253374 
					63.7942734,10.3253374 63.7942734,11.6253386 61.7942734,11.6253386 61.7942734,13.6253386 57.894249,13.6253386 
					57.894249,25.025341 75.394249,25.025341 75.394249,13.6253386 				"/>
				<polygon points="90.2942734,13.6253386 90.2942734,11.6253386 88.394249,11.6253386 88.394249,10.3253374 
					82.4942551,10.3253374 82.4942551,11.6253386 80.5942612,11.6253386 80.5942612,13.6253386 76.6942673,13.6253386 
					76.6942673,25.025341 94.1942673,25.025341 94.1942673,13.6253386 				"/>
				<polygon points="109.060936,13.6253386 109.060936,11.6253386 107.1609421,11.6253386 107.1609421,10.3253374 
					101.3609543,10.3253374 101.3609543,11.6253386 99.3609543,11.6253386 99.3609543,13.6253386 95.4609299,13.6253386 
					95.4609299,25.025341 112.9609299,25.025341 112.9609299,13.6253386 				"/>
				<polygon points="127.8609543,13.6253386 127.8609543,11.6253386 125.9609299,11.6253386 125.9609299,10.3253374 
					120.060936,10.3253374 120.060936,11.6253386 118.1609421,11.6253386 118.1609421,13.6253386 114.2609482,13.6253386 
					114.2609482,25.025341 131.7609406,25.025341 131.7609406,13.6253386 				"/>
				<polygon points="146.6027985,13.6253386 146.6027985,11.6253386 144.7028046,11.6253386 144.7028046,10.3253374 
					138.9028168,10.3253374 138.9028168,11.6253386 136.9028168,11.6253386 136.9028168,13.6253386 133.0027924,13.6253386 
					133.0027924,25.025341 150.5027924,25.025341 150.5027924,13.6253386 				"/>
				<polygon points="165.4028168,13.6253386 165.4028168,11.6253386 163.5027924,11.6253386 163.5027924,10.3253374 
					157.6027985,10.3253374 157.6027985,11.6253386 155.7028046,11.6253386 155.7028046,13.6253386 151.8028107,13.6253386 
					151.8028107,25.025341 169.3028107,25.025341 169.3028107,13.6253386 				"/>
			</g>
			<g>
				<polygon points="80.4942551,42.9253349 80.4942551,45.0253372 82.4942551,45.0253372 82.4942551,46.225338 
					88.2942734,46.225338 88.2942734,45.0253372 90.2942734,45.0253372 90.2942734,42.9253349 94.1942673,42.9253349 
					94.1942673,31.6253357 76.6942673,31.6253357 76.6942673,42.9253349 				"/>
				<polygon points="61.6942673,42.9253349 61.6942673,45.0253372 63.5942612,45.0253372 63.5942612,46.225338 
					69.4942551,46.225338 69.4942551,45.0253372 71.394249,45.0253372 71.394249,42.9253349 75.2942734,42.9253349 
					75.2942734,31.6253357 57.7942734,31.6253357 57.7942734,42.9253349 				"/>
				<polygon points="118.060936,42.9253349 118.060936,45.0253372 120.060936,45.0253372 120.060936,46.225338 
					125.8609543,46.225338 125.8609543,45.0253372 127.8609543,45.0253372 127.8609543,42.9253349 131.7609406,42.9253349 
					131.7609406,31.6253357 114.2609482,31.6253357 114.2609482,42.9253349 				"/>
				<polygon points="99.2609482,42.9253349 99.2609482,45.0253372 101.1609421,45.0253372 101.1609421,46.225338 
					107.060936,46.225338 107.060936,45.0253372 108.9609299,45.0253372 108.9609299,42.9253349 112.8609543,42.9253349 
					112.8609543,31.6253357 95.3609543,31.6253357 95.3609543,42.9253349 				"/>
				<polygon points="155.702774,42.9253349 155.702774,45.0253372 157.702774,45.0253372 157.702774,46.225338 
					163.5027924,46.225338 163.5027924,45.0253372 165.5027924,45.0253372 165.5027924,42.9253349 169.4027863,42.9253349 
					169.4027863,31.6253357 151.9027863,31.6253357 151.9027863,42.9253349 				"/>
				<polygon points="136.9027863,42.9253349 136.9027863,45.0253372 138.8027802,45.0253372 138.8027802,46.225338 
					144.702774,46.225338 144.702774,45.0253372 146.6027679,45.0253372 146.6027679,42.9253349 150.5027924,42.9253349 
					150.5027924,31.6253357 133.0027924,31.6253357 133.0027924,42.9253349 				"/>
				<polygon points="43.1942596,42.9253349 43.1942596,45.0253372 45.1942596,45.0253372 45.1942596,46.225338 
					50.9942474,46.225338 50.9942474,45.0253372 52.8942413,45.0253372 52.8942413,42.9253349 56.7942734,42.9253349 
					56.7942734,31.6253357 39.2942657,31.6253357 39.2942657,42.9253349 				"/>
				<polygon points="24.3942413,42.9253349 24.3942413,45.0253372 26.2942657,45.0253372 26.2942657,46.225338 
					32.0942535,46.225338 32.0942535,45.0253372 34.0942535,45.0253372 34.0942535,42.9253349 37.9942474,42.9253349 
					37.9942474,31.6253357 20.4942474,31.6253357 20.4942474,42.9253349 				"/>
			</g>
		</g>
	</g>
	<polygon points="22.7760487,26.8908272 21.2942657,29.1898499 24.2578316,29.1898499 	"/>
	<polygon points="35.3124847,29.1898499 36.7942657,26.8908272 33.8306999,26.8908272 	"/>
	<polygon points="41.6760483,26.8908272 40.1942635,29.1898499 43.1578293,29.1898499 	"/>
	<polygon points="54.2124825,29.1898499 55.6942635,26.8908272 52.7307014,26.8908272 	"/>
	<polygon points="60.3760338,26.8908272 58.894249,29.1898499 61.8578148,29.1898499 	"/>
	<polygon points="72.912468,29.1898499 74.394249,26.8908272 71.430687,26.8908272 	"/>
	<polygon points="79.1760483,26.8908272 77.6942673,29.1898499 80.6578293,29.1898499 	"/>
	<polygon points="91.7124863,29.1898499 93.1942673,26.8908272 90.2307053,26.8908272 	"/>
	<polygon points="97.9427109,26.8908272 96.4609299,29.1898499 99.4244919,29.1898499 	"/>
	<polygon points="110.4791489,29.1898499 111.9609299,26.8908272 108.9973679,26.8908272 	"/>
	<polygon points="116.7427292,26.8908272 115.2609482,29.1898499 118.2245102,29.1898499 	"/>
	<polygon points="129.2791595,29.1898499 130.7609406,26.8908272 127.7973862,26.8908272 	"/>
	<polygon points="135.4845734,26.8908272 134.0027924,29.1898499 136.9663544,29.1898499 	"/>
	<polygon points="148.0210114,29.1898499 149.5027924,26.8908272 146.5392303,26.8908272 	"/>
	<polygon points="154.2845917,26.8908272 152.8028107,29.1898499 155.7663727,29.1898499 	"/>
	<polygon points="166.8210297,29.1898499 168.3028107,26.8908272 165.3392487,26.8908272 	"/>
	<polygon points="21.7760487,10.8908281 20.2942657,13.1898508 23.2578297,13.1898508 	"/>
	<polygon points="36.3124847,13.1898508 37.7942657,10.8908281 34.8306999,10.8908281 	"/>
	<polygon points="40.6760483,10.8908281 39.1942635,13.1898508 42.1578293,13.1898508 	"/>
	<polygon points="55.2124825,13.1898508 56.6942635,10.8908281 53.7307014,10.8908281 	"/>
	<polygon points="59.3760338,10.8908281 57.894249,13.1898508 60.8578148,13.1898508 	"/>
	<polygon points="73.912468,13.1898508 75.394249,10.8908281 72.430687,10.8908281 	"/>
	<polygon points="78.1760483,10.8908281 76.6942673,13.1898508 79.6578293,13.1898508 	"/>
	<polygon points="92.7124863,13.1898508 94.1942673,10.8908281 91.2307053,10.8908281 	"/>
	<polygon points="96.9427109,10.8908281 95.4609299,13.1898508 98.4244919,13.1898508 	"/>
	<polygon points="111.4791489,13.1898508 112.9609299,10.8908281 109.9973679,10.8908281 	"/>
	<polygon points="115.7427292,10.8908281 114.2609482,13.1898508 117.2245102,13.1898508 	"/>
	<polygon points="130.2791595,13.1898508 131.7609406,10.8908281 128.7973785,10.8908281 	"/>
	<polygon points="134.4845734,10.8908281 133.0027924,13.1898508 135.9663544,13.1898508 	"/>
	<polygon points="149.0210114,13.1898508 150.5027924,10.8908281 147.5392303,10.8908281 	"/>
	<polygon points="153.2845917,10.8908281 151.8028107,13.1898508 154.7663727,13.1898508 	"/>
	<polygon points="167.8210297,13.1898508 169.3028107,10.8908281 166.3392487,10.8908281 	"/>
</g>
<g>
	<g>
		<g>
			<rect x="182.1163177" y="9.725337" width="156.3879547" height="37.2999954"/>
			<rect x="183.0163116" y="10.4253378" class="st3" width="154.7625732" height="35.5999985"/>
			<g>
				<polygon points="199.8162842,13.6253386 199.8162842,11.6253386 197.9162903,11.6253386 197.9162903,10.3253374 
					192.0162964,10.3253374 192.0162964,11.6253386 190.1163025,11.6253386 190.1163025,13.6253386 186.2163239,13.6253386 
					186.2163239,25.025341 203.7163086,25.025341 203.7163086,13.6253386 				"/>
				<polygon points="218.7163086,13.6253386 218.7163086,11.6253386 216.7163086,11.6253386 216.7163086,10.3253374 
					210.9162903,10.3253374 210.9162903,11.6253386 209.0162964,11.6253386 209.0162964,13.6253386 205.1163025,13.6253386 
					205.1163025,25.025341 222.6163177,25.025341 222.6163177,13.6253386 				"/>
				<polygon points="237.4163055,13.6253386 237.4163055,11.6253386 235.5163116,11.6253386 235.5163116,10.3253374 
					229.7163239,10.3253374 229.7163239,11.6253386 227.7163239,11.6253386 227.7163239,13.6253386 223.8162994,13.6253386 
					223.8162994,25.025341 241.3162994,25.025341 241.3162994,13.6253386 				"/>
				<polygon points="256.2163086,13.6253386 256.2163086,11.6253386 254.3162994,11.6253386 254.3162994,10.3253374 
					248.4163055,10.3253374 248.4163055,11.6253386 246.5163116,11.6253386 246.5163116,13.6253386 242.6163177,13.6253386 
					242.6163177,25.025341 260.1163025,25.025341 260.1163025,13.6253386 				"/>
				<polygon points="274.9829712,13.6253386 274.9829712,11.6253386 273.0829773,11.6253386 273.0829773,10.3253374 
					267.2829895,10.3253374 267.2829895,11.6253386 265.2829895,11.6253386 265.2829895,13.6253386 261.3829651,13.6253386 
					261.3829651,25.025341 278.8829651,25.025341 278.8829651,13.6253386 				"/>
				<polygon points="293.7829895,13.6253386 293.7829895,11.6253386 291.8829651,11.6253386 291.8829651,10.3253374 
					285.9829712,10.3253374 285.9829712,11.6253386 284.0829773,11.6253386 284.0829773,13.6253386 280.1829834,13.6253386 
					280.1829834,25.025341 297.6829834,25.025341 297.6829834,13.6253386 				"/>
				<polygon points="312.5248413,13.6253386 312.5248413,11.6253386 310.6248474,11.6253386 310.6248474,10.3253374 
					304.8248596,10.3253374 304.8248596,11.6253386 302.8248596,11.6253386 302.8248596,13.6253386 298.9248352,13.6253386 
					298.9248352,25.025341 316.4248352,25.025341 316.4248352,13.6253386 				"/>
				<polygon points="331.3248596,13.6253386 331.3248596,11.6253386 329.4248352,11.6253386 329.4248352,10.3253374 
					323.5248413,10.3253374 323.5248413,11.6253386 321.6248474,11.6253386 321.6248474,13.6253386 317.7248535,13.6253386 
					317.7248535,25.025341 335.2248535,25.025341 335.2248535,13.6253386 				"/>
			</g>
			<g>
				<polygon points="246.4163055,42.9253349 246.4163055,45.0253372 248.4163055,45.0253372 248.4163055,46.225338 
					254.2163239,46.225338 254.2163239,45.0253372 256.2163086,45.0253372 256.2163086,42.9253349 260.1163025,42.9253349 
					260.1163025,31.6253357 242.6163177,31.6253357 242.6163177,42.9253349 				"/>
				<polygon points="227.6163177,42.9253349 227.6163177,45.0253372 229.5163116,45.0253372 229.5163116,46.225338 
					235.4163055,46.225338 235.4163055,45.0253372 237.3162994,45.0253372 237.3162994,42.9253349 241.2163239,42.9253349 
					241.2163239,31.6253357 223.7163239,31.6253357 223.7163239,42.9253349 				"/>
				<polygon points="283.9829712,42.9253349 283.9829712,45.0253372 285.9829712,45.0253372 285.9829712,46.225338 
					291.7829895,46.225338 291.7829895,45.0253372 293.7829895,45.0253372 293.7829895,42.9253349 297.6829834,42.9253349 
					297.6829834,31.6253357 280.1829834,31.6253357 280.1829834,42.9253349 				"/>
				<polygon points="265.1829834,42.9253349 265.1829834,45.0253372 267.0829773,45.0253372 267.0829773,46.225338 
					272.9829712,46.225338 272.9829712,45.0253372 274.8829651,45.0253372 274.8829651,42.9253349 278.7829895,42.9253349 
					278.7829895,31.6253357 261.2829895,31.6253357 261.2829895,42.9253349 				"/>
				<polygon points="321.6248169,42.9253349 321.6248169,45.0253372 323.6248169,45.0253372 323.6248169,46.225338 
					329.4248352,46.225338 329.4248352,45.0253372 331.4248352,45.0253372 331.4248352,42.9253349 335.3248291,42.9253349 
					335.3248291,31.6253357 317.8248291,31.6253357 317.8248291,42.9253349 				"/>
				<polygon points="302.8248291,42.9253349 302.8248291,45.0253372 304.724823,45.0253372 304.724823,46.225338 
					310.6248169,46.225338 310.6248169,45.0253372 312.5248108,45.0253372 312.5248108,42.9253349 316.4248352,42.9253349 
					316.4248352,31.6253357 298.9248352,31.6253357 298.9248352,42.9253349 				"/>
				<polygon points="209.1163025,42.9253349 209.1163025,45.0253372 211.1163025,45.0253372 211.1163025,46.225338 
					216.9162903,46.225338 216.9162903,45.0253372 218.8162842,45.0253372 218.8162842,42.9253349 222.7163239,42.9253349 
					222.7163239,31.6253357 205.2163086,31.6253357 205.2163086,42.9253349 				"/>
				<polygon points="190.3162842,42.9253349 190.3162842,45.0253372 192.2163086,45.0253372 192.2163086,46.225338 
					198.0162964,46.225338 198.0162964,45.0253372 200.0162964,45.0253372 200.0162964,42.9253349 203.9162903,42.9253349 
					203.9162903,31.6253357 186.4163055,31.6253357 186.4163055,42.9253349 				"/>
			</g>
		</g>
	</g>
	<polygon points="188.6981049,26.8908272 187.2163239,29.1898499 190.1798859,29.1898499 	"/>
	<polygon points="201.2345276,29.1898499 202.7163086,26.8908272 199.7527466,26.8908272 	"/>
	<polygon points="207.5980988,26.8908272 206.1163177,29.1898499 209.0798798,29.1898499 	"/>
	<polygon points="220.1345367,29.1898499 221.6163177,26.8908272 218.6527557,26.8908272 	"/>
	<polygon points="226.2980804,26.8908272 224.8162994,29.1898499 227.7798615,29.1898499 	"/>
	<polygon points="238.8345184,29.1898499 240.3162994,26.8908272 237.3527374,26.8908272 	"/>
	<polygon points="245.0980988,26.8908272 243.6163177,29.1898499 246.5798798,29.1898499 	"/>
	<polygon points="257.6345215,29.1898499 259.1163025,26.8908272 256.1527405,26.8908272 	"/>
	<polygon points="263.8647461,26.8908272 262.3829651,29.1898499 265.3465271,29.1898499 	"/>
	<polygon points="276.4011841,29.1898499 277.8829651,26.8908272 274.9194031,26.8908272 	"/>
	<polygon points="282.6647644,26.8908272 281.1829834,29.1898499 284.1465454,29.1898499 	"/>
	<polygon points="295.2012024,29.1898499 296.6829834,26.8908272 293.7194214,26.8908272 	"/>
	<polygon points="301.4066162,26.8908272 299.9248352,29.1898499 302.8883972,29.1898499 	"/>
	<polygon points="313.9430542,29.1898499 315.4248352,26.8908272 312.4612732,26.8908272 	"/>
	<polygon points="320.2066345,26.8908272 318.7248535,29.1898499 321.6884155,29.1898499 	"/>
	<polygon points="332.7430725,29.1898499 334.2248535,26.8908272 331.2612915,26.8908272 	"/>
	<polygon points="187.6981049,10.8908281 186.2163239,13.1898508 189.1798859,13.1898508 	"/>
	<polygon points="202.2345276,13.1898508 203.7163086,10.8908281 200.7527466,10.8908281 	"/>
	<polygon points="206.5980988,10.8908281 205.1163177,13.1898508 208.0798798,13.1898508 	"/>
	<polygon points="221.1345367,13.1898508 222.6163177,10.8908281 219.6527557,10.8908281 	"/>
	<polygon points="225.2980804,10.8908281 223.8162994,13.1898508 226.7798615,13.1898508 	"/>
	<polygon points="239.8345184,13.1898508 241.3162994,10.8908281 238.3527374,10.8908281 	"/>
	<polygon points="244.0980988,10.8908281 242.6163177,13.1898508 245.5798798,13.1898508 	"/>
	<polygon points="258.6345215,13.1898508 260.1163025,10.8908281 257.1527405,10.8908281 	"/>
	<polygon points="262.8647461,10.8908281 261.3829651,13.1898508 264.3465271,13.1898508 	"/>
	<polygon points="277.4011841,13.1898508 278.8829651,10.8908281 275.9194031,10.8908281 	"/>
	<polygon points="281.6647644,10.8908281 280.1829834,13.1898508 283.1465454,13.1898508 	"/>
	<polygon points="296.2012024,13.1898508 297.6829834,10.8908281 294.7194214,10.8908281 	"/>
	<polygon points="300.4066162,10.8908281 298.9248352,13.1898508 301.8883972,13.1898508 	"/>
	<polygon points="314.9430542,13.1898508 316.4248352,10.8908281 313.4612732,10.8908281 	"/>
	<polygon points="319.2066345,10.8908281 317.7248535,13.1898508 320.6884155,13.1898508 	"/>
	<polygon points="333.7430725,13.1898508 335.2248535,10.8908281 332.2612915,10.8908281 	"/>
</g>
<g>
	<g>
		<g>
			<rect x="348.0383301" y="9.725337" width="156.38797" height="37.2999954"/>
			<rect x="348.938324" y="10.4253378" class="st3" width="154.7625732" height="35.5999985"/>
			<g>
				<polygon points="365.7383118,13.6253386 365.7383118,11.6253386 363.8382874,11.6253386 363.8382874,10.3253374 
					357.938324,10.3253374 357.938324,11.6253386 356.0383301,11.6253386 356.0383301,13.6253386 352.1383362,13.6253386 
					352.1383362,25.025341 369.6383362,25.025341 369.6383362,13.6253386 				"/>
				<polygon points="384.6383362,13.6253386 384.6383362,11.6253386 382.6383362,11.6253386 382.6383362,10.3253374 
					376.8382874,10.3253374 376.8382874,11.6253386 374.938324,11.6253386 374.938324,13.6253386 371.0382996,13.6253386 
					371.0382996,25.025341 388.5383301,25.025341 388.5383301,13.6253386 				"/>
				<polygon points="403.3383179,13.6253386 403.3383179,11.6253386 401.438324,11.6253386 401.438324,10.3253374 
					395.6383362,10.3253374 395.6383362,11.6253386 393.6383362,11.6253386 393.6383362,13.6253386 389.7383118,13.6253386 
					389.7383118,25.025341 407.2383118,25.025341 407.2383118,13.6253386 				"/>
				<polygon points="422.1383362,13.6253386 422.1383362,11.6253386 420.2383118,11.6253386 420.2383118,10.3253374 
					414.3383179,10.3253374 414.3383179,11.6253386 412.438324,11.6253386 412.438324,13.6253386 408.5383301,13.6253386 
					408.5383301,25.025341 426.0383301,25.025341 426.0383301,13.6253386 				"/>
				<polygon points="440.9049988,13.6253386 440.9049988,11.6253386 439.0050049,11.6253386 439.0050049,10.3253374 
					433.2050171,10.3253374 433.2050171,11.6253386 431.2050171,11.6253386 431.2050171,13.6253386 427.3049927,13.6253386 
					427.3049927,25.025341 444.8049927,25.025341 444.8049927,13.6253386 				"/>
				<polygon points="459.7050171,13.6253386 459.7050171,11.6253386 457.8049927,11.6253386 457.8049927,10.3253374 
					451.9049988,10.3253374 451.9049988,11.6253386 450.0050049,11.6253386 450.0050049,13.6253386 446.105011,13.6253386 
					446.105011,25.025341 463.605011,25.025341 463.605011,13.6253386 				"/>
				<polygon points="478.4468689,13.6253386 478.4468689,11.6253386 476.5468445,11.6253386 476.5468445,10.3253374 
					470.7468567,10.3253374 470.7468567,11.6253386 468.7468567,11.6253386 468.7468567,13.6253386 464.8468323,13.6253386 
					464.8468323,25.025341 482.3468323,25.025341 482.3468323,13.6253386 				"/>
				<polygon points="497.2468567,13.6253386 497.2468567,11.6253386 495.3468323,11.6253386 495.3468323,10.3253374 
					489.4468689,10.3253374 489.4468689,11.6253386 487.5468445,11.6253386 487.5468445,13.6253386 483.6468811,13.6253386 
					483.6468811,25.025341 501.1468811,25.025341 501.1468811,13.6253386 				"/>
			</g>
			<g>
				<polygon points="412.3383179,42.9253349 412.3383179,45.0253372 414.3383179,45.0253372 414.3383179,46.225338 
					420.1383362,46.225338 420.1383362,45.0253372 422.1383362,45.0253372 422.1383362,42.9253349 426.0383301,42.9253349 
					426.0383301,31.6253357 408.5383301,31.6253357 408.5383301,42.9253349 				"/>
				<polygon points="393.5383301,42.9253349 393.5383301,45.0253372 395.438324,45.0253372 395.438324,46.225338 
					401.3383179,46.225338 401.3383179,45.0253372 403.2383118,45.0253372 403.2383118,42.9253349 407.1383362,42.9253349 
					407.1383362,31.6253357 389.6383362,31.6253357 389.6383362,42.9253349 				"/>
				<polygon points="449.9049988,42.9253349 449.9049988,45.0253372 451.9049988,45.0253372 451.9049988,46.225338 
					457.7050171,46.225338 457.7050171,45.0253372 459.7050171,45.0253372 459.7050171,42.9253349 463.605011,42.9253349 
					463.605011,31.6253357 446.105011,31.6253357 446.105011,42.9253349 				"/>
				<polygon points="431.105011,42.9253349 431.105011,45.0253372 433.0050049,45.0253372 433.0050049,46.225338 
					438.9049988,46.225338 438.9049988,45.0253372 440.8049927,45.0253372 440.8049927,42.9253349 444.7050171,42.9253349 
					444.7050171,31.6253357 427.2050171,31.6253357 427.2050171,42.9253349 				"/>
				<polygon points="487.5468445,42.9253349 487.5468445,45.0253372 489.5468445,45.0253372 489.5468445,46.225338 
					495.3468323,46.225338 495.3468323,45.0253372 497.3468323,45.0253372 497.3468323,42.9253349 501.2468567,42.9253349 
					501.2468567,31.6253357 483.7468567,31.6253357 483.7468567,42.9253349 				"/>
				<polygon points="468.7468567,42.9253349 468.7468567,45.0253372 470.6468201,45.0253372 470.6468201,46.225338 
					476.5468445,46.225338 476.5468445,45.0253372 478.4468079,45.0253372 478.4468079,42.9253349 482.3468323,42.9253349 
					482.3468323,31.6253357 464.8468323,31.6253357 464.8468323,42.9253349 				"/>
				<polygon points="375.0382996,42.9253349 375.0382996,45.0253372 377.0382996,45.0253372 377.0382996,46.225338 
					382.8382874,46.225338 382.8382874,45.0253372 384.7383118,45.0253372 384.7383118,42.9253349 388.6383362,42.9253349 
					388.6383362,31.6253357 371.1383362,31.6253357 371.1383362,42.9253349 				"/>
				<polygon points="356.2383118,42.9253349 356.2383118,45.0253372 358.1383362,45.0253372 358.1383362,46.225338 
					363.938324,46.225338 363.938324,45.0253372 365.938324,45.0253372 365.938324,42.9253349 369.8382874,42.9253349 
					369.8382874,31.6253357 352.3383179,31.6253357 352.3383179,42.9253349 				"/>
			</g>
		</g>
	</g>
	<polygon points="354.6201172,26.8908272 353.1383362,29.1898499 356.1018982,29.1898499 	"/>
	<polygon points="367.1565247,29.1898499 368.6383362,26.8908272 365.6747437,26.8908272 	"/>
	<polygon points="373.5201111,26.8908272 372.0383301,29.1898499 375.0018921,29.1898499 	"/>
	<polygon points="386.0565491,29.1898499 387.5383301,26.8908272 384.5747681,26.8908272 	"/>
	<polygon points="392.2200928,26.8908272 390.7383118,29.1898499 393.7018738,29.1898499 	"/>
	<polygon points="404.7565308,29.1898499 406.2383118,26.8908272 403.2747498,26.8908272 	"/>
	<polygon points="411.0201111,26.8908272 409.5383301,29.1898499 412.5018921,29.1898499 	"/>
	<polygon points="423.5565491,29.1898499 425.0383301,26.8908272 422.0747681,26.8908272 	"/>
	<polygon points="429.7867737,26.8908272 428.3049927,29.1898499 431.2685547,29.1898499 	"/>
	<polygon points="442.3232117,29.1898499 443.8049927,26.8908272 440.8414307,26.8908272 	"/>
	<polygon points="448.586792,26.8908272 447.105011,29.1898499 450.068573,29.1898499 	"/>
	<polygon points="461.12323,29.1898499 462.605011,26.8908272 459.641449,26.8908272 	"/>
	<polygon points="467.3286438,26.8908272 465.8468323,29.1898499 468.8104248,29.1898499 	"/>
	<polygon points="479.8650818,29.1898499 481.3468323,26.8908272 478.3832703,26.8908272 	"/>
	<polygon points="486.1286316,26.8908272 484.6468811,29.1898499 487.6104431,29.1898499 	"/>
	<polygon points="498.6650696,29.1898499 500.1468811,26.8908272 497.1833191,26.8908272 	"/>
	<polygon points="353.6201172,10.8908281 352.1383362,13.1898508 355.1018982,13.1898508 	"/>
	<polygon points="368.1565247,13.1898508 369.6383362,10.8908281 366.6747437,10.8908281 	"/>
	<polygon points="372.5201111,10.8908281 371.0383301,13.1898508 374.0018921,13.1898508 	"/>
	<polygon points="387.0565491,13.1898508 388.5383301,10.8908281 385.5747681,10.8908281 	"/>
	<polygon points="391.2200928,10.8908281 389.7383118,13.1898508 392.7018738,13.1898508 	"/>
	<polygon points="405.7565308,13.1898508 407.2383118,10.8908281 404.2747498,10.8908281 	"/>
	<polygon points="410.0201111,10.8908281 408.5383301,13.1898508 411.5018921,13.1898508 	"/>
	<polygon points="424.5565491,13.1898508 426.0383301,10.8908281 423.0747681,10.8908281 	"/>
	<polygon points="428.7867737,10.8908281 427.3049927,13.1898508 430.2685547,13.1898508 	"/>
	<polygon points="443.3232117,13.1898508 444.8049927,10.8908281 441.8414307,10.8908281 	"/>
	<polygon points="447.586792,10.8908281 446.105011,13.1898508 449.068573,13.1898508 	"/>
	<polygon points="462.12323,13.1898508 463.605011,10.8908281 460.641449,10.8908281 	"/>
	<polygon points="466.3286438,10.8908281 464.8468323,13.1898508 467.8104248,13.1898508 	"/>
	<polygon points="480.8650818,13.1898508 482.3468323,10.8908281 479.3832703,10.8908281 	"/>
	<polygon points="485.1286316,10.8908281 483.6468811,13.1898508 486.6104431,13.1898508 	"/>
	<polygon points="499.6650696,13.1898508 501.1468811,10.8908281 498.1833191,10.8908281 	"/>
</g>
<rect x="521.1809692" y="21.7964039" class="st3" width="8.5581617" height="1.0012141"/>
<rect x="521.1809692" y="36.0103874" class="st3" width="8.5581617" height="1.0012141"/>
<rect x="542.1365967" y="21.7964039" class="st3" width="8.5581617" height="1.0012141"/>
<rect x="542.1365967" y="36.0103874" class="st3" width="8.5581617" height="1.0012141"/>
<g>
	<path class="st1" d="M39.994194,50.1259041v0.2386513l-1.1634483,2.4333344H38.456707l1.1592674-2.3637161v-0.0080338h-1.307209
		v-0.3002357H39.994194z"/>
	<path class="st1" d="M42.1450386,51.4332809c0,0.9084015-0.3370552,1.4097977-0.9289856,1.4097977
		c-0.5219803,0-0.8756027-0.4890137-0.8838005-1.3729782c0-0.896019,0.3864212-1.3893814,0.9289856-1.3893814
		C41.8243866,50.080719,42.1450386,50.5821152,42.1450386,51.4332809z M40.6940727,51.4741173
		c0,0.6948547,0.2137108,1.0894775,0.5425644,1.0894775c0.3700218,0,0.5467453-0.4317741,0.5467453-1.1139145
		c0-0.6577034-0.1685257-1.0894775-0.5425644-1.0894775C40.9241829,50.3602028,40.6940727,50.7467918,40.6940727,51.4741173z"/>
	<path class="st1" d="M44.0741348,50.4301567h-1.0195236l-0.1027565,0.6864891
		c0.0615883-0.0083694,0.1191559-0.0163994,0.2178955-0.0163994c0.205513,0,0.4110222,0.0451851,0.5755348,0.1439247
		c0.2095261,0.1191559,0.3822365,0.3494339,0.3822365,0.6864891c0,0.5218124-0.4152069,0.9124184-0.9947548,0.9124184
		c-0.2918663,0-0.5385475-0.0823402-0.665905-0.1643448l0.0903702-0.2754631
		c0.1109581,0.065937,0.3288536,0.1479416,0.5713501,0.1479416c0.3412361,0,0.6331024-0.2219124,0.6331024-0.5797195
		c-0.0041847-0.3450851-0.2342949-0.5917664-0.7686615-0.5917664c-0.1521225,0-0.2712822,0.0164032-0.3700218,0.0287857
		l0.1727104-1.282608h1.2784233V50.4301567z"/>
	<path class="st1" d="M46.3647194,51.4332809c0,0.9084015-0.3370514,1.4097977-0.9289856,1.4097977
		c-0.5219803,0-0.8755989-0.4890137-0.8838005-1.3729782c0-0.896019,0.3864212-1.3893814,0.9289856-1.3893814
		C46.0440674,50.080719,46.3647194,50.5821152,46.3647194,51.4332809z M44.9137535,51.4741173
		c0,0.6948547,0.2137146,1.0894775,0.5425644,1.0894775c0.3700218,0,0.5467491-0.4317741,0.5467491-1.1139145
		c0-0.6577034-0.1685257-1.0894775-0.5425644-1.0894775C45.1438675,50.3602028,44.9137535,50.7467918,44.9137535,51.4741173z"/>
	<path class="st1" d="M47.3526154,50.3314171h-0.8428001v-0.3042526h2.0512695v0.3042526h-0.846817v2.4664726h-0.3616524V50.3314171
		z"/>
	<path class="st1" d="M49.4868889,51.5524368v0.2670975H48.47155v-0.2670975H49.4868889z"/>
	<path class="st1" d="M51.3908844,50.4301567h-1.0195236l-0.1027565,0.6864891
		c0.0615845-0.0083694,0.1191559-0.0163994,0.2178955-0.0163994c0.205513,0,0.4110222,0.0451851,0.575531,0.1439247
		c0.2095299,0.1191559,0.3822403,0.3494339,0.3822403,0.6864891c0,0.5218124-0.4152069,0.9124184-0.9947586,0.9124184
		c-0.2918663,0-0.5385475-0.0823402-0.6659012-0.1643448l0.0903702-0.2754631
		c0.1109543,0.065937,0.3288536,0.1479416,0.5713501,0.1479416c0.3412361,0,0.6331024-0.2219124,0.6331024-0.5797195
		c-0.0041847-0.3450851-0.2342987-0.5917664-0.7686615-0.5917664c-0.1521263,0-0.2712822,0.0164032-0.3700218,0.0287857
		l0.1727104-1.282608h1.2784233V50.4301567z"/>
	<path class="st1" d="M51.9056664,52.7978897v-0.2219124l0.2836685-0.2754631
		c0.6824722-0.6493378,0.9907379-0.9947586,0.9947548-1.397747c0-0.2711143-0.1315384-0.5218124-0.5301781-0.5218124
		c-0.2426643,0-0.4439926,0.1231728-0.5673332,0.2259293l-0.115139-0.254715
		c0.1850929-0.1563072,0.4481735-0.27145,0.756443-0.27145c0.575531,0,0.8180275,0.3946228,0.8180275,0.7768631
		c0,0.4933586-0.3576355,0.8919983-0.920784,1.4345627l-0.2138786,0.1974792v0.0080338h1.2004356v0.3002319H51.9056664z"/>
</g>
</svg>
