<?xml version="1.0" encoding="utf-8"?>
<!-- Copyright 2022 Virtual Console LLC. All rights reserved. Generator: Adobe Illustrator 26.0.2, SVG Export Plug-In . SVG Version: 6.00 Build 0)  -->
<svg version="1.1" id="FortiGate_100E" xmlns="http://www.w3.org/2000/svg" xmlns:xlink="http://www.w3.org/1999/xlink" x="0px"
	 y="0px" viewBox="0 0 600 55" style="enable-background:new 0 0 600 55;" xml:space="preserve">
<style type="text/css">
	.st0{fill:#F4F4F4;}
	.st1{fill:#EAEAEA;}
	.st2{fill:#161616;}
	.st3{fill:#7F7F7F;}
	.st4{fill:#705D57;}
	.st5{fill:#4F4F4F;}
	.st6{fill:#0C0C0C;}
	.st7{fill:#777777;}
	.st8{fill:#545454;}
	.st9{fill:#A8A8A8;}
	.st10{fill:#31302C;}
	.st11{fill:#878787;}
	.st12{fill:#00A6FF;}
	.st13{fill:#232323;}
	.st14{fill:#D3D340;}
	.st15{fill:#0A0A0A;}
	.st16{fill:#DB3919;}
</style>
<g>
	<rect x="0" class="st0" width="600" height="55"/>
	<path class="st1" d="M591.5,51.7H8.4c-2,0-3.7-1.6-3.7-3.7V7.1c0-2,1.6-3.7,3.7-3.7h583.2c2,0,3.7,1.6,3.7,3.7V48
		C595.2,50,593.6,51.7,591.5,51.7z"/>
	<g>
		<path class="st2" d="M448.1,46.5h-80c-0.4,0-0.7-0.3-0.7-0.7V9.4c0-0.4,0.3-0.7,0.7-0.7h80c0.4,0,0.7,0.3,0.7,0.7v36.4
			C448.8,46.2,448.5,46.5,448.1,46.5z"/>
		<path class="st3" d="M447.4,45.8h-78.7c-0.4,0-0.7-0.3-0.7-0.7v-35c0-0.4,0.3-0.7,0.7-0.7h78.7c0.4,0,0.7,0.3,0.7,0.7v35
			C448.2,45.5,447.8,45.8,447.4,45.8z"/>
		<g>
			<g>
				<rect x="435.3" y="9.4" class="st4" width="5.7" height="0.6"/>
				<g>
					<g>
						<rect x="443" y="11.4" class="st5" width="4.5" height="2"/>
					</g>
					<g>
						<rect x="428.7" y="11.4" class="st5" width="4.7" height="2"/>
					</g>
					<polygon class="st6" points="429.4,13.4 429.4,18.5 429.9,18.5 429.9,20.4 429.4,20.4 429.4,21 429.4,21.5 429.4,23 
						429.4,24.6 446.8,24.6 446.8,23 446.8,21.6 446.8,21.5 446.8,21 446.8,20.4 446.3,20.4 446.3,18.5 446.8,18.5 446.8,13.4 
						443,13.4 443,11.4 441,11.4 441,9.7 435.3,9.7 435.3,11.4 433.2,11.4 433.2,13.4 					"/>
				</g>
			</g>
			<g>
				<rect x="415.5" y="9.4" class="st4" width="5.7" height="0.6"/>
				<g>
					<g>
						<rect x="423.2" y="11.4" class="st5" width="4.5" height="2"/>
					</g>
					<g>
						<rect x="408.8" y="11.4" class="st5" width="4.7" height="2"/>
					</g>
					<polygon class="st6" points="409.6,13.4 409.6,18.5 410.1,18.5 410.1,20.4 409.6,20.4 409.6,21 409.6,21.5 409.6,23 
						409.6,24.6 427,24.6 427,23 427,21.6 427,21.5 427,21 427,20.4 426.5,20.4 426.5,18.5 427,18.5 427,13.4 423.2,13.4 
						423.2,11.4 421.2,11.4 421.2,9.7 415.5,9.7 415.5,11.4 413.4,11.4 413.4,13.4 					"/>
				</g>
			</g>
			<g>
				<rect x="395.7" y="9.4" class="st4" width="5.7" height="0.6"/>
				<g>
					<g>
						<rect x="403.4" y="11.4" class="st5" width="4.5" height="2"/>
					</g>
					<g>
						<rect x="389" y="11.4" class="st5" width="4.7" height="2"/>
					</g>
					<polygon class="st6" points="389.8,13.4 389.8,18.5 390.3,18.5 390.3,20.4 389.8,20.4 389.8,21 389.8,21.5 389.8,23 
						389.8,24.6 407.2,24.6 407.2,23 407.2,21.6 407.2,21.5 407.2,21 407.2,20.4 406.7,20.4 406.7,18.5 407.2,18.5 407.2,13.4 
						403.4,13.4 403.4,11.4 401.4,11.4 401.4,9.7 395.7,9.7 395.7,11.4 393.6,11.4 393.6,13.4 					"/>
				</g>
			</g>
			<g>
				<rect x="375.9" y="9.4" class="st4" width="5.7" height="0.6"/>
				<g>
					<g>
						<rect x="383.6" y="11.4" class="st5" width="4.5" height="2"/>
					</g>
					<g>
						<rect x="369.2" y="11.4" class="st5" width="4.7" height="2"/>
					</g>
					<polygon class="st6" points="370,13.4 370,18.5 370.5,18.5 370.5,20.4 370,20.4 370,21 370,21.5 370,23 370,24.6 387.4,24.6 
						387.4,23 387.4,21.6 387.4,21.5 387.4,21 387.4,20.4 386.9,20.4 386.9,18.5 387.4,18.5 387.4,13.4 383.6,13.4 383.6,11.4 
						381.6,11.4 381.6,9.7 375.9,9.7 375.9,11.4 373.8,11.4 373.8,13.4 					"/>
				</g>
			</g>
		</g>
		<g>
			<g>
				<rect x="435.3" y="45.2" class="st4" width="5.7" height="0.6"/>
				<g>
					<g>
						<rect x="443" y="41.8" class="st5" width="4.5" height="2"/>
					</g>
					<g>
						<rect x="428.7" y="41.8" class="st5" width="4.7" height="2"/>
					</g>
					<polygon class="st6" points="433.2,41.8 433.2,43.8 435.3,43.8 435.3,45.5 441,45.5 441,43.8 443,43.8 443,41.8 446.8,41.8 
						446.8,36.7 446.3,36.7 446.3,34.8 446.8,34.8 446.8,34.2 446.8,33.7 446.8,33.6 446.8,32.2 446.8,30.6 429.4,30.6 429.4,32.2 
						429.4,33.7 429.4,34.2 429.4,34.8 429.9,34.8 429.9,36.7 429.4,36.7 429.4,41.8 					"/>
				</g>
			</g>
			<g>
				<rect x="415.5" y="45.2" class="st4" width="5.7" height="0.6"/>
				<g>
					<g>
						<rect x="423.2" y="41.8" class="st5" width="4.5" height="2"/>
					</g>
					<g>
						<rect x="408.8" y="41.8" class="st5" width="4.7" height="2"/>
					</g>
					<polygon class="st6" points="413.4,41.8 413.4,43.8 415.5,43.8 415.5,45.5 421.2,45.5 421.2,43.8 423.2,43.8 423.2,41.8 
						427,41.8 427,36.7 426.5,36.7 426.5,34.8 427,34.8 427,34.2 427,33.7 427,33.6 427,32.2 427,30.6 409.6,30.6 409.6,32.2 
						409.6,33.7 409.6,34.2 409.6,34.8 410.1,34.8 410.1,36.7 409.6,36.7 409.6,41.8 					"/>
				</g>
			</g>
			<g>
				<rect x="395.7" y="45.2" class="st4" width="5.7" height="0.6"/>
				<g>
					<g>
						<rect x="403.4" y="41.8" class="st5" width="4.5" height="2"/>
					</g>
					<g>
						<rect x="389" y="41.8" class="st5" width="4.7" height="2"/>
					</g>
					<polygon class="st6" points="393.6,41.8 393.6,43.8 395.7,43.8 395.7,45.5 401.4,45.5 401.4,43.8 403.4,43.8 403.4,41.8 
						407.2,41.8 407.2,36.7 406.7,36.7 406.7,34.8 407.2,34.8 407.2,34.2 407.2,33.7 407.2,33.6 407.2,32.2 407.2,30.6 389.8,30.6 
						389.8,32.2 389.8,33.7 389.8,34.2 389.8,34.8 390.3,34.8 390.3,36.7 389.8,36.7 389.8,41.8 					"/>
				</g>
			</g>
			<g>
				<rect x="375.9" y="45.2" class="st4" width="5.7" height="0.6"/>
				<g>
					<g>
						<rect x="383.6" y="41.8" class="st5" width="4.5" height="2"/>
					</g>
					<g>
						<rect x="369.2" y="41.8" class="st5" width="4.7" height="2"/>
					</g>
					<polygon class="st6" points="373.8,41.8 373.8,43.8 375.9,43.8 375.9,45.5 381.6,45.5 381.6,43.8 383.6,43.8 383.6,41.8 
						387.4,41.8 387.4,36.7 386.9,36.7 386.9,34.8 387.4,34.8 387.4,34.2 387.4,33.7 387.4,33.6 387.4,32.2 387.4,30.6 370,30.6 
						370,32.2 370,33.7 370,34.2 370,34.8 370.5,34.8 370.5,36.7 370,36.7 370,41.8 					"/>
				</g>
			</g>
		</g>
	</g>
	<g>
		<path class="st2" d="M361.1,46.5h-80c-0.4,0-0.7-0.3-0.7-0.7V9.4c0-0.4,0.3-0.7,0.7-0.7h80c0.4,0,0.7,0.3,0.7,0.7v36.4
			C361.8,46.2,361.5,46.5,361.1,46.5z"/>
		<path class="st3" d="M360.4,45.8h-78.7c-0.4,0-0.7-0.3-0.7-0.7v-35c0-0.4,0.3-0.7,0.7-0.7h78.7c0.4,0,0.7,0.3,0.7,0.7v35
			C361.2,45.5,360.8,45.8,360.4,45.8z"/>
		<g>
			<g>
				<rect x="348.3" y="9.4" class="st4" width="5.7" height="0.6"/>
				<g>
					<g>
						<rect x="356" y="11.4" class="st5" width="4.5" height="2"/>
					</g>
					<g>
						<rect x="341.7" y="11.4" class="st5" width="4.7" height="2"/>
					</g>
					<polygon class="st6" points="342.4,13.4 342.4,18.5 342.9,18.5 342.9,20.4 342.4,20.4 342.4,21 342.4,21.5 342.4,23 
						342.4,24.6 359.8,24.6 359.8,23 359.8,21.6 359.8,21.5 359.8,21 359.8,20.4 359.3,20.4 359.3,18.5 359.8,18.5 359.8,13.4 
						356,13.4 356,11.4 354,11.4 354,9.7 348.3,9.7 348.3,11.4 346.2,11.4 346.2,13.4 					"/>
				</g>
			</g>
			<g>
				<rect x="328.5" y="9.4" class="st4" width="5.7" height="0.6"/>
				<g>
					<g>
						<rect x="336.2" y="11.4" class="st5" width="4.5" height="2"/>
					</g>
					<g>
						<rect x="321.8" y="11.4" class="st5" width="4.7" height="2"/>
					</g>
					<polygon class="st6" points="322.6,13.4 322.6,18.5 323.1,18.5 323.1,20.4 322.6,20.4 322.6,21 322.6,21.5 322.6,23 
						322.6,24.6 340,24.6 340,23 340,21.6 340,21.5 340,21 340,20.4 339.5,20.4 339.5,18.5 340,18.5 340,13.4 336.2,13.4 
						336.2,11.4 334.2,11.4 334.2,9.7 328.5,9.7 328.5,11.4 326.4,11.4 326.4,13.4 					"/>
				</g>
			</g>
			<g>
				<rect x="308.7" y="9.4" class="st4" width="5.7" height="0.6"/>
				<g>
					<g>
						<rect x="316.4" y="11.4" class="st5" width="4.5" height="2"/>
					</g>
					<g>
						<rect x="302" y="11.4" class="st5" width="4.7" height="2"/>
					</g>
					<polygon class="st6" points="302.8,13.4 302.8,18.5 303.3,18.5 303.3,20.4 302.8,20.4 302.8,21 302.8,21.5 302.8,23 
						302.8,24.6 320.2,24.6 320.2,23 320.2,21.6 320.2,21.5 320.2,21 320.2,20.4 319.7,20.4 319.7,18.5 320.2,18.5 320.2,13.4 
						316.4,13.4 316.4,11.4 314.4,11.4 314.4,9.7 308.7,9.7 308.7,11.4 306.6,11.4 306.6,13.4 					"/>
				</g>
			</g>
			<g>
				<rect x="288.9" y="9.4" class="st4" width="5.7" height="0.6"/>
				<g>
					<g>
						<rect x="296.6" y="11.4" class="st5" width="4.5" height="2"/>
					</g>
					<g>
						<rect x="282.2" y="11.4" class="st5" width="4.7" height="2"/>
					</g>
					<polygon class="st6" points="283,13.4 283,18.5 283.5,18.5 283.5,20.4 283,20.4 283,21 283,21.5 283,23 283,24.6 300.4,24.6 
						300.4,23 300.4,21.6 300.4,21.5 300.4,21 300.4,20.4 299.9,20.4 299.9,18.5 300.4,18.5 300.4,13.4 296.6,13.4 296.6,11.4 
						294.6,11.4 294.6,9.7 288.9,9.7 288.9,11.4 286.8,11.4 286.8,13.4 					"/>
				</g>
			</g>
		</g>
		<g>
			<g>
				<rect x="348.3" y="45.2" class="st4" width="5.7" height="0.6"/>
				<g>
					<g>
						<rect x="356" y="41.8" class="st5" width="4.5" height="2"/>
					</g>
					<g>
						<rect x="341.7" y="41.8" class="st5" width="4.7" height="2"/>
					</g>
					<polygon class="st6" points="346.2,41.8 346.2,43.8 348.3,43.8 348.3,45.5 354,45.5 354,43.8 356,43.8 356,41.8 359.8,41.8 
						359.8,36.7 359.3,36.7 359.3,34.8 359.8,34.8 359.8,34.2 359.8,33.7 359.8,33.6 359.8,32.2 359.8,30.6 342.4,30.6 342.4,32.2 
						342.4,33.7 342.4,34.2 342.4,34.8 342.9,34.8 342.9,36.7 342.4,36.7 342.4,41.8 					"/>
				</g>
			</g>
			<g>
				<rect x="328.5" y="45.2" class="st4" width="5.7" height="0.6"/>
				<g>
					<g>
						<rect x="336.2" y="41.8" class="st5" width="4.5" height="2"/>
					</g>
					<g>
						<rect x="321.8" y="41.8" class="st5" width="4.7" height="2"/>
					</g>
					<polygon class="st6" points="326.4,41.8 326.4,43.8 328.5,43.8 328.5,45.5 334.2,45.5 334.2,43.8 336.2,43.8 336.2,41.8 
						340,41.8 340,36.7 339.5,36.7 339.5,34.8 340,34.8 340,34.2 340,33.7 340,33.6 340,32.2 340,30.6 322.6,30.6 322.6,32.2 
						322.6,33.7 322.6,34.2 322.6,34.8 323.1,34.8 323.1,36.7 322.6,36.7 322.6,41.8 					"/>
				</g>
			</g>
			<g>
				<rect x="308.7" y="45.2" class="st4" width="5.7" height="0.6"/>
				<g>
					<g>
						<rect x="316.4" y="41.8" class="st5" width="4.5" height="2"/>
					</g>
					<g>
						<rect x="302" y="41.8" class="st5" width="4.7" height="2"/>
					</g>
					<polygon class="st6" points="306.6,41.8 306.6,43.8 308.7,43.8 308.7,45.5 314.4,45.5 314.4,43.8 316.4,43.8 316.4,41.8 
						320.2,41.8 320.2,36.7 319.7,36.7 319.7,34.8 320.2,34.8 320.2,34.2 320.2,33.7 320.2,33.6 320.2,32.2 320.2,30.6 302.8,30.6 
						302.8,32.2 302.8,33.7 302.8,34.2 302.8,34.8 303.3,34.8 303.3,36.7 302.8,36.7 302.8,41.8 					"/>
				</g>
			</g>
			<g>
				<rect x="288.9" y="45.2" class="st4" width="5.7" height="0.6"/>
				<g>
					<g>
						<rect x="296.6" y="41.8" class="st5" width="4.5" height="2"/>
					</g>
					<g>
						<rect x="282.2" y="41.8" class="st5" width="4.7" height="2"/>
					</g>
					<polygon class="st6" points="286.8,41.8 286.8,43.8 288.9,43.8 288.9,45.5 294.6,45.5 294.6,43.8 296.6,43.8 296.6,41.8 
						300.4,41.8 300.4,36.7 299.9,36.7 299.9,34.8 300.4,34.8 300.4,34.2 300.4,33.7 300.4,33.6 300.4,32.2 300.4,30.6 283,30.6 
						283,32.2 283,33.7 283,34.2 283,34.8 283.5,34.8 283.5,36.7 283,36.7 283,41.8 					"/>
				</g>
			</g>
		</g>
	</g>
	<g>
		<path class="st2" d="M485.7,46h-22.5c-0.2,0-0.3-0.1-0.3-0.3V9.3c0-0.2,0.1-0.3,0.3-0.3h22.5c0.2,0,0.3,0.1,0.3,0.3v36.4
			C486,45.9,485.9,46,485.7,46z"/>
		<path class="st7" d="M485.2,45.7h-21.6c-0.2,0-0.3-0.1-0.3-0.3V9.7c0-0.2,0.1-0.3,0.3-0.3h21.6c0.2,0,0.3,0.1,0.3,0.3v35.7
			C485.6,45.5,485.4,45.7,485.2,45.7z"/>
		<g>
			<g>
				<polygon class="st8" points="471.7,21.4 477.2,21.4 477.8,23.3 470.8,23.3 				"/>
				<path class="st6" d="M484.5,21.9h-20.1c-0.2,0-0.4-0.2-0.4-0.4V10.1c0-0.2,0.2-0.4,0.4-0.4h20.1c0.2,0,0.4,0.2,0.4,0.4v11.4
					C484.8,21.7,484.7,21.9,484.5,21.9z"/>
				<rect x="470.8" y="21.6" class="st9" width="7" height="1.3"/>
			</g>
			<g>
				<polygon class="st8" points="470.8,31.8 477.8,31.8 477.2,33.6 471.7,33.6 				"/>
				<path class="st6" d="M484.9,33.5v11.4c0,0.2-0.2,0.4-0.4,0.4h-20.1c-0.2,0-0.4-0.2-0.4-0.4V33.6c0-0.2,0.2-0.4,0.4-0.4h20.1
					C484.7,33.2,484.8,33.4,484.9,33.5z"/>
				<rect x="470.8" y="32.1" class="st9" width="7" height="1.3"/>
			</g>
		</g>
		<path class="st10" d="M466.5,29.3l1.7-3.2l0,0h-3.6c0,0-0.1,0,0,0.1L466.5,29.3C466.4,29.4,466.5,29.4,466.5,29.3z"/>
		<path class="st10" d="M482.1,26l-1.7,3.2c-0.1,0.1,0,0.1,0,0.1h3.6v-0.1L482.1,26L482.1,26z"/>
	</g>
	<g>
		<path class="st2" d="M273.4,46.4h-21.8c-0.2,0-0.3-0.1-0.3-0.3V8.8c0-0.2,0.1-0.3,0.3-0.3h21.8c0.2,0,0.3,0.1,0.3,0.3V46
			C273.7,46.2,273.6,46.4,273.4,46.4z"/>
		<path class="st3" d="M272.9,46H252c-0.2,0-0.3-0.1-0.3-0.3V9.2c0-0.2,0.1-0.3,0.3-0.3h20.9c0.2,0,0.3,0.1,0.3,0.3v36.5
			C273.2,45.9,273.1,46,272.9,46z"/>
		<g>
			<rect x="259.8" y="8.9" class="st4" width="5.7" height="0.6"/>
			<g>
				<g>
					<rect x="267.5" y="10.9" class="st5" width="4.5" height="2"/>
				</g>
				<g>
					<rect x="253.2" y="10.9" class="st5" width="4.7" height="2"/>
				</g>
				<polygon class="st6" points="253.9,12.9 253.9,18 254.4,18 254.4,19.9 253.9,19.9 253.9,20.5 253.9,21 253.9,22.5 253.9,24.1 
					271.3,24.1 271.3,22.5 271.3,21.1 271.3,21 271.3,20.5 271.3,19.9 270.8,19.9 270.8,18 271.3,18 271.3,12.9 267.5,12.9 
					267.5,10.9 265.5,10.9 265.5,9.2 259.8,9.2 259.8,10.9 257.7,10.9 257.7,12.9 				"/>
			</g>
		</g>
		<g>
			<rect x="259.8" y="45.4" class="st4" width="5.7" height="0.6"/>
			<g>
				<g>
					<rect x="267.5" y="42" class="st5" width="4.5" height="2"/>
				</g>
				<g>
					<rect x="253.2" y="42" class="st5" width="4.7" height="2"/>
				</g>
				<polygon class="st6" points="257.7,42 257.7,44 259.8,44 259.8,45.7 265.5,45.7 265.5,44 267.5,44 267.5,42 271.3,42 
					271.3,36.9 270.8,36.9 270.8,35 271.3,35 271.3,34.4 271.3,33.9 271.3,33.8 271.3,32.4 271.3,30.8 253.9,30.8 253.9,32.4 
					253.9,33.9 253.9,34.4 253.9,35 254.4,35 254.4,36.9 253.9,36.9 253.9,42 				"/>
			</g>
		</g>
	</g>
	<g>
		<path class="st2" d="M244.4,46.4h-21.8c-0.2,0-0.3-0.1-0.3-0.3V8.8c0-0.2,0.1-0.3,0.3-0.3h21.8c0.2,0,0.3,0.1,0.3,0.3V46
			C244.7,46.2,244.6,46.4,244.4,46.4z"/>
		<path class="st3" d="M243.9,46H223c-0.2,0-0.3-0.1-0.3-0.3V9.2c0-0.2,0.1-0.3,0.3-0.3h20.9c0.2,0,0.3,0.1,0.3,0.3v36.5
			C244.2,45.9,244.1,46,243.9,46z"/>
		<g>
			<rect x="230.8" y="8.9" class="st4" width="5.7" height="0.6"/>
			<g>
				<g>
					<rect x="238.5" y="10.9" class="st5" width="4.5" height="2"/>
				</g>
				<g>
					<rect x="224.2" y="10.9" class="st5" width="4.7" height="2"/>
				</g>
				<polygon class="st6" points="224.9,12.9 224.9,18 225.4,18 225.4,19.9 224.9,19.9 224.9,20.5 224.9,21 224.9,22.5 224.9,24.1 
					242.3,24.1 242.3,22.5 242.3,21.1 242.3,21 242.3,20.5 242.3,19.9 241.8,19.9 241.8,18 242.3,18 242.3,12.9 238.5,12.9 
					238.5,10.9 236.5,10.9 236.5,9.2 230.8,9.2 230.8,10.9 228.7,10.9 228.7,12.9 				"/>
			</g>
		</g>
		<g>
			<rect x="230.8" y="45.4" class="st4" width="5.7" height="0.6"/>
			<g>
				<g>
					<rect x="238.5" y="42" class="st5" width="4.5" height="2"/>
				</g>
				<g>
					<rect x="224.2" y="42" class="st5" width="4.7" height="2"/>
				</g>
				<polygon class="st6" points="228.7,42 228.7,44 230.8,44 230.8,45.7 236.5,45.7 236.5,44 238.5,44 238.5,42 242.3,42 
					242.3,36.9 241.8,36.9 241.8,35 242.3,35 242.3,34.4 242.3,33.9 242.3,33.8 242.3,32.4 242.3,30.8 224.9,30.8 224.9,32.4 
					224.9,33.9 224.9,34.4 224.9,35 225.4,35 225.4,36.9 224.9,36.9 224.9,42 				"/>
			</g>
		</g>
	</g>
	<g>
		<path class="st2" d="M215.4,46.4h-21.8c-0.2,0-0.3-0.1-0.3-0.3V8.8c0-0.2,0.1-0.3,0.3-0.3h21.8c0.2,0,0.3,0.1,0.3,0.3V46
			C215.7,46.2,215.6,46.4,215.4,46.4z"/>
		<path class="st3" d="M214.9,46H194c-0.2,0-0.3-0.1-0.3-0.3V9.2c0-0.2,0.1-0.3,0.3-0.3h20.9c0.2,0,0.3,0.1,0.3,0.3v36.5
			C215.2,45.9,215.1,46,214.9,46z"/>
		<g>
			<rect x="201.8" y="8.9" class="st4" width="5.7" height="0.6"/>
			<g>
				<g>
					<rect x="209.5" y="10.9" class="st5" width="4.5" height="2"/>
				</g>
				<g>
					<rect x="195.2" y="10.9" class="st5" width="4.7" height="2"/>
				</g>
				<polygon class="st6" points="195.9,12.9 195.9,18 196.4,18 196.4,19.9 195.9,19.9 195.9,20.5 195.9,21 195.9,22.5 195.9,24.1 
					213.3,24.1 213.3,22.5 213.3,21.1 213.3,21 213.3,20.5 213.3,19.9 212.8,19.9 212.8,18 213.3,18 213.3,12.9 209.5,12.9 
					209.5,10.9 207.5,10.9 207.5,9.2 201.8,9.2 201.8,10.9 199.7,10.9 199.7,12.9 				"/>
			</g>
		</g>
		<g>
			<rect x="201.8" y="45.4" class="st4" width="5.7" height="0.6"/>
			<g>
				<g>
					<rect x="209.5" y="42" class="st5" width="4.5" height="2"/>
				</g>
				<g>
					<rect x="195.2" y="42" class="st5" width="4.7" height="2"/>
				</g>
				<polygon class="st6" points="199.7,42 199.7,44 201.8,44 201.8,45.7 207.5,45.7 207.5,44 209.5,44 209.5,42 213.3,42 
					213.3,36.9 212.8,36.9 212.8,35 213.3,35 213.3,34.4 213.3,33.9 213.3,33.8 213.3,32.4 213.3,30.8 195.9,30.8 195.9,32.4 
					195.9,33.9 195.9,34.4 195.9,35 196.4,35 196.4,36.9 195.9,36.9 195.9,42 				"/>
			</g>
		</g>
	</g>
	<g>
		<g>
			<path class="st2" d="M186.9,46.6h-21.8c-0.2,0-0.3-0.1-0.3-0.2V27.3c0-0.1,0.1-0.2,0.3-0.2h21.8c0.2,0,0.3,0.1,0.3,0.2v19
				C187.2,46.5,187.1,46.6,186.9,46.6z"/>
			<path class="st3" d="M186.5,46h-20.9c-0.2,0-0.3,0-0.3-0.1V28c0-0.1,0.1-0.1,0.3-0.1h20.9c0.2,0,0.3,0,0.3,0.1v17.9
				C186.8,45.9,186.7,46,186.5,46z"/>
		</g>
		<g>
			<rect x="173.2" y="27.8" class="st4" width="5.7" height="0.6"/>
			<g>
				<g>
					<rect x="180.9" y="29.8" class="st5" width="4.5" height="2"/>
				</g>
				<g>
					<rect x="166.6" y="29.8" class="st5" width="4.7" height="2"/>
				</g>
				<polygon class="st6" points="167.3,31.8 167.3,36.9 167.8,36.9 167.8,38.8 167.3,38.8 167.3,39.4 167.3,39.9 167.3,41.4 
					167.3,43 184.7,43 184.7,41.4 184.7,40 184.7,39.9 184.7,39.4 184.7,38.8 184.2,38.8 184.2,36.9 184.7,36.9 184.7,31.8 
					180.9,31.8 180.9,29.8 178.9,29.8 178.9,28.1 173.2,28.1 173.2,29.8 171.1,29.8 171.1,31.8 				"/>
			</g>
		</g>
	</g>
	<g>
		<path class="st11" d="M144.1,26.9h6.7c0.1,0,0.2,0.1,0.2,0.2v17.4c0,0.1-0.1,0.2-0.2,0.2H144c-0.1,0-0.2-0.1-0.2-0.2V27.1
			C143.9,27,143.9,26.9,144.1,26.9z"/>
		<g>
			<rect x="144.2" y="27.4" class="st6" width="6.4" height="16.8"/>
			<rect x="149.4" y="27.4" class="st12" width="1.2" height="16.8"/>
		</g>
	</g>
	<g>
		<rect x="123.2" y="23.8" class="st13" width="2.5" height="2.5"/>
		<rect x="123.2" y="29.8" class="st13" width="2.5" height="2.5"/>
		<rect x="123.2" y="35.8" class="st13" width="2.5" height="2.5"/>
		<rect x="123.2" y="41.8" class="st13" width="2.5" height="2.5"/>
	</g>
	<circle class="st6" cx="113.1" cy="43.8" r="1.2"/>
	<g>
		<g>
			<path class="st14" d="M9.1,18L9.1,18c-0.4,0-0.7-0.3-0.7-0.7V6.5c0-0.4,0.3-0.7,0.7-0.7l0,0c0.4,0,0.7,0.3,0.7,0.7v10.7
				C10,17.7,9.6,18,9.1,18z"/>
			<path class="st14" d="M12.7,18L12.7,18c-0.4,0-0.7-0.3-0.7-0.7V6.5c0-0.4,0.3-0.7,0.7-0.7l0,0c0.4,0,0.7,0.3,0.7,0.7v10.7
				C13.5,17.7,13.2,18,12.7,18z"/>
			<path class="st14" d="M16.4,18L16.4,18c-0.4,0-0.7-0.3-0.7-0.7V6.5c0-0.4,0.3-0.7,0.7-0.7l0,0c0.4,0,0.7,0.3,0.7,0.7v10.7
				C17.1,17.7,16.8,18,16.4,18z"/>
		</g>
	</g>
	<g>
		<path class="st15" d="M21,17.9v-3.9h3.2v0.5h-2.6v1.2h2.2v0.5h-2.2v1.8H21z"/>
		<path class="st15" d="M24.7,16.5c0-0.5,0.2-0.9,0.5-1.2c0.3-0.2,0.7-0.3,1.1-0.3c0.5,0,0.9,0.1,1.2,0.4c0.3,0.3,0.4,0.6,0.4,1
			c0,0.4-0.1,0.6-0.2,0.9c-0.1,0.2-0.3,0.4-0.6,0.5c-0.3,0.1-0.5,0.2-0.8,0.2c-0.5,0-0.9-0.1-1.2-0.4C24.8,17.4,24.7,17,24.7,16.5z
			 M25.3,16.5c0,0.4,0.1,0.6,0.3,0.8c0.2,0.2,0.4,0.3,0.7,0.3c0.3,0,0.5-0.1,0.7-0.3c0.2-0.2,0.3-0.5,0.3-0.8c0-0.3-0.1-0.6-0.3-0.8
			c-0.2-0.2-0.4-0.3-0.7-0.3c-0.3,0-0.5,0.1-0.7,0.3C25.4,15.9,25.3,16.2,25.3,16.5z"/>
		<path class="st15" d="M28.6,17.9v-2.8h0.5v0.4c0.1-0.2,0.3-0.3,0.4-0.4c0.1-0.1,0.2-0.1,0.4-0.1c0.2,0,0.4,0.1,0.6,0.2l-0.2,0.4
			c-0.1-0.1-0.3-0.1-0.4-0.1c-0.1,0-0.2,0-0.3,0.1c-0.1,0.1-0.2,0.1-0.2,0.3c-0.1,0.2-0.1,0.4-0.1,0.6v1.5H28.6z"/>
		<path class="st15" d="M32,17.5l0.1,0.4c-0.2,0-0.3,0-0.4,0c-0.2,0-0.4,0-0.5-0.1c-0.1-0.1-0.2-0.1-0.2-0.2c0-0.1-0.1-0.3-0.1-0.6
			v-1.6h-0.4v-0.4h0.4v-0.7l0.6-0.3v1H32v0.4h-0.6v1.6c0,0.1,0,0.2,0,0.3c0,0,0.1,0.1,0.1,0.1c0,0,0.1,0,0.2,0
			C31.9,17.5,31.9,17.5,32,17.5z"/>
		<path class="st15" d="M32.6,14.6v-0.5h0.6v0.5H32.6z M32.6,17.9v-2.8h0.6v2.8H32.6z"/>
		<path class="st15" d="M36.4,16.4V16l2,0v1.4c-0.3,0.2-0.6,0.4-1,0.5c-0.3,0.1-0.7,0.2-1,0.2c-0.5,0-0.9-0.1-1.3-0.2
			s-0.7-0.4-0.9-0.7c-0.2-0.3-0.3-0.7-0.3-1c0-0.4,0.1-0.7,0.3-1.1c0.2-0.3,0.5-0.6,0.8-0.7c0.4-0.2,0.8-0.2,1.2-0.2
			c0.3,0,0.7,0,0.9,0.1c0.3,0.1,0.5,0.2,0.7,0.4c0.2,0.2,0.3,0.4,0.4,0.6l-0.6,0.1c-0.1-0.2-0.2-0.4-0.3-0.5
			c-0.1-0.1-0.3-0.2-0.5-0.3c-0.2-0.1-0.4-0.1-0.7-0.1c-0.3,0-0.5,0-0.7,0.1c-0.2,0.1-0.4,0.2-0.5,0.3c-0.1,0.1-0.2,0.2-0.3,0.4
			c-0.1,0.2-0.2,0.5-0.2,0.8c0,0.3,0.1,0.6,0.2,0.9c0.1,0.2,0.4,0.4,0.6,0.5c0.3,0.1,0.6,0.2,0.9,0.2c0.3,0,0.5,0,0.8-0.1
			c0.3-0.1,0.5-0.2,0.6-0.3v-0.7H36.4z"/>
		<path class="st15" d="M41.5,17.6c-0.2,0.1-0.4,0.3-0.6,0.3C40.6,18,40.4,18,40.2,18c-0.4,0-0.7-0.1-0.9-0.2
			c-0.2-0.2-0.3-0.3-0.3-0.6c0-0.1,0-0.3,0.1-0.4c0.1-0.1,0.2-0.2,0.3-0.3c0.1-0.1,0.3-0.1,0.4-0.2c0.1,0,0.3,0,0.5-0.1
			c0.5,0,0.8-0.1,1-0.2c0-0.1,0-0.1,0-0.1c0-0.2-0.1-0.3-0.2-0.4c-0.1-0.1-0.4-0.2-0.7-0.2c-0.3,0-0.5,0-0.6,0.1
			c-0.1,0.1-0.2,0.2-0.3,0.4l-0.6-0.1c0.1-0.2,0.1-0.4,0.3-0.5c0.1-0.1,0.3-0.2,0.5-0.3c0.2-0.1,0.5-0.1,0.8-0.1
			c0.3,0,0.5,0,0.7,0.1c0.2,0.1,0.3,0.1,0.4,0.2c0.1,0.1,0.1,0.2,0.2,0.3c0,0.1,0,0.2,0,0.4v0.6c0,0.4,0,0.7,0,0.8
			c0,0.1,0.1,0.2,0.1,0.3h-0.6C41.5,17.8,41.5,17.7,41.5,17.6z M41.4,16.5c-0.2,0.1-0.5,0.1-0.9,0.2c-0.2,0-0.4,0.1-0.5,0.1
			c-0.1,0-0.2,0.1-0.2,0.2c-0.1,0.1-0.1,0.1-0.1,0.2c0,0.1,0.1,0.2,0.2,0.3c0.1,0.1,0.3,0.1,0.5,0.1c0.2,0,0.4,0,0.6-0.1
			c0.2-0.1,0.3-0.2,0.4-0.3c0.1-0.1,0.1-0.3,0.1-0.5V16.5z"/>
		<path class="st15" d="M44.2,17.5l0.1,0.4c-0.2,0-0.3,0-0.4,0c-0.2,0-0.4,0-0.5-0.1c-0.1-0.1-0.2-0.1-0.2-0.2
			c0-0.1-0.1-0.3-0.1-0.6v-1.6h-0.4v-0.4H43v-0.7l0.6-0.3v1h0.6v0.4h-0.6v1.6c0,0.1,0,0.2,0,0.3c0,0,0.1,0.1,0.1,0.1
			c0,0,0.1,0,0.2,0C44,17.5,44.1,17.5,44.2,17.5z"/>
		<path class="st15" d="M47.1,17l0.6,0.1c-0.1,0.3-0.3,0.5-0.5,0.7c-0.3,0.2-0.6,0.2-1,0.2c-0.5,0-0.9-0.1-1.2-0.4
			c-0.3-0.3-0.4-0.6-0.4-1.1c0-0.5,0.1-0.8,0.4-1.1s0.7-0.4,1.2-0.4c0.5,0,0.8,0.1,1.1,0.4c0.3,0.3,0.4,0.6,0.4,1.1c0,0,0,0.1,0,0.1
			h-2.6c0,0.3,0.1,0.5,0.3,0.7c0.2,0.2,0.4,0.2,0.7,0.2c0.2,0,0.4,0,0.5-0.1C46.9,17.4,47,17.2,47.1,17z M45.2,16.3h1.9
			c0-0.2-0.1-0.4-0.2-0.5c-0.2-0.2-0.4-0.3-0.7-0.3c-0.3,0-0.5,0.1-0.7,0.2C45.3,15.8,45.2,16,45.2,16.3z"/>
		<path class="st15" d="M52.3,17.9h-0.6v-3c-0.1,0.1-0.3,0.2-0.6,0.3s-0.4,0.2-0.6,0.2V15c0.3-0.1,0.6-0.3,0.9-0.5
			c0.2-0.2,0.4-0.4,0.5-0.5h0.4V17.9z"/>
		<path class="st15" d="M53.8,16c0-0.5,0.1-0.8,0.2-1.1s0.3-0.5,0.5-0.6c0.2-0.2,0.5-0.2,0.9-0.2c0.3,0,0.5,0,0.7,0.1
			c0.2,0.1,0.4,0.2,0.5,0.4c0.1,0.2,0.2,0.3,0.3,0.6c0.1,0.2,0.1,0.5,0.1,0.9c0,0.5-0.1,0.8-0.2,1.1c-0.1,0.3-0.3,0.5-0.5,0.6
			C56,17.9,55.7,18,55.3,18c-0.5,0-0.8-0.1-1.1-0.4C53.9,17.3,53.8,16.8,53.8,16z M54.4,16c0,0.6,0.1,1.1,0.3,1.3
			c0.2,0.2,0.4,0.3,0.7,0.3c0.3,0,0.5-0.1,0.7-0.3c0.2-0.2,0.3-0.6,0.3-1.3c0-0.6-0.1-1.1-0.3-1.3c-0.2-0.2-0.4-0.3-0.7-0.3
			c-0.3,0-0.5,0.1-0.6,0.3C54.5,15,54.4,15.4,54.4,16z"/>
		<path class="st15" d="M57.5,16c0-0.5,0.1-0.8,0.2-1.1s0.3-0.5,0.5-0.6c0.2-0.2,0.5-0.2,0.9-0.2c0.3,0,0.5,0,0.7,0.1
			c0.2,0.1,0.4,0.2,0.5,0.4c0.1,0.2,0.2,0.3,0.3,0.6c0.1,0.2,0.1,0.5,0.1,0.9c0,0.5-0.1,0.8-0.2,1.1c-0.1,0.3-0.3,0.5-0.5,0.6
			C59.6,17.9,59.3,18,59,18c-0.5,0-0.8-0.1-1.1-0.4C57.6,17.3,57.5,16.8,57.5,16z M58.1,16c0,0.6,0.1,1.1,0.3,1.3
			c0.2,0.2,0.4,0.3,0.7,0.3s0.5-0.1,0.7-0.3c0.2-0.2,0.3-0.6,0.3-1.3c0-0.6-0.1-1.1-0.3-1.3c-0.2-0.2-0.4-0.3-0.7-0.3
			c-0.3,0-0.5,0.1-0.6,0.3C58.2,15,58.1,15.4,58.1,16z"/>
		<path class="st15" d="M61.4,17.9v-3.9h3.4v0.5H62v1.2h2.6v0.5H62v1.3h2.9v0.5H61.4z"/>
	</g>
	<g>
		<path class="st15" d="M45.7,12.3c-0.5,0-0.9,0-1.4,0c0,0-0.1-0.1-0.1-0.2c0-0.6,0-1.2,0-1.9c0-0.2-0.1-0.4-0.3-0.4
			c-1.2,0-2.4,0-3.6,0c0,0.8,0,1.6,0,2.4c-0.5,0-1,0-1.5,0c0-2.1,0-4.2,0-6.3c0.1,0,0.2,0,0.3,0c1.6,0,3.1,0,4.7,0
			c0.3,0,0.6,0,0.9,0.1c0.7,0.2,1.1,0.6,1.1,1.2c0,0.4,0,0.8,0,1.2s-0.2,0.7-0.5,1c0.4,0.2,0.4,0.6,0.4,1
			C45.7,11.1,45.7,11.7,45.7,12.3z M40.3,8.5c1.2,0,2.4,0,3.6,0c0.2,0,0.3-0.1,0.3-0.3c0-0.1,0-0.3,0-0.4c0-0.2-0.1-0.3-0.3-0.3
			c-0.1,0-0.2,0-0.3,0c-1,0-2.1,0-3.1,0c-0.1,0-0.1,0-0.2,0C40.3,7.8,40.3,8.1,40.3,8.5z"/>
		<path class="st15" d="M65.5,10.9c1.6,0,3.1,0,4.7,0c0,0.5,0,0.9,0,1.4c-2.1,0-4.1,0-6.2,0c0-2.1,0-4.2,0-6.3c2.1,0,4.1,0,6.2,0
			c0,0.5,0,0.9,0,1.4c-1.5,0-3.1,0-4.6,0c0,0.4,0,0.7,0,1.1c1.1,0,2.1,0,3.2,0c0,0.5,0,0.9,0,1.4c-1.1,0-2.1,0-3.2,0
			C65.5,10.2,65.5,10.5,65.5,10.9z"/>
		<path class="st15" d="M57.3,7.4c0,1.6,0,3.2,0,4.9c-0.5,0-1,0-1.5,0c0-2.1,0-4.2,0-6.3c0.3,0,0.7,0,1,0c1.3,0,2.7,0,4,0
			c0.7,0,1.3,0.2,1.7,0.9c0.2,0.4,0.3,0.8,0.3,1.3c0,1.3,0,2.6,0,3.9c0,0.1,0,0.1,0,0.2c-0.5,0-1,0-1.5,0c0-0.1,0-0.2,0-0.3
			c0-1.3,0-2.5,0-3.8c0-0.1,0-0.2,0-0.4s-0.2-0.4-0.4-0.4C59.7,7.4,58.5,7.4,57.3,7.4z"/>
		<path class="st15" d="M22.5,12.3c-0.5,0-1,0-1.5,0c0-2.1,0-4.2,0-6.3c2.3,0,4.6,0,6.9,0c0,0.5,0,0.9,0,1.4c-1.8,0-3.6,0-5.4,0
			c0,0.4,0,0.7,0,1.1c1.5,0,3.1,0,4.6,0c0,0.5,0,0.9,0,1.4c-1.5,0-3.1,0-4.6,0C22.5,10.7,22.5,11.5,22.5,12.3z"/>
		<path class="st15" d="M46.6,7.4c0-0.5,0-0.9,0-1.4c1.9,0,3.8,0,5.8,0c0,0.4,0,0.9,0,1.4c-0.9,0-1.8,0-2.8,0c0,1.6,0,3.3,0,4.9
			c-0.5,0-1,0-1.5,0c0-1.6,0-3.2,0-4.9C47.5,7.4,47.1,7.4,46.6,7.4z"/>
		<path class="st15" d="M70.9,6c1.9,0,3.8,0,5.7,0c0,0.5,0,0.9,0,1.4c-0.9,0-1.8,0-2.7,0c0,0.1,0,0.2,0,0.3c0,1.4,0,2.9,0,4.3
			c0,0.2,0,0.3-0.3,0.3c-0.4,0-0.8,0-1.3,0c0-1.6,0-3.3,0-4.9c-0.5,0-1,0-1.4,0C70.9,6.9,70.9,6.5,70.9,6z"/>
		<path class="st15" d="M53.1,6c0.5,0,1,0,1.5,0c0,2.1,0,4.2,0,6.3c-0.5,0-1,0-1.5,0C53.1,10.2,53.1,8.1,53.1,6z"/>
		<g>
			<g>
				<path class="st16" d="M31.1,8.3c0,0.4,0,0.7,0,1.1c0,0.5,0,0.5-0.5,0.5c-0.6,0-1.2,0-1.8,0c-0.2,0-0.2-0.1-0.2-0.2
					c0-0.5,0-0.9,0-1.4C29.5,8.3,30.3,8.3,31.1,8.3z"/>
				<path class="st16" d="M35.1,8.3c0.8,0,1.7,0,2.5,0c0,0.4,0,0.8,0,1.2c0,0.5,0.1,0.5-0.5,0.5s-1.2,0-1.8,0C35.1,10,35,9.9,35,9.7
					C35.1,9.3,35.1,8.8,35.1,8.3z"/>
				<path class="st16" d="M34.3,7.6c-0.8,0-1.6,0-2.3,0c-0.1,0-0.2-0.1-0.2-0.2c0-0.4,0-0.9,0-1.3C31.8,6,31.9,6,32,6
					c0.7,0,1.4,0,2.1,0c0.1,0,0.1,0.1,0.1,0.1C34.3,6.6,34.3,7.1,34.3,7.6z"/>
				<path class="st16" d="M33.1,10.7c0.3,0,0.7,0,1,0c0.2,0,0.2,0,0.2,0.2c0,0.4,0,0.8,0,1.2c0,0.1,0,0.2-0.2,0.2
					c-0.7,0-1.4,0-2.1,0c-0.1,0-0.2,0-0.2-0.2c0-0.4,0-0.8,0-1.3c0-0.1,0.1-0.2,0.2-0.2C32.4,10.7,32.8,10.7,33.1,10.7z"/>
				<path class="st16" d="M29.9,10.7c0.3,0,0.7,0,1,0c0.2,0,0.2,0,0.2,0.2c0,0.4,0,0.8,0,1.2c0,0.2,0,0.2-0.2,0.2
					c-0.4,0-0.8,0-1.3,0c-0.2,0-0.4-0.2-0.6-0.3c-0.3-0.3-0.4-0.7-0.5-1.1c0-0.2,0-0.3,0.2-0.2C29.2,10.7,29.5,10.7,29.9,10.7z"/>
				<path class="st16" d="M31.1,7.6c-0.9,0-1.7,0-2.5,0C28.4,6.9,29.1,6,29.9,6c0.3,0,0.7,0,1,0c0.1,0,0.2,0.1,0.2,0.1
					C31.1,6.6,31.1,7.1,31.1,7.6z"/>
				<path class="st16" d="M35.1,10.7c0.4,0,0.8,0,1.2,0s0.8,0,1.2,0c0.1,0,0.2,0.1,0.2,0.2c-0.1,0.5-0.3,1-0.7,1.3
					c-0.1,0.1-0.2,0.1-0.3,0.1c-0.4,0-0.9,0-1.3,0c-0.1,0-0.2-0.1-0.2-0.1C35.1,11.7,35.1,11.2,35.1,10.7z"/>
				<path class="st16" d="M35.1,6c0.5,0,1,0,1.5,0c0.2,0,0.4,0.2,0.6,0.4c0.3,0.3,0.4,0.6,0.4,1c0,0.1,0,0.2-0.2,0.2
					c-0.7,0-1.4,0-2.1,0c-0.1,0-0.2-0.1-0.2-0.1C35.1,7,35.1,6.5,35.1,6z"/>
			</g>
		</g>
	</g>
</g>
</svg>
