<?xml version="1.0" encoding="utf-8"?>
<!-- Copyright 2022 Virtual Console LLC. All rights reserved. Generator: Adobe Illustrator 23.1.0, SVG Export Plug-In . SVG Version: 6.00 Build 0)  -->
<svg version="1.1" id="Cisco_Catalyst_2960C-12PC-L"
	 xmlns="http://www.w3.org/2000/svg" xmlns:xlink="http://www.w3.org/1999/xlink" x="0px" y="0px" viewBox="0 0 600 55"
	 style="enable-background:new 0 0 600 55;" xml:space="preserve">
<style type="text/css">
	.st0{fill:#E0E0E0;}
	.st1{fill:#EAEAEA;}
	.st2{fill:#CB5164;}
	.st3{fill:#EFCE84;}
	.st4{fill:#938F90;}
	.st5{fill:#9FBEC1;}
	.st6{enable-background:new    ;}
	.st7{fill:#616361;}
	.st8{fill:none;}
</style>
<path class="st0" d="M503.3,55.2H91.6c-5.1,0-9.2-4.1-9.2-9.2V9.4c0-5.1,4.1-9.2,9.2-9.2h411.7c5.1,0,9.2,4.1,9.2,9.2V46
	C512.5,51.1,508.4,55.2,503.3,55.2z"/>
<path class="st1" d="M496,50.7H98.4c-5.1,0-9.2-4.1-9.2-9.2V13.9c0-5.1,4.1-9.2,9.2-9.2H496c5.1,0,9.2,4.1,9.2,9.2v27.6
	C505.3,46.6,501.1,50.7,496,50.7z"/>
<g>
	<rect x="222" y="16" class="st2" width="18.6" height="23"/>
	<polygon points="236.3,15.6 236.3,13.6 234.3,13.6 234.3,12.4 228.3,12.4 228.3,13.6 226.3,13.6 226.3,15.6 222.3,15.6 222.3,26.6 
		240.3,26.6 240.3,15.6 	"/>
	<polygon points="226.3,42.4 226.3,44.4 228.3,44.4 228.3,45.6 234.3,45.6 234.3,44.4 236.3,44.4 236.3,42.4 240.3,42.4 240.3,31.4 
		222.3,31.4 222.3,42.4 	"/>
	<polygon points="224,9 222,13 226,13 	"/>
	<polygon points="238,13 240,9 236,9 	"/>
</g>
<g>
	<rect x="256" y="16" class="st2" width="18.6" height="23"/>
	<polygon points="270.4,15.6 270.4,13.6 268.4,13.6 268.4,12.4 262.4,12.4 262.4,13.6 260.4,13.6 260.4,15.6 256.4,15.6 256.4,26.6 
		274.4,26.6 274.4,15.6 	"/>
	<polygon points="260.4,42.4 260.4,44.4 262.4,44.4 262.4,45.6 268.4,45.6 268.4,44.4 270.4,44.4 270.4,42.4 274.4,42.4 274.4,31.4 
		256.4,31.4 256.4,42.4 	"/>
	<polygon points="258,9 256,13 260,13 	"/>
	<polygon points="272,13 274,9 270,9 	"/>
</g>
<g>
	<rect x="290.1" y="16" class="st2" width="18.6" height="23"/>
	<polygon points="304.4,15.6 304.4,13.6 302.4,13.6 302.4,12.4 296.4,12.4 296.4,13.6 294.4,13.6 294.4,15.6 290.4,15.6 290.4,26.6 
		308.4,26.6 308.4,15.6 	"/>
	<polygon points="294.4,42.4 294.4,44.4 296.4,44.4 296.4,45.6 302.4,45.6 302.4,44.4 304.4,44.4 304.4,42.4 308.4,42.4 308.4,31.4 
		290.4,31.4 290.4,42.4 	"/>
	<polygon points="292.1,9 290.1,13 294.1,13 	"/>
	<polygon points="306.1,13 308.1,9 304.1,9 	"/>
</g>
<g>
	<rect x="324.1" y="16" class="st2" width="18.6" height="23"/>
	<polygon points="338.5,15.6 338.5,13.6 336.5,13.6 336.5,12.4 330.5,12.4 330.5,13.6 328.5,13.6 328.5,15.6 324.5,15.6 324.5,26.6 
		342.5,26.6 342.5,15.6 	"/>
	<polygon points="328.5,42.4 328.5,44.4 330.5,44.4 330.5,45.6 336.5,45.6 336.5,44.4 338.5,44.4 338.5,42.4 342.5,42.4 342.5,31.4 
		324.5,31.4 324.5,42.4 	"/>
	<polygon points="326.1,9 324.1,13 328.1,13 	"/>
	<polygon points="340.1,13 342.1,9 338.1,9 	"/>
</g>
<g>
	<rect x="358.2" y="16" class="st2" width="18.6" height="23"/>
	<polygon points="372.5,15.6 372.5,13.6 370.5,13.6 370.5,12.4 364.5,12.4 364.5,13.6 362.5,13.6 362.5,15.6 358.5,15.6 358.5,26.6 
		376.5,26.6 376.5,15.6 	"/>
	<polygon points="362.5,42.4 362.5,44.4 364.5,44.4 364.5,45.6 370.5,45.6 370.5,44.4 372.5,44.4 372.5,42.4 376.5,42.4 376.5,31.4 
		358.5,31.4 358.5,42.4 	"/>
	<polygon points="360.2,9 358.2,13 362.2,13 	"/>
	<polygon points="374.2,13 376.2,9 372.2,9 	"/>
</g>
<g>
	<rect x="392.2" y="16" class="st2" width="18.6" height="23"/>
	<polygon points="406.6,15.6 406.6,13.6 404.6,13.6 404.6,12.4 398.6,12.4 398.6,13.6 396.6,13.6 396.6,15.6 392.6,15.6 392.6,26.6 
		410.6,26.6 410.6,15.6 	"/>
	<polygon points="396.6,42.4 396.6,44.4 398.6,44.4 398.6,45.6 404.6,45.6 404.6,44.4 406.6,44.4 406.6,42.4 410.6,42.4 410.6,31.4 
		392.6,31.4 392.6,42.4 	"/>
	<polygon points="394.2,9 392.2,13 396.2,13 	"/>
	<polygon points="408.2,13 410.2,9 406.2,9 	"/>
</g>
<g>
	<rect x="432.6" y="16" class="st3" width="18" height="23"/>
	<polygon points="436.6,23.4 436.6,24.6 446.6,24.6 446.6,23.4 450.6,23.4 450.6,12.4 432.6,12.4 432.6,23.4 	"/>
	<polygon points="436.6,42.4 436.6,44.4 438.6,44.4 438.6,45.6 444.6,45.6 444.6,44.4 446.6,44.4 446.6,42.4 450.6,42.4 450.6,31.4 
		432.6,31.4 432.6,42.4 	"/>
	<rect x="437" y="22.4" class="st4" width="9" height="0.9"/>
</g>
<g>
	<rect x="465.5" y="16" class="st3" width="18" height="23"/>
	<polygon points="469.5,23.4 469.5,24.6 479.5,24.6 479.5,23.4 483.5,23.4 483.5,12.4 465.5,12.4 465.5,23.4 	"/>
	<polygon points="469.5,42.4 469.5,44.4 471.5,44.4 471.5,45.6 477.5,45.6 477.5,44.4 479.5,44.4 479.5,42.4 483.5,42.4 483.5,31.4 
		465.5,31.4 465.5,42.4 	"/>
	<rect x="469.9" y="22.4" class="st4" width="9" height="0.9"/>
</g>
<polygon points="176.6,42.4 176.6,44.4 178.6,44.4 178.6,45.6 184.6,45.6 184.6,44.4 186.6,44.4 186.6,42.4 190.6,42.4 190.6,31.4 
	172.6,31.4 172.6,42.4 "/>
<rect x="152.4" y="42" width="11.8" height="3.6"/>
<rect x="157.3" y="35" width="2.1" height="2.1"/>
<rect x="180.5" y="24.5" width="2.1" height="2.1"/>
<rect x="152.4" y="46.2" class="st5" width="41.3" height="4.2"/>
<rect x="222" y="46.2" class="st3" width="189.3" height="3"/>
<g>
	<path d="M102.3,18.7h-0.5c-0.2,0-0.5-0.2-0.5-0.5v-6.4c0-0.2,0.2-0.5,0.5-0.5h0.5c0.2,0,0.5,0.2,0.5,0.5v6.4
		C102.6,18.4,102.6,18.7,102.3,18.7z"/>
	<path d="M115.8,18.7h-0.5c-0.2,0-0.5-0.2-0.5-0.5v-6.4c0-0.2,0.2-0.5,0.5-0.5h0.5c0.2,0,0.5,0.2,0.5,0.5v6.4
		C116.2,18.4,116.2,18.7,115.8,18.7z"/>
	<path d="M99,18.4h-0.5c-0.2,0-0.5-0.2-0.5-0.5v-3.8c0-0.2,0.2-0.5,0.5-0.5H99c0.2,0,0.5,0.2,0.5,0.5v3.8
		C99.3,18.2,99.3,18.4,99,18.4z"/>
	<path d="M95.7,18.4H95c-0.2,0-0.5-0.2-0.5-0.5v-2.4c0-0.2,0.2-0.5,0.5-0.5h0.5c0.2,0,0.5,0.2,0.5,0.5v2.4
		C96,18.2,95.7,18.4,95.7,18.4z"/>
	<path d="M112.5,18.4H112c-0.2,0-0.5-0.2-0.5-0.5v-3.8c0-0.2,0.2-0.5,0.5-0.5h0.5c0.2,0,0.5,0.2,0.5,0.5v3.8
		C112.9,18.2,112.7,18.4,112.5,18.4z"/>
	<path d="M105.9,18.4h-0.7c-0.2,0-0.5-0.2-0.5-0.5v-3.8c0-0.2,0.2-0.5,0.5-0.5h0.5c0.2,0,0.5,0.2,0.5,0.5v3.8
		C106.1,18.2,106.1,18.4,105.9,18.4z"/>
	<path d="M109.2,18.4h-0.5c-0.2,0-0.5-0.2-0.5-0.5v-2.4c0-0.2,0.2-0.5,0.5-0.5h0.5c0.2,0,0.5,0.2,0.5,0.5v2.4
		C109.4,18.2,109.4,18.4,109.2,18.4z"/>
	<path d="M119.3,18.4h-0.5c-0.2,0-0.5-0.2-0.5-0.5v-3.8c0-0.2,0.2-0.5,0.5-0.5h0.5c0.2,0,0.5,0.2,0.5,0.5v3.8
		C119.8,18.2,119.5,18.4,119.3,18.4z"/>
	<path d="M122.8,18.4h-0.5c-0.2,0-0.5-0.2-0.5-0.5v-2.4c0-0.2,0.2-0.5,0.5-0.5h0.5c0.2,0,0.5,0.2,0.5,0.5v2.4
		C123.1,18.2,122.8,18.4,122.8,18.4z"/>
	<g class="st6">
		<path d="M102.3,23.9c0,0.5-0.2,0.5-0.2,0.9c-0.2,0.2-0.5,0.5-0.9,0.5c-0.2,0.2-0.7,0.5-0.9,0.5c-0.7,0-1.4-0.2-1.9-0.5
			c-0.2-0.5-0.5-1.2-0.5-1.9v-0.2c0-0.5,0.2-0.9,0.2-1.4c0.2-0.5,0.5-0.5,0.7-0.7c0.5-0.2,0.7-0.5,1.2-0.5s1.2,0.2,1.7,0.5
			c0.5,0.2,0.7,0.7,0.9,1.2h-1.7c0-0.5,0-0.5-0.2-0.5c0-0.2-0.5-0.2-0.7-0.2c-0.5,0-0.5,0.2-0.7,0.5c0,0.2-0.2,0.5-0.2,1.2v0.5
			c0,0.5,0.2,0.9,0.2,1.2c0.2,0.2,0.5,0.5,0.7,0.5c0.5,0,0.5-0.2,0.7-0.2c0.2-0.2,0.2-0.5,0.2-0.5L102.3,23.9L102.3,23.9z"/>
		<path d="M104.5,25.5h-1.4v-5h1.4C104.5,20.6,104.5,25.5,104.5,25.5z"/>
		<path d="M108,24.1c0-0.2-0.2-0.5-0.2-0.5c-0.2-0.2-0.5-0.2-0.7-0.5c-0.2,0-0.5,0-0.7-0.2c-0.7-0.5-1.2-0.7-1.2-1.4
			c0-0.2,0.2-0.5,0.2-0.7c0.2-0.2,0.5-0.5,0.7-0.5c0.5-0.2,0.7-0.2,1.2-0.2s0.7,0.2,1.2,0.2c0.2,0.2,0.5,0.5,0.7,0.5
			c0.2,0.2,0.2,0.5,0.2,0.7H108c0-0.2-0.2-0.5-0.2-0.5c-0.2-0.2-0.5-0.2-0.5-0.2c-0.2,0.2-0.2,0.2-0.5,0.2c0,0.2-0.2,0.5-0.2,0.5
			c0,0.2,0.2,0.2,0.2,0.5s0.5,0.2,0.7,0.5c0.5,0.2,0.7,0.2,0.9,0.5c0.7,0.2,0.9,0.7,0.9,1.2s-0.2,0.7-0.5,0.9
			c-0.5,0.2-0.7,0.5-1.4,0.5c-0.5,0-0.7-0.2-1.2-0.2s-0.7-0.5-0.9-0.5c-0.2-0.5-0.2-0.7-0.2-0.9h1.4c0,0.2,0.2,0.5,0.2,0.5
			c0.2,0.2,0.5,0.2,0.7,0.2C107.8,24.6,108,24.3,108,24.1C108,24.6,108,24.3,108,24.1z"/>
		<path d="M114.6,23.9c0,0.5-0.2,0.5-0.2,0.9c-0.2,0.2-0.5,0.5-0.7,0.5c-0.5,0.2-0.7,0.2-1.2,0.2c-0.7,0-1.4-0.2-1.9-0.5
			c-0.5-0.5-0.5-1.2-0.5-1.9l0,0c0-0.5,0.2-0.9,0.2-1.4c0.2-0.5,0.5-0.5,0.7-0.7c0.5-0.2,0.7-0.5,1.2-0.5s1.2,0.2,1.7,0.5
			c0.5,0.5,0.5,0.7,0.7,1.4h-1.4c0.2-0.7,0-0.7,0-0.7c-0.2-0.2-0.5-0.2-0.7-0.2c-0.5,0-0.5,0.2-0.7,0.5c-0.2,0.2-0.2,0.5-0.2,1.2
			v0.5c0,0.5,0.2,0.9,0.2,1.2c0.2,0.2,0.5,0.5,0.7,0.5s0.5-0.2,0.7-0.2c0.2-0.2,0.2-0.5,0.2-0.5L114.6,23.9L114.6,23.9z"/>
		<path d="M120,23.2c0,0.5-0.2,0.9-0.2,1.4s-0.7,0.5-0.9,0.7c-0.5,0.2-0.7,0.5-1.2,0.5s-0.7-0.2-1.2-0.2c-0.5-0.2-0.5-0.5-0.7-0.7
			c-0.2-0.5-0.2-0.7-0.5-1.2v-0.5c0-0.5,0.2-0.9,0.2-1.4c0.2-0.5,0.5-0.5,0.7-0.7c0.5-0.2,0.7-0.5,1.2-0.5s0.7,0.2,1.2,0.5
			c0.5,0.2,0.5,0.5,0.7,0.7C119.8,22.2,119.8,22.5,120,23.2L120,23.2L120,23.2L120,23.2z M118.6,22.9c0-0.5-0.2-0.7-0.2-1.2
			c-0.2-0.2-0.5-0.5-0.7-0.5c-0.7,0.2-1.2,0.5-1.2,1.4v0.5c0,0.5,0,0.9,0.2,1.2c0.2,0.2,0.5,0.5,0.7,0.5s0.5-0.2,0.7-0.5
			c0.2-0.2,0.2-0.5,0.2-1.2L118.6,22.9L118.6,22.9z"/>
	</g>
</g>
<circle class="st0" cx="109.7" cy="39" r="5"/>
<g>
	<g>
		<path class="st7" d="M165.3,49.1c0,0.3-0.2,0.4-0.4,0.6c-0.2,0.1-0.5,0.2-0.9,0.2s-0.7-0.1-1-0.3c-0.2-0.2-0.4-0.5-0.4-0.8v-0.2
			c0-0.2,0.1-0.4,0.2-0.6c0.1-0.1,0.3-0.3,0.5-0.4c0.2-0.1,0.4-0.1,0.7-0.1c0.4,0,0.7,0.1,0.9,0.2c0.2,0.1,0.3,0.3,0.4,0.6h-0.5
			c0-0.2-0.1-0.3-0.3-0.4c-0.1-0.1-0.3-0.1-0.5-0.1c-0.3,0-0.5,0.1-0.7,0.2c-0.2,0.1-0.2,0.3-0.2,0.6v0.2c0,0.3,0.1,0.5,0.2,0.6
			c0.1,0.1,0.4,0.2,0.6,0.2s0.4-0.1,0.6-0.1c0.1-0.1,0.2-0.2,0.3-0.4H165.3L165.3,49.1L165.3,49.1z"/>
		<path class="st7" d="M168.6,48.7c0,0.2-0.1,0.4-0.2,0.6c-0.1,0.1-0.3,0.3-0.5,0.4c-0.2,0.1-0.4,0.1-0.7,0.1s-0.5-0.1-0.7-0.1
			c-0.2-0.1-0.4-0.2-0.5-0.4c-0.1-0.1-0.2-0.3-0.2-0.6v-0.1c0-0.2,0.1-0.4,0.2-0.6c0.1-0.2,0.3-0.3,0.5-0.4c0.2-0.1,0.4-0.1,0.7-0.1
			s0.5,0.1,0.7,0.1c0.2,0.1,0.4,0.2,0.5,0.4S168.6,48.4,168.6,48.7L168.6,48.7z M168.1,48.6c0-0.3-0.1-0.5-0.2-0.6
			c-0.2-0.1-0.4-0.2-0.7-0.2s-0.5,0.1-0.7,0.2c-0.2,0.1-0.2,0.3-0.3,0.6v0.1c0,0.3,0.1,0.5,0.2,0.6c0.2,0.1,0.4,0.2,0.7,0.2
			s0.5-0.1,0.7-0.2c0.2-0.1,0.2-0.3,0.2-0.6L168.1,48.6L168.1,48.6z"/>
		<path class="st7" d="M171.8,49.9h-0.5l-1.7-1.8v1.8h-0.5v-2.4h0.5l1.7,1.8v-1.8h0.4v2.4H171.8z"/>
		<path class="st7" d="M173.6,48.8c-0.4-0.1-0.7-0.1-0.8-0.3c-0.2-0.1-0.3-0.3-0.3-0.4c0-0.2,0.1-0.3,0.3-0.5
			c0.2-0.1,0.5-0.2,0.8-0.2c0.2,0,0.4,0,0.6,0.1c0.2,0.1,0.3,0.1,0.4,0.3c0.1,0.1,0.2,0.2,0.2,0.3h-0.5c0-0.1-0.1-0.3-0.2-0.3
			c-0.1-0.1-0.3-0.1-0.6-0.1c-0.2,0-0.4,0-0.5,0.1s-0.2,0.1-0.2,0.3c0,0.1,0.1,0.2,0.2,0.3c0.1,0.1,0.3,0.1,0.6,0.2
			c0.3,0.1,0.5,0.1,0.7,0.2c0.2,0.1,0.3,0.1,0.4,0.2c0.1,0.1,0.1,0.2,0.1,0.3c0,0.2-0.1,0.3-0.3,0.5c-0.2,0.1-0.5,0.1-0.9,0.1
			c-0.2,0-0.5,0-0.7-0.1s-0.4-0.1-0.5-0.3c-0.1-0.1-0.2-0.2-0.2-0.3h0.5c0,0.1,0.1,0.3,0.2,0.3c0.2,0.1,0.4,0.1,0.6,0.1
			s0.4,0,0.5-0.1s0.2-0.1,0.2-0.3c0-0.1-0.1-0.2-0.2-0.3C174.2,48.9,174,48.8,173.6,48.8z"/>
		<path class="st7" d="M178.1,48.7c0,0.2-0.1,0.4-0.2,0.6c-0.1,0.1-0.3,0.3-0.5,0.4c-0.2,0.1-0.4,0.1-0.7,0.1s-0.5-0.1-0.7-0.1
			c-0.2-0.1-0.4-0.2-0.5-0.4c-0.1-0.1-0.2-0.3-0.2-0.6v-0.1c0-0.2,0.1-0.4,0.2-0.6c0.1-0.2,0.3-0.3,0.5-0.4c0.2-0.1,0.4-0.1,0.7-0.1
			s0.5,0.1,0.7,0.1c0.2,0.1,0.4,0.2,0.5,0.4S178.1,48.4,178.1,48.7L178.1,48.7z M177.7,48.6c0-0.3-0.1-0.5-0.2-0.6
			c-0.2-0.1-0.4-0.2-0.7-0.2s-0.5,0.1-0.7,0.2c-0.2,0.1-0.2,0.3-0.3,0.6v0.1c0,0.3,0.1,0.5,0.2,0.6c0.2,0.1,0.4,0.2,0.7,0.2
			s0.5-0.1,0.7-0.2c0.2-0.1,0.2-0.3,0.2-0.6L177.7,48.6L177.7,48.6z"/>
		<path class="st7" d="M179.2,49.6h1.6v0.3h-2.1v-2.4h0.5V49.6z"/>
		<path class="st7" d="M183.3,48.7h-1.5v0.8h1.7v0.3h-2.2v-2.4h2.1v0.3h-1.7v0.8h1.5L183.3,48.7C183.2,48.7,183.3,48.7,183.3,48.7z"
			/>
	</g>
</g>
<g>
	<path d="M448.7,7.1c0,0.3-0.2,0.6-0.4,0.8c-0.2,0.2-0.5,0.3-0.9,0.3c-0.2,0-0.5-0.1-0.7-0.2c-0.2-0.1-0.3-0.3-0.4-0.5
		s-0.2-0.5-0.2-0.8V6.5c0-0.3,0.1-0.6,0.2-0.8c0.1-0.2,0.3-0.4,0.4-0.5C447,5,447.2,5,447.5,5s0.6,0.1,0.8,0.3
		c0.2,0.2,0.3,0.4,0.4,0.8h-0.5c0-0.2-0.1-0.4-0.2-0.5s-0.3-0.1-0.5-0.1s-0.4,0.1-0.5,0.3c-0.1,0.2-0.2,0.4-0.2,0.8v0.3
		c0,0.3,0.1,0.6,0.2,0.8c0.1,0.2,0.3,0.3,0.5,0.3s0.4,0,0.5-0.1s0.2-0.3,0.2-0.5h0.5L448.7,7.1L448.7,7.1z"/>
	<path d="M450.5,8.1c0,0,0-0.1-0.1-0.2c-0.2,0.2-0.4,0.3-0.6,0.3s-0.4-0.1-0.6-0.2c-0.1-0.1-0.2-0.3-0.2-0.5s0.1-0.4,0.3-0.6
		c0.2-0.1,0.4-0.2,0.8-0.2h0.3V6.6c0-0.1,0-0.2-0.1-0.3s-0.2-0.1-0.3-0.1c-0.1,0-0.2,0-0.3,0.1s-0.1,0.1-0.1,0.2h-0.5
		c0-0.1,0-0.2,0.1-0.4s0.2-0.2,0.3-0.3c0.1-0.1,0.3-0.1,0.5-0.1c0.3,0,0.5,0.1,0.6,0.2c0.2,0.1,0.2,0.3,0.2,0.6v1
		c0,0.2,0,0.4,0.1,0.5l0,0h-0.4L450.5,8.1L450.5,8.1z M449.9,7.8c0.1,0,0.2,0,0.3-0.1s0.2-0.1,0.2-0.2V7h-0.3c-0.2,0-0.3,0-0.4,0.1
		s-0.1,0.2-0.1,0.3c0,0.1,0,0.2,0.1,0.2C449.7,7.7,449.8,7.8,449.9,7.8z"/>
	<path d="M452.1,5.3v0.6h0.4v0.4h-0.4v1.3c0,0.1,0,0.2,0.1,0.2c0,0,0.1,0.1,0.2,0.1s0.1,0,0.2,0v0.4c-0.1,0-0.2,0-0.3,0
		c-0.4,0-0.6-0.2-0.6-0.7V6.2h-0.4V5.8h0.4V5.3H452.1z"/>
	<path d="M454.3,8.1c0,0,0-0.1-0.1-0.2c-0.2,0.2-0.4,0.3-0.6,0.3S453.2,8.1,453,8c-0.1-0.1-0.2-0.3-0.2-0.5s0.1-0.4,0.3-0.6
		c0.2-0.1,0.4-0.2,0.8-0.2h0.3V6.6c0-0.1,0-0.2-0.1-0.3c-0.1-0.1-0.2-0.1-0.3-0.1c-0.1,0-0.2,0-0.3,0.1s-0.1,0.1-0.1,0.2h-0.5
		c0-0.1,0-0.2,0.1-0.4c0.1-0.1,0.2-0.2,0.3-0.3c0.1-0.1,0.3-0.1,0.5-0.1c0.3,0,0.5,0.1,0.6,0.2c0.2,0.1,0.2,0.3,0.2,0.6v1
		c0,0.2,0,0.4,0.1,0.5l0,0h-0.4V8.1z M453.7,7.8c0.1,0,0.2,0,0.3-0.1s0.2-0.1,0.2-0.2V7h-0.3c-0.2,0-0.3,0-0.4,0.1s-0.1,0.2-0.1,0.3
		c0,0.1,0,0.2,0.1,0.2C453.5,7.7,453.6,7.8,453.7,7.8z"/>
	<path d="M455.8,8.1h-0.5V4.9h0.5V8.1z"/>
	<path d="M457.2,7.4l0.5-1.6h0.6l-0.9,2.7c-0.1,0.4-0.4,0.6-0.7,0.6c-0.1,0-0.2,0-0.2,0V8.6h0.1c0.1,0,0.2,0,0.3-0.1
		c0.1,0,0.1-0.1,0.2-0.2l0.1-0.2l-0.8-2.3h0.6L457.2,7.4z"/>
	<path d="M459.8,7.5c0-0.1,0-0.2-0.1-0.2s-0.2-0.1-0.4-0.1c-0.2,0-0.3-0.1-0.4-0.1c-0.3-0.1-0.4-0.3-0.4-0.5s0.1-0.4,0.3-0.5
		c0.2-0.1,0.4-0.2,0.6-0.2c0.3,0,0.5,0.1,0.7,0.2s0.3,0.3,0.3,0.5h-0.5c0-0.1,0-0.2-0.1-0.2s-0.2-0.1-0.3-0.1c-0.1,0-0.2,0-0.3,0.1
		c-0.2-0.1-0.2,0-0.2,0.1s0,0.1,0.1,0.2c0.1,0,0.2,0.1,0.4,0.1c0.2,0,0.4,0.1,0.5,0.2s0.2,0.1,0.3,0.2s0.1,0.2,0.1,0.3
		c0,0.2-0.1,0.4-0.3,0.5c-0.2,0.1-0.4,0.2-0.7,0.2c-0.2,0-0.4,0-0.5-0.1s-0.3-0.2-0.3-0.3s-0.1-0.2-0.1-0.4h0.5
		c0,0.1,0.1,0.2,0.1,0.3c0.1,0.1,0.2,0.1,0.3,0.1c0.1,0,0.2,0,0.3-0.1C459.8,7.7,459.8,7.6,459.8,7.5z"/>
	<path d="M461.4,5.3v0.6h0.4v0.4h-0.4v1.3c0,0.1,0,0.2,0.1,0.2c0,0,0.1,0.1,0.2,0.1s0.1,0,0.2,0v0.4c-0.1,0-0.2,0-0.3,0
		c-0.4,0-0.6-0.2-0.6-0.7V6.2h-0.4V5.8h0.4V5.3H461.4z"/>
	<path d="M465.4,8.1h-2.1V7.8l1-1.1c0.1-0.2,0.3-0.3,0.3-0.4c0.1-0.1,0.1-0.2,0.1-0.3c0-0.1,0-0.3-0.1-0.4s-0.2-0.1-0.3-0.1
		c-0.2,0-0.3,0.1-0.4,0.2s-0.1,0.2-0.1,0.4h-0.5c0-0.2,0-0.4,0.1-0.5c0.1-0.2,0.2-0.3,0.4-0.4s0.3-0.1,0.6-0.1
		c0.3,0,0.5,0.1,0.7,0.2c0.2,0.2,0.3,0.4,0.3,0.6s0,0.3-0.1,0.5s-0.2,0.4-0.4,0.6l-0.8,0.8h1.4v0.3C465.5,8.1,465.4,8.1,465.4,8.1z"
		/>
	<path d="M467.3,6.8c-0.2,0.2-0.4,0.3-0.6,0.3c-0.3,0-0.5-0.1-0.7-0.3c-0.2-0.2-0.2-0.4-0.2-0.8c0-0.2,0-0.4,0.1-0.6
		s0.2-0.3,0.4-0.4c0.2-0.1,0.3-0.1,0.5-0.1c0.3,0,0.6,0.1,0.7,0.4c0.2,0.2,0.3,0.5,0.3,0.9v0.1c0,0.6-0.1,1-0.4,1.3S466.8,8,466.3,8
		h-0.1V7.7h0.1c0.3,0,0.5-0.1,0.7-0.2C467.1,7.4,467.2,7.1,467.3,6.8z M466.8,6.7c0.1,0,0.2,0,0.3-0.1c0.1-0.1,0.2-0.1,0.2-0.2V6.2
		c0-0.2,0-0.4-0.1-0.6c-0.1-0.1-0.2-0.2-0.4-0.2s-0.3,0.1-0.4,0.2s-0.1,0.3-0.1,0.5s0,0.4,0.1,0.5C466.5,6.6,466.6,6.7,466.8,6.7z"
		/>
	<path d="M469.9,5v0.4h-0.1c-0.3,0-0.5,0.1-0.7,0.2c-0.2,0.2-0.3,0.4-0.3,0.7c0.2-0.2,0.4-0.3,0.6-0.3c0.3,0,0.5,0.1,0.7,0.3
		s0.2,0.4,0.2,0.7c0,0.3-0.1,0.6-0.3,0.8c-0.2,0.2-0.4,0.3-0.7,0.3c-0.3,0-0.6-0.1-0.8-0.3c-0.2-0.2-0.3-0.5-0.3-0.9V6.8
		c0-0.5,0.1-1,0.4-1.3C469,5.2,469.3,5,469.9,5L469.9,5z M469.3,6.5c-0.1,0-0.2,0-0.3,0.1s-0.2,0.1-0.2,0.3V7c0,0.2,0,0.4,0.1,0.6
		c0.1,0.1,0.2,0.2,0.4,0.2s0.3-0.1,0.4-0.2s0.1-0.3,0.1-0.5s0-0.3-0.1-0.5C469.6,6.6,469.5,6.5,469.3,6.5z"/>
	<path d="M472.8,6.8c0,0.4-0.1,0.8-0.3,1c-0.2,0.2-0.4,0.3-0.8,0.3c-0.3,0-0.6-0.1-0.8-0.3c-0.2-0.2-0.3-0.5-0.3-1V6.3
		c0-0.4,0.1-0.8,0.3-1c0.2-0.2,0.4-0.3,0.8-0.3c0.3,0,0.6,0.1,0.8,0.3c0.2,0.2,0.3,0.5,0.3,1V6.8z M472.3,6.2c0-0.3,0-0.5-0.1-0.6
		s-0.2-0.2-0.4-0.2c-0.2,0-0.3,0.1-0.4,0.2s-0.1,0.3-0.1,0.6v0.7c0,0.3,0,0.5,0.1,0.6s0.2,0.2,0.4,0.2c0.2,0,0.3-0.1,0.4-0.2
		s0.1-0.3,0.1-0.6V6.2z"/>
	<path d="M475.7,7.1c0,0.3-0.2,0.6-0.4,0.8c-0.2,0.2-0.5,0.3-0.9,0.3c-0.2,0-0.5-0.1-0.7-0.2s-0.3-0.3-0.4-0.5s-0.2-0.5-0.2-0.8V6.5
		c0-0.3,0.1-0.6,0.2-0.8c0.1-0.2,0.3-0.4,0.4-0.5C474,5,474.3,5,474.5,5c0.3,0,0.6,0.1,0.8,0.3c0.2,0.2,0.3,0.4,0.4,0.8h-0.5
		c0-0.2-0.1-0.4-0.2-0.5s-0.3-0.1-0.5-0.1s-0.4,0.1-0.5,0.3c-0.1,0.2-0.2,0.4-0.2,0.8v0.3c0,0.3,0.1,0.6,0.2,0.8
		c0.1,0.2,0.3,0.3,0.5,0.3s0.4,0,0.5-0.1s0.2-0.3,0.2-0.5h0.5L475.7,7.1L475.7,7.1z"/>
	<g>
		<path d="M479.6,7.2c0-0.1,0-0.2-0.1-0.3c-0.1-0.1-0.3-0.1-0.5-0.2s-0.4-0.2-0.6-0.2c-0.3-0.2-0.4-0.4-0.4-0.7
			c0-0.2,0.1-0.4,0.3-0.6C478.5,5,478.7,5,479,5c0.2,0,0.4,0,0.6,0.1s0.3,0.2,0.4,0.3s0.1,0.3,0.1,0.5h-0.5c0-0.2,0-0.3-0.1-0.4
			s-0.2-0.1-0.4-0.1c-0.2,0-0.3,0-0.4,0.1s-0.1,0.2-0.1,0.3c0,0.1,0.1,0.2,0.2,0.3c0.1,0.1,0.3,0.1,0.5,0.2s0.4,0.1,0.6,0.2
			c0.1,0.1,0.2,0.2,0.3,0.3c0.1,0.1,0.1,0.2,0.1,0.4c0,0.3-0.1,0.5-0.3,0.6c-0.2,0.1-0.5,0.2-0.8,0.2c-0.2,0-0.4,0-0.6-0.1
			s-0.3-0.2-0.4-0.3c-0.1-0.1-0.2-0.3-0.2-0.5h0.5c0,0.2,0.1,0.3,0.2,0.4s0.3,0.1,0.5,0.1s0.3,0,0.4-0.1
			C479.6,7.5,479.6,7.4,479.6,7.2z"/>
		<path d="M481.5,8.1c-0.3,0-0.6-0.1-0.8-0.3c-0.2-0.2-0.3-0.5-0.3-0.8V6.9c0-0.2,0-0.4,0.1-0.6s0.2-0.3,0.4-0.4s0.3-0.1,0.5-0.1
			c0.3,0,0.5,0.1,0.7,0.3c0.2,0.2,0.2,0.5,0.2,0.8v0.2H481c0,0.2,0.1,0.3,0.2,0.4s0.2,0.2,0.4,0.2c0.2,0,0.4-0.1,0.6-0.3l0.3,0.3
			c-0.1,0.1-0.2,0.2-0.4,0.3C481.9,8,481.7,8.1,481.5,8.1z M481.5,6.1c-0.1,0-0.2,0-0.3,0.1S481,6.5,481,6.7h1l0,0
			c0-0.2-0.1-0.3-0.1-0.4C481.7,6.2,481.6,6.1,481.5,6.1z"/>
		<path d="M484,6.2c-0.1,0-0.1,0-0.2,0c-0.2,0-0.4,0.1-0.5,0.3V8h-0.5V5.8h0.5v0.3c0.1-0.2,0.3-0.3,0.5-0.3c0.1,0,0.1,0,0.2,0V6.2z"
			/>
		<path d="M484.3,5.2c0-0.1,0-0.1,0.1-0.2c0-0.1,0.1-0.1,0.2-0.1s0.2,0,0.2,0.1s0.1,0.1,0.1,0.2s0,0.1-0.1,0.2
			c0,0.1-0.1,0.1-0.2,0.1s-0.2,0-0.2-0.1C484.3,5.3,484.3,5.3,484.3,5.2z M484.9,8h-0.5V5.8h0.5V8z"/>
		<path d="M486.4,8.1c-0.3,0-0.6-0.1-0.8-0.3c-0.2-0.2-0.3-0.5-0.3-0.8V6.9c0-0.2,0-0.4,0.1-0.6s0.2-0.3,0.4-0.4s0.3-0.1,0.5-0.1
			c0.3,0,0.5,0.1,0.7,0.3c0.2,0.2,0.2,0.5,0.2,0.8v0.2h-1.5c0,0.2,0.1,0.3,0.2,0.4s0.2,0.2,0.4,0.2c0.2,0,0.4-0.1,0.6-0.3l0.3,0.3
			c-0.1,0.1-0.2,0.2-0.4,0.3C486.7,8,486.6,8.1,486.4,8.1z M486.3,6.1c-0.1,0-0.2,0-0.3,0.1s-0.1,0.2-0.2,0.4h1l0,0
			c0-0.2-0.1-0.3-0.1-0.4C486.6,6.2,486.5,6.1,486.3,6.1z"/>
		<path d="M488.9,7.4c0-0.1,0-0.2-0.1-0.2s-0.2-0.1-0.4-0.1c-0.2,0-0.3-0.1-0.4-0.1c-0.3-0.1-0.4-0.3-0.4-0.5s0.1-0.4,0.2-0.5
			s0.4-0.2,0.6-0.2c0.3,0,0.5,0.1,0.7,0.2s0.2,0.3,0.2,0.5h-0.5c0-0.1,0-0.2-0.1-0.2c-0.1-0.1-0.2-0.1-0.3-0.1c-0.1,0-0.2,0-0.3,0.1
			C488,6.4,488,6.4,488,6.5s0,0.1,0.1,0.2c0.1,0,0.2,0.1,0.4,0.1c0.2,0,0.4,0.1,0.5,0.2s0.2,0.1,0.2,0.2c0.1,0.1,0.1,0.2,0.1,0.3
			c0,0.2-0.1,0.4-0.3,0.5c-0.2,0.1-0.4,0.2-0.7,0.2c-0.2,0-0.3,0-0.5-0.1s-0.3-0.2-0.3-0.3s-0.1-0.2-0.1-0.4h0.5
			c0,0.1,0.1,0.2,0.1,0.3c0.1,0.1,0.2,0.1,0.3,0.1c0.1,0,0.2,0,0.3-0.1C488.9,7.6,488.9,7.5,488.9,7.4z"/>
		<path d="M491.5,6.9V8H491V5h1.2c0.3,0,0.6,0.1,0.8,0.3s0.3,0.4,0.3,0.7c0,0.3-0.1,0.5-0.3,0.7c-0.2,0.2-0.5,0.2-0.8,0.2
			C492.2,6.9,491.5,6.9,491.5,6.9z M491.5,6.5h0.6c0.2,0,0.3,0,0.4-0.1s0.1-0.2,0.1-0.4c0-0.2,0-0.3-0.1-0.4s-0.2-0.1-0.4-0.2h-0.6
			V6.5z"/>
		<path d="M493.5,6.9c0-0.2,0-0.4,0.1-0.6s0.2-0.3,0.4-0.4c0.2-0.1,0.3-0.1,0.5-0.1c0.3,0,0.5,0.1,0.7,0.3s0.3,0.5,0.3,0.8V7
			c0,0.2,0,0.4-0.1,0.6S495.2,7.9,495,8c-0.2,0.1-0.3,0.1-0.5,0.1c-0.3,0-0.6-0.1-0.8-0.3C493.6,7.5,493.5,7.2,493.5,6.9L493.5,6.9z
			 M494,6.9c0,0.2,0,0.4,0.1,0.5s0.2,0.2,0.4,0.2s0.3-0.1,0.4-0.2s0.1-0.3,0.1-0.6c0-0.2,0-0.4-0.1-0.5s-0.2-0.2-0.4-0.2
			c-0.2,0-0.3,0.1-0.4,0.2C494.1,6.5,494,6.7,494,6.9z"/>
		<path d="M497.8,6.7h-1.2v0.9h1.4V8h-2V5h2v0.4h-1.4v0.8h1.2V6.7z"/>
	</g>
</g>
<polygon points="460.2,15 456.2,13 456.2,17 "/>
<polygon points="456.2,20.5 460.2,22.5 460.2,18.5 "/>
<polygon points="460.2,34 456.2,32 456.2,36 "/>
<polygon points="456.2,39.6 460.2,41.6 460.2,37.6 "/>
<rect x="0.3" y="0.2" class="st8" width="600" height="55"/>
</svg>
