<?xml version="1.0" encoding="utf-8"?>
<!-- Copyright 2022 Virtual Console LLC. All rights reserved. Generator: Adobe Illustrator 23.1.0, SVG Export Plug-In . SVG Version: 6.00 Build 0)  -->
<svg version="1.1" id="Cisco_ASR_1001-X_Routers" xmlns="http://www.w3.org/2000/svg" xmlns:xlink="http://www.w3.org/1999/xlink" x="0px" y="0px"
	 viewBox="0 0 600 55" style="enable-background:new 0 0 600 55;" xml:space="preserve">
<style type="text/css">
	.st0{fill:#BEBEBE;}
	.st1{fill:#464B4C;}
	.st2{fill:#B2BFC3;}
	.st3{fill:#DDDDDB;}
	.st4{fill:#C3C0C4;}
	.st5{fill:#545354;}
	.st6{fill:#E7E7E3;}
	.st7{fill:#97948C;}
	.st8{fill:#BAAE9A;}
	.st9{fill:#E6E6E6;}
	.st10{fill:#F6513E;}
	.st11{fill:#EAC857;}
	.st12{fill:#A1D7DA;}
</style>
<rect class="st0" width="600" height="55"/>
<rect x="182.6" y="7.1" width="5" height="5"/>
<rect x="189.9" y="7.1" width="5" height="5"/>
<rect x="182.6" y="14.2" width="5" height="5"/>
<rect x="189.9" y="14.2" width="5" height="5"/>
<rect x="197.4" y="7.1" width="5" height="5"/>
<rect x="204.7" y="7.1" width="5" height="5"/>
<rect x="212" y="7.1" width="5" height="5"/>
<rect x="197.4" y="14.2" width="5" height="5"/>
<rect x="204.7" y="14.2" width="5" height="5"/>
<rect x="212" y="14.2" width="5" height="5"/>
<rect x="219.5" y="7.1" width="5" height="5"/>
<rect x="226.8" y="7.1" width="5" height="5"/>
<rect x="219.5" y="14.2" width="5" height="5"/>
<rect x="226.8" y="14.2" width="5" height="5"/>
<rect x="412.7" y="35" width="5" height="5"/>
<rect x="420" y="35" width="5" height="5"/>
<rect x="412.7" y="42" width="5" height="5"/>
<rect x="420" y="42" width="5" height="5"/>
<rect x="427.6" y="35" width="5" height="5"/>
<rect x="434.8" y="35" width="5" height="5"/>
<rect x="442.1" y="35" width="5" height="5"/>
<rect x="427.6" y="42" width="5" height="5"/>
<rect x="434.8" y="42" width="5" height="5"/>
<rect x="442.1" y="42" width="5" height="5"/>
<rect x="449.7" y="35" width="5" height="5"/>
<rect x="456.9" y="35" width="5" height="5"/>
<rect x="464.2" y="35" width="5" height="5"/>
<rect x="449.7" y="42" width="5" height="5"/>
<rect x="456.9" y="42" width="5" height="5"/>
<rect x="464.2" y="42" width="5" height="5"/>
<rect x="471.8" y="35" width="5" height="5"/>
<rect x="479" y="35" width="5" height="5"/>
<rect x="486.3" y="35" width="5" height="5"/>
<rect x="471.8" y="42" width="5" height="5"/>
<rect x="479" y="42" width="5" height="5"/>
<rect x="486.3" y="42" width="5" height="5"/>
<rect x="494.1" y="35" width="5" height="5"/>
<rect x="501.4" y="35" width="5" height="5"/>
<rect x="508.7" y="35" width="5" height="5"/>
<rect x="494.1" y="42" width="5" height="5"/>
<rect x="501.4" y="42" width="5" height="5"/>
<rect x="508.7" y="42" width="5" height="5"/>
<rect x="516.2" y="35" width="5" height="5"/>
<rect x="523.5" y="35" width="5" height="5"/>
<rect x="530.8" y="35" width="5" height="5"/>
<rect x="516.2" y="42" width="5" height="5"/>
<rect x="523.5" y="42" width="5" height="5"/>
<rect x="538.3" y="35" width="5" height="5"/>
<rect x="545.6" y="35" width="5" height="5"/>
<rect x="552.9" y="35" width="5" height="5"/>
<rect x="545.6" y="42" width="5" height="5"/>
<rect x="552.9" y="42" width="5" height="5"/>
<rect x="530.8" y="42" width="5" height="5"/>
<rect x="538.1" y="42" width="5" height="5"/>
<rect x="560.4" y="35" width="5" height="5"/>
<rect x="567.7" y="35" width="5" height="5"/>
<rect x="575" y="35" width="5" height="5"/>
<rect x="560.4" y="42" width="5" height="5"/>
<rect x="567.7" y="42" width="5" height="5"/>
<rect x="575" y="42" width="5" height="5"/>
<rect x="582.5" y="35" width="5" height="5"/>
<rect x="582.5" y="42" width="5" height="5"/>
<g>
	<path class="st1" d="M396.3,40.9h-0.2c-0.2,0-0.2-0.2-0.2-0.2v-3.3c0-0.2,0.2-0.2,0.2-0.2h0.2c0.2,0,0.2,0.2,0.2,0.2v3.3
		C396.3,40.7,396.3,40.9,396.3,40.9z"/>
	<path class="st1" d="M403.2,40.9H403c-0.2,0-0.2-0.2-0.2-0.2v-3.3c0-0.2,0.2-0.2,0.2-0.2h0.2c0.2,0,0.2,0.2,0.2,0.2v3.3
		C403.5,40.7,403.4,40.9,403.2,40.9z"/>
	<path class="st1" d="M394.6,40.6h-0.2c-0.2,0-0.2-0.2-0.2-0.2v-1.9c0-0.2,0.2-0.2,0.2-0.2h0.2c0.2,0,0.2,0.2,0.2,0.2v1.9
		C394.7,40.4,394.6,40.6,394.6,40.6z"/>
	<path class="st1" d="M392.6,40.6h-0.2c-0.2,0-0.2-0.2-0.2-0.2v-1.3c0-0.2,0.2-0.2,0.2-0.2h0.2c0.2,0,0.2,0.2,0.2,0.2v1.2
		C392.9,40.4,392.8,40.6,392.6,40.6z"/>
	<path class="st1" d="M401.6,40.6h-0.2c-0.2,0-0.2-0.2-0.2-0.2v-1.9c0-0.2,0.2-0.2,0.2-0.2h0.2c0.2,0,0.2,0.2,0.2,0.2v1.9
		C401.7,40.4,401.7,40.6,401.6,40.6z"/>
	<path class="st1" d="M398,40.6h-0.2c-0.2,0-0.2-0.2-0.2-0.2v-1.9c0-0.2,0.2-0.2,0.2-0.2h0.2c0.2,0,0.2,0.2,0.2,0.2v1.9
		C398.2,40.4,398.2,40.6,398,40.6z"/>
	<path class="st1" d="M399.9,40.6h-0.4c-0.2,0-0.2-0.2-0.2-0.2v-1.3c0-0.2,0.2-0.2,0.2-0.2h0.2c0.2,0,0.2,0.2,0.2,0.2v1.2
		C399.9,40.4,399.9,40.6,399.9,40.6z"/>
	<path class="st1" d="M405.1,40.6h-0.2c-0.2,0-0.2-0.2-0.2-0.2v-1.9c0-0.2,0.2-0.2,0.2-0.2h0.2c0.2,0,0.2,0.2,0.2,0.2v1.9
		C405.3,40.4,405.3,40.6,405.1,40.6z"/>
	<path class="st1" d="M406.8,40.6h-0.2c-0.2,0-0.2-0.2-0.2-0.2v-1.3c0-0.2,0.2-0.2,0.2-0.2h0.2c0.2,0,0.2,0.2,0.2,0.2v1.2
		C407.1,40.4,406.8,40.6,406.8,40.6z"/>
	<g>
		<path class="st1" d="M394.6,44.4c0.2,0,0.3-0.1,0.4-0.2c0.2-0.2,0.2-0.2,0.2-0.4h0.7c0,0.2-0.1,0.4-0.2,0.5
			c-0.2,0.2-0.2,0.3-0.4,0.4c-0.2,0.2-0.4,0.2-0.7,0.2c-0.4,0-0.7-0.2-1-0.4c-0.2-0.2-0.4-0.7-0.4-1.1v-0.1c0-0.4,0.2-0.8,0.4-1.1
			c0.2-0.3,0.6-0.4,1-0.4c0.4,0,0.7,0.2,0.9,0.3s0.4,0.5,0.4,0.8h-0.7c0-0.2-0.1-0.3-0.2-0.4c-0.2-0.2-0.2-0.2-0.4-0.2
			c-0.2,0-0.4,0.1-0.5,0.2c-0.2,0.2-0.2,0.4-0.2,0.7v0.2c0,0.3,0.1,0.6,0.2,0.7C394.3,44.4,394.4,44.4,394.6,44.4z"/>
		<path class="st1" d="M396.4,41.2c0-0.2,0.1-0.2,0.2-0.2c0.1-0.1,0.2-0.2,0.3-0.2c0.2,0,0.2,0.1,0.3,0.2c0.1,0.1,0.2,0.2,0.2,0.2
			c0,0.2-0.1,0.2-0.2,0.2c-0.1,0.1-0.2,0.2-0.3,0.2c-0.2,0-0.2-0.1-0.3-0.2C396.4,41.4,396.4,41.4,396.4,41.2z M397.1,44.9h-0.7V42
			h0.7V44.9z"/>
		<path class="st1" d="M399.4,44.2c0-0.2-0.1-0.2-0.2-0.2c-0.1-0.1-0.2-0.2-0.5-0.2c-0.2-0.1-0.4-0.2-0.6-0.2
			c-0.3-0.2-0.5-0.4-0.5-0.7s0.2-0.5,0.3-0.7c0.2-0.2,0.5-0.2,0.8-0.2c0.4,0,0.7,0.1,0.9,0.2c0.2,0.2,0.3,0.4,0.3,0.7h-0.7
			c0-0.2-0.1-0.2-0.2-0.3c-0.1-0.1-0.2-0.2-0.4-0.2c-0.2,0-0.2,0.1-0.4,0.2s-0.2,0.2-0.2,0.2c0,0.2,0.1,0.2,0.2,0.2
			c0.1,0.1,0.2,0.2,0.6,0.2c0.2,0.1,0.5,0.2,0.7,0.2s0.2,0.2,0.3,0.3c0.1,0.2,0.2,0.2,0.2,0.4c0,0.2-0.2,0.5-0.3,0.7
			c-0.2,0.2-0.5,0.2-0.9,0.2c-0.2,0-0.5-0.1-0.7-0.2c-0.2-0.1-0.4-0.2-0.4-0.4c-0.2-0.2-0.2-0.3-0.2-0.5h0.7c0,0.2,0.1,0.3,0.2,0.4
			c0.2,0.1,0.2,0.2,0.4,0.2s0.3-0.1,0.4-0.2C399.4,44.4,399.4,44.2,399.4,44.2z"/>
		<path class="st1" d="M402,44.4c0.2,0,0.3-0.1,0.4-0.2c0.2-0.1,0.2-0.2,0.2-0.4h0.7c0,0.2-0.1,0.4-0.2,0.5
			c-0.2,0.2-0.2,0.3-0.4,0.4c-0.2,0.1-0.4,0.2-0.7,0.2c-0.4,0-0.7-0.2-1-0.4c-0.2-0.2-0.4-0.7-0.4-1.1v-0.1c0-0.4,0.2-0.8,0.4-1.1
			c0.2-0.3,0.6-0.4,1-0.4c0.4,0,0.7,0.2,0.9,0.3s0.4,0.5,0.4,0.8h-0.7c0-0.2-0.1-0.3-0.2-0.4c-0.2,0-0.2-0.1-0.4-0.1
			c-0.2,0-0.4,0.1-0.5,0.2c-0.2,0.2-0.2,0.4-0.2,0.7v0.2c0,0.3,0.1,0.6,0.2,0.7C401.6,44.4,401.7,44.4,402,44.4z"/>
		<path class="st1" d="M403.5,43.5c0-0.3,0.1-0.6,0.2-0.8c0.1-0.3,0.3-0.4,0.5-0.6c0.2-0.2,0.4-0.2,0.7-0.2c0.4,0,0.7,0.2,1,0.4
			s0.4,0.7,0.4,1.1v0.2c0,0.3-0.1,0.6-0.2,0.8c-0.1,0.2-0.2,0.4-0.5,0.6c-0.2,0.2-0.4,0.2-0.7,0.2c-0.4,0-0.7-0.2-1-0.4
			C403.7,44.2,403.5,43.9,403.5,43.5L403.5,43.5z M404.3,43.5c0,0.3,0.1,0.6,0.2,0.7c0.2,0.2,0.3,0.2,0.6,0.2s0.4-0.1,0.6-0.2
			c0.2-0.2,0.2-0.4,0.2-0.8c0-0.3-0.1-0.6-0.2-0.7c-0.2-0.2-0.4-0.2-0.6-0.2c-0.2,0-0.4,0.1-0.5,0.2
			C404.3,42.9,404.3,43.2,404.3,43.5z"/>
	</g>
</g>
<rect x="205.4" y="21.3" width="5" height="5"/>
<rect x="197.4" y="21.3" width="5" height="5"/>
<g>
	<rect x="17.2" y="6.4" class="st2" width="146.6" height="42.2"/>
	<path d="M164,48.9H16.9V6.1H164V48.9z M17.4,48.4h146.1V6.6H17.4V48.4z"/>
</g>
<rect x="189.9" y="21.3" width="5" height="5"/>
<rect x="182.6" y="21.3" width="5" height="5"/>
<rect x="197.4" y="28.4" width="5" height="5"/>
<rect x="189.9" y="28.4" width="5" height="5"/>
<rect x="182.6" y="28.4" width="5" height="5"/>
<rect x="211.9" y="21.3" width="5" height="5"/>
<rect x="320.8" y="17" width="5" height="5"/>
<rect x="320.8" y="24.1" width="5" height="5"/>
<rect x="320.8" y="2.8" width="5" height="5"/>
<rect x="320.8" y="9.9" width="5" height="5"/>
<rect x="320.8" y="38.3" width="5" height="5"/>
<rect x="320.8" y="31.4" width="5" height="5"/>
<rect x="320.8" y="44.8" width="5" height="5"/>
<rect x="175.1" y="7.1" width="5" height="5"/>
<rect x="175.1" y="14.2" width="5" height="5"/>
<rect x="175.1" y="21.3" width="5" height="5"/>
<rect x="175.1" y="28.4" width="5" height="5"/>
<rect x="175.1" y="34.9" width="5" height="5"/>
<rect x="175.1" y="41.9" width="5" height="5"/>
<rect x="6.4" y="7.1" width="5" height="5"/>
<rect x="6.4" y="14.2" width="5" height="5"/>
<rect x="6.4" y="21.3" width="5" height="5"/>
<rect x="6.4" y="28.4" width="5" height="5"/>
<rect x="6.4" y="34.9" width="5" height="5"/>
<rect x="6.4" y="41.9" width="5" height="5"/>
<rect x="410.6" y="3.1" width="176.9" height="27.4"/>
<g>
	<rect x="397.7" y="5.6" class="st3" width="194.9" height="22.2"/>
	<path d="M592.6,5.6v22.2H397.7V5.6H592.6 M593.5,5h-0.8H397.7h-0.8v0.7v22.2v0.7h0.8h194.9h0.8v-0.7V5.6V5L593.5,5z"/>
</g>
<g>
	<g>
		<ellipse class="st4" cx="586.3" cy="15.4" rx="4.1" ry="4.1"/>
		<path class="st5" d="M586.3,11.2c2.3,0,4.4,1.9,4.4,4.4s-1.9,4.4-4.4,4.4c-2.5,0-4.3-1.9-4.3-4.4S584,11.2,586.3,11.2z
			 M586.3,19.4c2.2,0,4-1.8,4-4s-1.8-4-4-4s-4,1.8-4,4C582.3,17.6,584.1,19.4,586.3,19.4z"/>
	</g>
	<path class="st1" d="M586.4,13.4L586.4,13.4c0.2,0,0.2,0.1,0.2,0.2v3.7c0,0.1-0.2,0.2-0.2,0.2l0,0c-0.2,0-0.2-0.1-0.2-0.2v-3.7
		C586.1,13.4,586.2,13.4,586.4,13.4z"/>
	<path class="st1" d="M584.3,15.4L584.3,15.4c0-0.1,0.2-0.2,0.2-0.2h3.8c0.2,0,0.2,0.1,0.2,0.2l0,0c0,0.1-0.2,0.2-0.2,0.2h-3.7
		C584.4,15.7,584.3,15.6,584.3,15.4z"/>
</g>
<g>
	<g>
		<ellipse class="st4" cx="403.9" cy="15.4" rx="4.1" ry="4.1"/>
		<path class="st5" d="M403.9,11.2c2.3,0,4.4,1.9,4.4,4.4s-1.9,4.4-4.4,4.4s-4.4-1.9-4.4-4.4S401.5,11.2,403.9,11.2z M403.9,19.4
			c2.2,0,4-1.8,4-4s-1.8-4-4-4s-4,1.8-4,4C399.9,17.6,401.7,19.4,403.9,19.4z"/>
	</g>
	<path class="st1" d="M403.9,13.4L403.9,13.4c0.2,0,0.2,0.1,0.2,0.2v3.7c0,0.1-0.2,0.2-0.2,0.2l0,0c-0.2,0-0.2-0.1-0.2-0.2v-3.7
		C403.6,13.4,403.8,13.4,403.9,13.4z"/>
	<path class="st1" d="M401.8,15.4L401.8,15.4c0-0.1,0.2-0.2,0.2-0.2h3.8c0.2,0,0.2,0.1,0.2,0.2l0,0c0,0.1-0.2,0.2-0.2,0.2h-3.7
		C401.9,15.7,401.8,15.6,401.8,15.4z"/>
</g>
<circle cx="593.5" cy="40.4" r="2.3"/>
<g>
	<g>
		<rect x="329.8" y="12.7" class="st6" width="22.3" height="33.5"/>
		<path d="M352.4,46.7h-23V11.9h23V46.7z M330.1,46h21.5V12.7h-21.5V46z"/>
	</g>
	<polygon points="336,42.1 336,44.2 337.3,44.2 337.3,46.3 343.5,46.3 343.5,44.2 344.8,44.2 344.8,42.1 348.6,42.1 348.6,32.3 
		332.7,32.3 332.7,42.1 	"/>
	<polygon points="345.3,16.8 345.3,14.8 344,14.8 344,12.7 337.8,12.7 337.8,14.8 336.5,14.8 336.5,16.8 332.7,16.8 332.7,26.1 
		348.6,26.1 348.6,16.8 	"/>
</g>
<g>
	<rect x="298" y="12.1" width="18" height="33.2"/>
	<rect x="303.7" y="33.2" class="st7" width="6.6" height="0.9"/>
	<rect x="303.7" y="22.8" class="st7" width="6.6" height="0.9"/>
	<path class="st8" d="M311.3,24.7v1.4h-8.5v-1.4H298v7.6h4.7v-0.9h8.5v0.9h4.7v-7.6H311.3z M302.4,30.4l1.7-3.5l1.7,3.5H302.4z
		 M309.9,30.4l-1.7-3.5h3.4L309.9,30.4z"/>
</g>
<g>
	<rect x="279.1" y="12.1" width="18" height="33.2"/>
	<rect x="284.8" y="33.2" class="st7" width="6.6" height="0.9"/>
	<rect x="284.8" y="22.8" class="st7" width="6.6" height="0.9"/>
	<path class="st8" d="M292.4,24.7v1.4h-8.5v-1.4h-4.7v7.6h4.7v-0.9h8.5v0.9h4.7v-7.6H292.4z M283.5,30.4l1.7-3.5l1.7,3.5H283.5z
		 M291,30.4l-1.7-3.5h3.4L291,30.4z"/>
</g>
<g>
	<rect x="260.2" y="12.1" width="18" height="33.2"/>
	<rect x="265.9" y="33.2" class="st7" width="6.6" height="0.9"/>
	<rect x="265.9" y="22.8" class="st7" width="6.6" height="0.9"/>
	<path class="st8" d="M273.5,24.7v1.4H265v-1.4h-4.7v7.6h4.7v-0.9h8.5v0.9h4.7v-7.6H273.5z M264.7,30.4l1.7-3.5l1.7,3.5H264.7z
		 M272.1,30.4l-1.7-3.5h3.4L272.1,30.4z"/>
</g>
<g>
	<rect x="241.3" y="12.1" width="18" height="33.2"/>
	<rect x="247" y="33.2" class="st7" width="6.6" height="0.9"/>
	<rect x="247" y="22.8" class="st7" width="6.6" height="0.9"/>
	<path class="st8" d="M254.6,24.7v1.4h-8.5v-1.4h-4.7v7.6h4.7v-0.9h8.5v0.9h4.7v-7.6H254.6z M245.8,30.4l1.7-3.5l1.7,3.5H245.8z
		 M253.2,30.4l-1.7-3.5h3.4L253.2,30.4z"/>
</g>
<g>
	<g>
		<rect x="359.3" y="2.2" class="st6" width="30.3" height="43.4"/>
		<path d="M389.9,45.9h-31V1.4h31V45.9z M359.6,45.2h29.5v-43h-29.5V45.2z"/>
	</g>
	<polygon points="379.3,7.8 379.3,4.8 377.3,4.8 377.3,3 371.5,3 371.5,4.8 369.5,4.8 369.5,7.8 365.6,7.8 365.6,18.2 383.1,18.2 
		383.1,7.8 	"/>
	<rect x="365.6" y="24.8" width="17.5" height="19.6"/>
	<rect x="366.5" y="33" class="st9" width="4.9" height="2.6"/>
	<rect x="377.3" y="33" class="st9" width="4.9" height="2.6"/>
	<rect x="366.5" y="43.5" class="st9" width="15.7" height="0.9"/>
</g>
<rect x="329.4" y="7.1" width="23" height="4.8"/>
<rect x="358.9" y="44.6" width="31" height="4.8"/>
<polygon class="st10" points="261.4,12 241.3,12 241.3,7.3 257.2,7.3 "/>
<polygon class="st11" points="316,12 261.4,12 257.2,7.3 316,7.3 "/>
<polygon class="st10" points="261.4,45.5 241.3,45.5 241.3,50.2 257.2,50.2 "/>
<polygon class="st11" points="316,45.5 261.4,45.5 257.2,50.2 316,50.2 "/>
<circle class="st1" cx="221.4" cy="28.1" r="1.9"/>
<circle class="st1" cx="221.4" cy="35.1" r="1.9"/>
<circle class="st1" cx="209.7" cy="35.1" r="1.9"/>
<circle class="st1" cx="221.4" cy="42.1" r="1.9"/>
<circle class="st1" cx="201.8" cy="42.1" r="1.9"/>
<polygon points="192.9,44.3 186.1,44.3 185.1,40.2 193.9,40.2 "/>
<g>
	<g>
		<ellipse class="st4" cx="153.9" cy="28.8" rx="4.1" ry="4.1"/>
		<path class="st5" d="M153.9,33c-2.3,0-4.3-1.9-4.3-4.4s1.9-4.4,4.3-4.4s4.3,1.9,4.3,4.4C158.2,31.1,156.2,33,153.9,33z
			 M153.9,24.8c-2.2,0-4,1.8-4,4s1.8,4,4,4c2.2,0,4-1.8,4-4C157.9,26.6,156.1,24.8,153.9,24.8z"/>
	</g>
	<path class="st1" d="M153.8,30.8L153.8,30.8c-0.2,0-0.2-0.1-0.2-0.2v-3.7c0-0.1,0.2-0.2,0.2-0.2l0,0c0.2,0,0.2,0.1,0.2,0.2v3.7
		C154.1,30.7,154,30.8,153.8,30.8z"/>
	<path class="st1" d="M155.9,28.8L155.9,28.8c0,0.1-0.2,0.2-0.2,0.2h-3.8c-0.2,0-0.2-0.1-0.2-0.2l0,0c0-0.1,0.2-0.2,0.2-0.2h3.7
		C155.8,28.5,155.9,28.6,155.9,28.8z"/>
</g>
<g>
	<g>
		<ellipse class="st4" cx="26.3" cy="28.8" rx="4.1" ry="4.1"/>
		<path class="st5" d="M26.3,33c-2.3,0-4.3-1.9-4.3-4.4s1.9-4.4,4.3-4.4s4.3,1.9,4.3,4.4C30.6,31.1,28.6,33,26.3,33z M26.3,24.8
			c-2.2,0-4,1.8-4,4s1.8,4,4,4s4-1.8,4-4C30.3,26.6,28.5,24.8,26.3,24.8z"/>
	</g>
	<path class="st1" d="M26.2,30.8L26.2,30.8c-0.2,0-0.2-0.1-0.2-0.2v-3.7c0-0.1,0.2-0.2,0.2-0.2l0,0c0.2,0,0.2,0.1,0.2,0.2v3.7
		C26.5,30.7,26.4,30.8,26.2,30.8z"/>
	<path class="st1" d="M28.3,28.8L28.3,28.8c0,0.1-0.2,0.2-0.2,0.2h-3.8c-0.2,0-0.2-0.1-0.2-0.2l0,0c0-0.1,0.2-0.2,0.2-0.2H28
		C28.2,28.5,28.3,28.6,28.3,28.8z"/>
</g>
<path d="M34.3,44h-3.6c-1.1,0-2.1-0.9-2.1-2.1v0c0-1.1,0.9-2.1,2.1-2.1h3.6c1.1,0,2.1,0.9,2.1,2.1v0C36.3,43.1,35.4,44,34.3,44z"/>
<path d="M45.3,44h-3.6c-1.1,0-2.1-0.9-2.1-2.1v0c0-1.1,0.9-2.1,2.1-2.1h3.6c1.1,0,2.1,0.9,2.1,2.1v0C47.3,43.1,46.4,44,45.3,44z"/>
<path d="M56.3,44h-3.6c-1.1,0-2.1-0.9-2.1-2.1v0c0-1.1,0.9-2.1,2.1-2.1h3.6c1.1,0,2.1,0.9,2.1,2.1v0C58.3,43.1,57.4,44,56.3,44z"/>
<path d="M67.3,44h-3.6c-1.1,0-2.1-0.9-2.1-2.1v0c0-1.1,0.9-2.1,2.1-2.1h3.6c1.1,0,2.1,0.9,2.1,2.1v0C69.3,43.1,68.4,44,67.3,44z"/>
<path d="M78.3,44h-3.6c-1.1,0-2.1-0.9-2.1-2.1v0c0-1.1,0.9-2.1,2.1-2.1h3.6c1.1,0,2.1,0.9,2.1,2.1v0C80.3,43.1,79.4,44,78.3,44z"/>
<path d="M89.3,44h-3.6c-1.1,0-2.1-0.9-2.1-2.1v0c0-1.1,0.9-2.1,2.1-2.1h3.6c1.1,0,2.1,0.9,2.1,2.1v0C91.3,43.1,90.4,44,89.3,44z"/>
<path d="M100.3,44h-3.6c-1.1,0-2.1-0.9-2.1-2.1v0c0-1.1,0.9-2.1,2.1-2.1h3.6c1.1,0,2.1,0.9,2.1,2.1v0C102.3,43.1,101.4,44,100.3,44z
	"/>
<path d="M111.3,44h-3.6c-1.1,0-2.1-0.9-2.1-2.1v0c0-1.1,0.9-2.1,2.1-2.1h3.6c1.1,0,2.1,0.9,2.1,2.1v0C113.3,43.1,112.4,44,111.3,44z
	"/>
<path d="M122.3,44h-3.6c-1.1,0-2.1-0.9-2.1-2.1v0c0-1.1,0.9-2.1,2.1-2.1h3.6c1.1,0,2.1,0.9,2.1,2.1v0C124.3,43.1,123.4,44,122.3,44z
	"/>
<path d="M133.3,44h-3.6c-1.1,0-2.1-0.9-2.1-2.1v0c0-1.1,0.9-2.1,2.1-2.1h3.6c1.1,0,2.1,0.9,2.1,2.1v0C135.3,43.1,134.4,44,133.3,44z
	"/>
<path d="M144.3,44h-3.6c-1.1,0-2.1-0.9-2.1-2.1v0c0-1.1,0.9-2.1,2.1-2.1h3.6c1.1,0,2.1,0.9,2.1,2.1v0C146.3,43.1,145.4,44,144.3,44z
	"/>
<path d="M36.3,10.3c0,1.9,1.6,3.5,3.6,3.5s3.5-1.6,3.6-3.5H36.3z"/>
<path d="M56.3,10.3c0,1.9,1.6,3.5,3.6,3.5s3.5-1.6,3.6-3.5H56.3z"/>
<path d="M76.3,10.3c0,1.9,1.6,3.5,3.6,3.5s3.5-1.6,3.6-3.5H76.3z"/>
<path d="M96.3,10.3c0,1.9,1.6,3.5,3.6,3.5s3.5-1.6,3.6-3.5H96.3z"/>
<path d="M116.3,10.3c0,1.9,1.6,3.5,3.6,3.5s3.5-1.6,3.6-3.5H116.3z"/>
<path d="M136.3,10.3c0,1.9,1.6,3.5,3.6,3.5s3.5-1.6,3.6-3.5H136.3z"/>
<path d="M36.3,16.6c0,1.9,1.6,3.5,3.6,3.5s3.5-1.6,3.6-3.5H36.3z"/>
<path d="M56.3,16.6c0,1.9,1.6,3.5,3.6,3.5s3.5-1.6,3.6-3.5H56.3z"/>
<path d="M76.3,16.6c0,1.9,1.6,3.5,3.6,3.5s3.5-1.6,3.6-3.5H76.3z"/>
<path d="M96.3,16.6c0,1.9,1.6,3.5,3.6,3.5s3.5-1.6,3.6-3.5H96.3z"/>
<path d="M116.3,16.6c0,1.9,1.6,3.5,3.6,3.5s3.5-1.6,3.6-3.5H116.3z"/>
<path d="M136.3,16.6c0,1.9,1.6,3.5,3.6,3.5s3.5-1.6,3.6-3.5H136.3z"/>
<rect x="43.5" y="50.2" class="st11" width="60" height="4.8"/>
<rect x="329.4" y="46.3" class="st12" width="22.7" height="3.5"/>
</svg>
