<?xml version="1.0" encoding="utf-8"?>
<!-- Copyright 2022 Virtual Console LLC. All rights reserved. Generator: Adobe Illustrator 26.0.2, SVG Export Plug-In . SVG Version: 6.00 Build 0)  -->
<svg version="1.1" id="Juniper_EX2300-48P" xmlns="http://www.w3.org/2000/svg" xmlns:xlink="http://www.w3.org/1999/xlink" x="0px"
	 y="0px" viewBox="0 0 600 55" style="enable-background:new 0 0 600 55;" xml:space="preserve">
<style type="text/css">
	.st0{fill:#B5B5B5;}
	.st1{fill:#EFFCF3;}
	.st2{fill:#0C0C0C;}
	.st3{fill:#9B9B9B;}
	.st4{fill:#FCFBFA;}
	.st5{fill:#232323;}
	.st6{fill:#3D3D3D;}
	.st7{fill:#CECECE;}
	.st8{fill:#705D57;}
	.st9{fill:#545454;}
	.st10{fill:#CAC5C0;}
	.st11{fill:#A09C83;}
	.st12{fill:#EDEDED;}
</style>
<g>
	<rect class="st0" width="600" height="55"/>
	<g>
		<path class="st1" d="M9,3.2h0.8V7c0,1.5-0.8,2-1.9,2C7.6,9,7.2,8.9,7,8.8l0.1-0.6c0.2,0.1,0.4,0.1,0.7,0.1C8.6,8.4,9,8.1,9,7V3.2z
			"/>
		<path class="st1" d="M11.4,3.2v3.2c0,1.2,0.6,1.7,1.5,1.7c1,0,1.6-0.5,1.6-1.7V3.2h0.9v3.2c0,1.7-1.1,2.3-2.5,2.3
			c-1.4,0-2.4-0.6-2.4-2.3V3.2L11.4,3.2z"/>
		<path class="st1" d="M20.1,8.8V5.5c0-1.2-0.6-1.7-1.5-1.7c-1,0-1.6,0.5-1.6,1.7v3.2h-0.9V5.6c0-1.7,1.1-2.3,2.5-2.3
			c1.4,0,2.4,0.6,2.4,2.3v3.2H20.1z"/>
		<g>
			<path class="st1" d="M22.4,3.3v5.5h-0.7V3.3H22.4z"/>
		</g>
		<g>
			<path class="st1" d="M23.2,3.4c0.4-0.1,0.9-0.1,1.6-0.1c0.8,0,1.4,0.2,1.8,0.4c0.3,0.3,0.5,0.7,0.5,1.1c0,0.5-0.2,0.9-0.5,1.2
				c-0.4,0.4-1.1,0.6-1.9,0.6c-0.2,0-0.5,0-0.7,0v2.2h-0.8V3.4z M24,6c0.2,0,0.4,0.1,0.7,0.1c1,0,1.6-0.4,1.6-1.2
				c0-0.7-0.6-1.1-1.5-1.1c-0.4,0-0.6,0-0.8,0.1L24,6C24,6,24,6,24,6z"/>
		</g>
		<g>
			<path class="st1" d="M18.2,11.6V9.5h0.3l0.8,1.1c0.2,0.2,0.3,0.5,0.4,0.7h0c0-0.3,0-0.5,0-0.9V9.5H20v2.1h-0.3l-0.8-1.1
				c-0.2-0.2-0.3-0.5-0.4-0.7h0c0,0.3,0,0.5,0,0.9v0.9L18.2,11.6L18.2,11.6z"/>
			<path class="st1" d="M21.7,10.6h-0.9v0.8h1v0.2h-1.3V9.5h1.3v0.2h-1v0.7h0.9V10.6z"/>
			<path class="st1" d="M22.7,9.7H22V9.5h1.8v0.2H23v1.9h-0.3L22.7,9.7z"/>
			<path class="st1" d="M24.6,11.6L24,9.5h0.3l0.3,1.1c0.1,0.3,0.1,0.5,0.2,0.7h0c0-0.2,0.1-0.5,0.2-0.7l0.3-1.1h0.3l0.3,1.1
				c0.1,0.2,0.1,0.5,0.2,0.7h0c0-0.2,0.1-0.5,0.2-0.7l0.3-1.1h0.3l-0.7,2.1h-0.3l-0.3-1.1c-0.1-0.3-0.1-0.5-0.2-0.7h0
				c0,0.2-0.1,0.4-0.2,0.7l-0.3,1.1L24.6,11.6L24.6,11.6z"/>
			<path class="st1" d="M29.2,10.5c0,0.7-0.5,1.1-1.1,1.1c-0.6,0-1.1-0.4-1.1-1.1c0-0.7,0.5-1.1,1.1-1.1
				C28.8,9.5,29.2,9.9,29.2,10.5z M27.3,10.6c0,0.4,0.3,0.8,0.8,0.8s0.8-0.4,0.8-0.9c0-0.4-0.2-0.8-0.8-0.8S27.3,10.1,27.3,10.6z"/>
			<path class="st1" d="M29.6,9.5c0.2,0,0.4,0,0.6,0c0.3,0,0.5,0,0.7,0.2c0.1,0.1,0.2,0.2,0.2,0.4c0,0.3-0.2,0.5-0.5,0.5v0
				c0.2,0.1,0.3,0.2,0.4,0.4c0.1,0.3,0.1,0.5,0.2,0.6h-0.3c0-0.1-0.1-0.2-0.2-0.5c-0.1-0.3-0.2-0.4-0.5-0.4h-0.3v0.9h-0.3L29.6,9.5
				L29.6,9.5z M29.9,10.5h0.3c0.3,0,0.5-0.2,0.5-0.4c0-0.3-0.2-0.4-0.5-0.4c-0.1,0-0.2,0-0.3,0L29.9,10.5z"/>
			<path class="st1" d="M31.5,9.5h0.3v1h0c0.1-0.1,0.1-0.2,0.2-0.2l0.7-0.8h0.4l-0.9,0.9l0.9,1.2h-0.4l-0.8-1l-0.2,0.2v0.8h-0.3
				L31.5,9.5L31.5,9.5z"/>
			<path class="st1" d="M33.3,11.3c0.1,0.1,0.3,0.1,0.5,0.1c0.3,0,0.5-0.1,0.5-0.4c0-0.2-0.1-0.3-0.5-0.4c-0.4-0.1-0.6-0.3-0.6-0.6
				c0-0.3,0.3-0.6,0.8-0.6c0.2,0,0.4,0,0.5,0.1l-0.1,0.2c-0.1,0-0.2-0.1-0.5-0.1c-0.3,0-0.5,0.2-0.5,0.3c0,0.2,0.1,0.3,0.5,0.4
				c0.4,0.1,0.6,0.3,0.6,0.6c0,0.3-0.3,0.6-0.8,0.6c-0.2,0-0.5-0.1-0.6-0.1L33.3,11.3z"/>
		</g>
		<g>
			<path class="st1" d="M28.6,6.2c0,1.3,1,1.8,2,1.8c0.8,0,1.2-0.1,1.7-0.3l0.2,0.7c-0.4,0.1-1,0.3-2,0.3c-1.8,0-2.9-1.1-2.9-2.7
				c0-1.6,1.1-2.8,2.8-2.8c2,0,2.5,1.5,2.5,2.5c0,0.2,0,0.3,0,0.4L28.6,6.2C28.6,6.2,28.6,6.2,28.6,6.2z M31.8,5.5
				c0-0.6-0.3-1.6-1.5-1.6c-1.1,0-1.6,0.9-1.7,1.6H31.8z"/>
		</g>
		<path class="st1" d="M36.7,3.5c0,0-2.1-0.6-3.1,0.8c-0.1,0.1-0.1,0.2-0.1,0.3v4.2h0.9V5.1c0,0-0.2-1.2,2.3-0.9V3.5z"/>
	</g>
	<g>
		<g>
			<g>
				<g>
					<polygon class="st2" points="559.6,25.2 555.3,25.2 556.5,22.5 558.3,22.5 					"/>
				</g>
				<g>
					<polygon class="st2" points="549.1,25.2 544.8,25.2 546,22.5 547.8,22.5 					"/>
				</g>
				<g>
					<polygon class="st2" points="538.6,25.2 534.3,25.2 535.5,22.5 537.3,22.5 					"/>
				</g>
				<g>
					<polygon class="st2" points="528.2,25.2 523.8,25.2 525,22.5 526.9,22.5 					"/>
				</g>
				<g>
					<polygon class="st2" points="517.7,25.2 513.3,25.2 514.5,22.5 516.4,22.5 					"/>
				</g>
				<g>
					<polygon class="st2" points="507.2,25.2 502.8,25.2 504,22.5 505.9,22.5 					"/>
				</g>
			</g>
			<g>
				<g>
					<polygon class="st2" points="560.7,22.5 565,22.5 563.8,25.2 562,25.2 					"/>
				</g>
				<g>
					<polygon class="st2" points="550.2,22.5 554.6,22.5 553.4,25.2 551.5,25.2 					"/>
				</g>
				<g>
					<polygon class="st2" points="539.7,22.5 544.1,22.5 542.9,25.2 541,25.2 					"/>
				</g>
				<g>
					<polygon class="st2" points="529.2,22.5 533.6,22.5 532.4,25.2 530.5,25.2 					"/>
				</g>
				<g>
					<polygon class="st2" points="518.7,22.5 523.1,22.5 521.9,25.2 520,25.2 					"/>
				</g>
				<g>
					<polygon class="st2" points="508.2,22.5 512.6,22.5 511.4,25.2 509.5,25.2 					"/>
				</g>
			</g>
		</g>
		<g>
			<g>
				<g>
					<polygon class="st2" points="559.6,33.9 555.3,33.9 556.5,31.2 558.3,31.2 					"/>
				</g>
				<g>
					<polygon class="st2" points="549.1,33.9 544.8,33.9 546,31.2 547.8,31.2 					"/>
				</g>
				<g>
					<polygon class="st2" points="538.6,33.9 534.3,33.9 535.5,31.2 537.3,31.2 					"/>
				</g>
				<g>
					<polygon class="st2" points="528.2,33.9 523.8,33.9 525,31.2 526.9,31.2 					"/>
				</g>
				<g>
					<polygon class="st2" points="517.7,33.9 513.3,33.9 514.5,31.2 516.4,31.2 					"/>
				</g>
				<g>
					<polygon class="st2" points="507.2,33.9 502.8,33.9 504,31.2 505.9,31.2 					"/>
				</g>
			</g>
			<g>
				<g>
					<polygon class="st2" points="560.7,31.2 565,31.2 563.8,33.9 562,33.9 					"/>
				</g>
				<g>
					<polygon class="st2" points="550.2,31.2 554.6,31.2 553.4,33.9 551.5,33.9 					"/>
				</g>
				<g>
					<polygon class="st2" points="539.7,31.2 544.1,31.2 542.9,33.9 541,33.9 					"/>
				</g>
				<g>
					<polygon class="st2" points="529.2,31.2 533.6,31.2 532.4,33.9 530.5,33.9 					"/>
				</g>
				<g>
					<polygon class="st2" points="518.7,31.2 523.1,31.2 521.9,33.9 520,33.9 					"/>
				</g>
				<g>
					<polygon class="st2" points="508.2,31.2 512.6,31.2 511.4,33.9 509.5,33.9 					"/>
				</g>
			</g>
		</g>
		<g>
			<g>
				<g>
					<polygon class="st2" points="559.6,26.8 555.3,26.8 556.5,29.5 558.3,29.5 					"/>
				</g>
				<g>
					<polygon class="st2" points="549.1,26.8 544.8,26.8 546,29.5 547.8,29.5 					"/>
				</g>
				<g>
					<polygon class="st2" points="538.6,26.8 534.3,26.8 535.5,29.5 537.3,29.5 					"/>
				</g>
				<g>
					<polygon class="st2" points="528.2,26.8 523.8,26.8 525,29.5 526.9,29.5 					"/>
				</g>
				<g>
					<polygon class="st2" points="517.7,26.8 513.3,26.8 514.5,29.5 516.4,29.5 					"/>
				</g>
				<g>
					<polygon class="st2" points="507.2,26.8 502.8,26.8 504,29.5 505.9,29.5 					"/>
				</g>
			</g>
			<g>
				<g>
					<polygon class="st2" points="560.7,29.5 565,29.5 563.8,26.8 562,26.8 					"/>
				</g>
				<g>
					<polygon class="st2" points="550.2,29.5 554.6,29.5 553.4,26.8 551.5,26.8 					"/>
				</g>
				<g>
					<polygon class="st2" points="539.7,29.5 544.1,29.5 542.9,26.8 541,26.8 					"/>
				</g>
				<g>
					<polygon class="st2" points="529.2,29.5 533.6,29.5 532.4,26.8 530.5,26.8 					"/>
				</g>
				<g>
					<polygon class="st2" points="518.7,29.5 523.1,29.5 521.9,26.8 520,26.8 					"/>
				</g>
				<g>
					<polygon class="st2" points="508.2,29.5 512.6,29.5 511.4,26.8 509.5,26.8 					"/>
				</g>
			</g>
		</g>
	</g>
	<path class="st3" d="M599.7,0.6h-25.1h-8.4h-62.9c-0.2,0-0.3,0.2-0.3,0.3v19.2c0,0.2,0.1,0.3,0.3,0.3h62.5c0.2,0,0.3,0.2,0.3,0.3
		v12.3c0,0.2,0.2,0.3,0.3,0.3h7.8c0.2,0,0.3,0.2,0.3,0.3V54c0,0.2,0.2,0.3,0.3,0.3h24.5c0.2,0,0.3-0.2,0.3-0.3V33.5L599.7,0.6
		L599.7,0.6z"/>
	<circle class="st4" cx="584.7" cy="43" r="1.8"/>
	<path class="st5" d="M589,51.4L589,51.4c-0.2-0.4-0.6-0.8-1-1c0.1-0.1,0.1-0.2,0-0.3l-0.3-0.7c-0.1-0.3-0.6-0.6-1-0.6h-4.1
		c-0.4,0-0.8,0.2-1,0.6l-0.3,0.7c-0.1,0.1,0,0.3,0,0.4c-0.4,0.2-0.8,0.5-0.9,0.9l0,0.1c-0.3,0.7,0.3,1.2,1.3,1.2h5.9
		C588.6,52.5,589.3,52,589,51.4z"/>
	<g>
		<path class="st1" d="M509.1,6.3h-1.4v1.3h1.6v0.4h-2.1V4.4h2v0.4h-1.5v1.2h1.4V6.3z"/>
		<path class="st1" d="M511.8,8.1l-0.5-0.8c-0.2-0.3-0.3-0.5-0.4-0.7h0c-0.1,0.2-0.2,0.4-0.4,0.7l-0.4,0.8h-0.5l1.1-1.9l-1.1-1.8
			h0.5l0.5,0.9c0.1,0.2,0.2,0.4,0.3,0.6h0c0.1-0.2,0.2-0.4,0.3-0.6l0.5-0.9h0.5l-1.1,1.8l1.1,1.9H511.8z"/>
		<path class="st1" d="M512.8,8.1V7.8l0.4-0.4c0.9-0.9,1.3-1.3,1.3-1.9c0-0.4-0.2-0.7-0.7-0.7c-0.3,0-0.6,0.2-0.8,0.3l-0.2-0.3
			c0.2-0.2,0.6-0.4,1-0.4c0.8,0,1.1,0.5,1.1,1c0,0.7-0.5,1.2-1.2,1.9l-0.3,0.3v0h1.6V8L512.8,8.1L512.8,8.1z"/>
		<path class="st1" d="M515.7,7.5c0.1,0.1,0.5,0.2,0.8,0.2c0.6,0,0.8-0.4,0.8-0.7c0-0.5-0.5-0.7-0.9-0.7h-0.3V6h0.3
			c0.3,0,0.8-0.2,0.8-0.6c0-0.3-0.2-0.5-0.6-0.5c-0.3,0-0.5,0.1-0.7,0.2l-0.1-0.3c0.2-0.1,0.5-0.3,0.9-0.3c0.7,0,1,0.4,1,0.8
			c0,0.4-0.2,0.7-0.7,0.8v0c0.4,0.1,0.8,0.4,0.8,0.9c0,0.6-0.4,1.1-1.3,1.1c-0.4,0-0.7-0.1-0.9-0.2L515.7,7.5z"/>
		<path class="st1" d="M520.7,6.2c0,1.2-0.5,1.9-1.2,1.9c-0.7,0-1.2-0.6-1.2-1.8c0-1.2,0.5-1.9,1.2-1.9
			C520.3,4.4,520.7,5.1,520.7,6.2z M518.8,6.3c0,0.9,0.3,1.5,0.7,1.5c0.5,0,0.7-0.6,0.7-1.5c0-0.9-0.2-1.5-0.7-1.5
			C519.1,4.8,518.8,5.3,518.8,6.3z"/>
		<path class="st1" d="M523.5,6.2c0,1.2-0.5,1.9-1.2,1.9c-0.7,0-1.2-0.6-1.2-1.8c0-1.2,0.5-1.9,1.2-1.9C523,4.4,523.5,5.1,523.5,6.2
			z M521.6,6.3c0,0.9,0.3,1.5,0.7,1.5c0.5,0,0.7-0.6,0.7-1.5c0-0.9-0.2-1.5-0.7-1.5C521.9,4.8,521.6,5.3,521.6,6.3z"/>
	</g>
	<g>
		<polygon class="st2" points="487,55 490.4,55 490.9,54.1 486.5,54.1 		"/>
		<polygon class="st2" points="476.5,55 479.9,55 480.4,54.1 476,54.1 		"/>
		<polygon class="st2" points="466,55 469.5,55 469.9,54.1 465.5,54.1 		"/>
		<polygon class="st2" points="455.5,55 459,55 459.4,54.1 455.1,54.1 		"/>
		<polygon class="st2" points="445,55 448.5,55 448.9,54.1 444.6,54.1 		"/>
		<polygon class="st2" points="494.9,54.5 493.1,54.5 492.8,55 495.2,55 		"/>
		<polygon class="st2" points="482.6,54.5 482.3,55 484.7,55 484.4,54.5 		"/>
		<polygon class="st2" points="472.1,54.5 471.8,55 474.2,55 474,54.5 		"/>
		<polygon class="st2" points="461.6,54.5 461.3,55 463.7,55 463.5,54.5 		"/>
		<polygon class="st2" points="451.1,54.5 450.8,55 453.2,55 453,54.5 		"/>
		<polygon class="st2" points="435.4,55 438.9,55 439.4,54.1 435,54.1 		"/>
		<polygon class="st2" points="425,55 428.4,55 428.9,54.1 424.5,54.1 		"/>
		<polygon class="st2" points="414.5,55 417.9,55 418.4,54.1 414,54.1 		"/>
		<polygon class="st2" points="404,55 407.5,55 407.9,54.1 403.5,54.1 		"/>
		<polygon class="st2" points="393.5,55 397,55 397.4,54.1 393.1,54.1 		"/>
		<polygon class="st2" points="383,55 386.5,55 386.9,54.1 382.6,54.1 		"/>
		<polygon class="st2" points="441.5,54.5 441.3,55 443.7,55 443.4,54.5 		"/>
		<polygon class="st2" points="431.1,54.5 430.8,55 433.2,55 432.9,54.5 		"/>
		<polygon class="st2" points="420.6,54.5 420.3,55 422.7,55 422.4,54.5 		"/>
		<polygon class="st2" points="410.1,54.5 409.8,55 412.2,55 412,54.5 		"/>
		<polygon class="st2" points="399.6,54.5 399.3,55 401.7,55 401.5,54.5 		"/>
		<polygon class="st2" points="389.1,54.5 388.8,55 391.2,55 391,54.5 		"/>
		<polygon class="st2" points="373.4,55 376.9,55 377.4,54.1 373,54.1 		"/>
		<polygon class="st2" points="363,55 366.4,55 366.9,54.1 362.5,54.1 		"/>
		<polygon class="st2" points="352.5,55 355.9,55 356.4,54.1 352,54.1 		"/>
		<polygon class="st2" points="342,55 345.5,55 345.9,54.1 341.5,54.1 		"/>
		<polygon class="st2" points="331.5,55 335,55 335.4,54.1 331.1,54.1 		"/>
		<polygon class="st2" points="321,55 324.5,55 324.9,54.1 320.6,54.1 		"/>
		<polygon class="st2" points="379.5,54.5 379.3,55 381.7,55 381.4,54.5 		"/>
		<polygon class="st2" points="369.1,54.5 368.8,55 371.2,55 370.9,54.5 		"/>
		<polygon class="st2" points="358.6,54.5 358.3,55 360.7,55 360.4,54.5 		"/>
		<polygon class="st2" points="348.1,54.5 347.8,55 350.2,55 350,54.5 		"/>
		<polygon class="st2" points="337.6,54.5 337.3,55 339.7,55 339.5,54.5 		"/>
		<polygon class="st2" points="327.1,54.5 326.8,55 329.2,55 329,54.5 		"/>
		<polygon class="st2" points="311.4,55 314.9,55 315.4,54.1 311,54.1 		"/>
		<polygon class="st2" points="301,55 304.4,55 304.9,54.1 300.5,54.1 		"/>
		<polygon class="st2" points="290.5,55 293.9,55 294.4,54.1 290,54.1 		"/>
		<polygon class="st2" points="280,55 283.5,55 283.9,54.1 279.5,54.1 		"/>
		<polygon class="st2" points="269.5,55 273,55 273.4,54.1 269.1,54.1 		"/>
		<polygon class="st2" points="259,55 262.5,55 262.9,54.1 258.6,54.1 		"/>
		<polygon class="st2" points="317.5,54.5 317.3,55 319.7,55 319.4,54.5 		"/>
		<polygon class="st2" points="307.1,54.5 306.8,55 309.2,55 308.9,54.5 		"/>
		<polygon class="st2" points="296.6,54.5 296.3,55 298.7,55 298.4,54.5 		"/>
		<polygon class="st2" points="286.1,54.5 285.8,55 288.2,55 288,54.5 		"/>
		<polygon class="st2" points="275.6,54.5 275.3,55 277.7,55 277.5,54.5 		"/>
		<polygon class="st2" points="265.1,54.5 264.8,55 267.2,55 267,54.5 		"/>
		<polygon class="st2" points="249.4,55 252.9,55 253.4,54.1 249,54.1 		"/>
		<polygon class="st2" points="239,55 242.4,55 242.9,54.1 238.5,54.1 		"/>
		<polygon class="st2" points="228.5,55 231.9,55 232.4,54.1 228,54.1 		"/>
		<polygon class="st2" points="218,55 221.5,55 221.9,54.1 217.5,54.1 		"/>
		<polygon class="st2" points="207.5,55 211,55 211.4,54.1 207.1,54.1 		"/>
		<polygon class="st2" points="197,55 200.5,55 200.9,54.1 196.6,54.1 		"/>
		<polygon class="st2" points="255.5,54.5 255.3,55 257.7,55 257.4,54.5 		"/>
		<polygon class="st2" points="245.1,54.5 244.8,55 247.2,55 246.9,54.5 		"/>
		<polygon class="st2" points="234.6,54.5 234.3,55 236.7,55 236.4,54.5 		"/>
		<polygon class="st2" points="224.1,54.5 223.8,55 226.2,55 226,54.5 		"/>
		<polygon class="st2" points="213.6,54.5 213.3,55 215.7,55 215.5,54.5 		"/>
		<polygon class="st2" points="203.1,54.5 202.8,55 205.2,55 205,54.5 		"/>
		<polygon class="st2" points="187.4,55 190.9,55 191.4,54.1 187,54.1 		"/>
		<polygon class="st2" points="177,55 180.4,55 180.9,54.1 176.5,54.1 		"/>
		<polygon class="st2" points="166.5,55 169.9,55 170.4,54.1 166,54.1 		"/>
		<polygon class="st2" points="156,55 159.5,55 159.9,54.1 155.5,54.1 		"/>
		<polygon class="st2" points="145.5,55 149,55 149.4,54.1 145.1,54.1 		"/>
		<polygon class="st2" points="135,55 138.5,55 138.9,54.1 134.6,54.1 		"/>
		<polygon class="st2" points="193.5,54.5 193.3,55 195.7,55 195.4,54.5 		"/>
		<polygon class="st2" points="183.1,54.5 182.8,55 185.2,55 184.9,54.5 		"/>
		<polygon class="st2" points="172.6,54.5 172.3,55 174.7,55 174.4,54.5 		"/>
		<polygon class="st2" points="162.1,54.5 161.8,55 164.2,55 164,54.5 		"/>
		<polygon class="st2" points="151.6,54.5 151.3,55 153.7,55 153.5,54.5 		"/>
		<polygon class="st2" points="141.1,54.5 140.8,55 143.2,55 143,54.5 		"/>
		<polygon class="st2" points="125.4,55 128.9,55 129.4,54.1 125,54.1 		"/>
		<polygon class="st2" points="115,55 118.4,55 118.9,54.1 114.5,54.1 		"/>
		<polygon class="st2" points="104.5,55 107.9,55 108.4,54.1 104,54.1 		"/>
		<polygon class="st2" points="94,55 97.5,55 97.9,54.1 93.5,54.1 		"/>
		<polygon class="st2" points="83.5,55 87,55 87.4,54.1 83.1,54.1 		"/>
		<polygon class="st2" points="73,55 76.5,55 76.9,54.1 72.6,54.1 		"/>
		<polygon class="st2" points="131.5,54.5 131.3,55 133.7,55 133.4,54.5 		"/>
		<polygon class="st2" points="121.1,54.5 120.8,55 123.2,55 122.9,54.5 		"/>
		<polygon class="st2" points="110.6,54.5 110.3,55 112.7,55 112.4,54.5 		"/>
		<polygon class="st2" points="100.1,54.5 99.8,55 102.2,55 102,54.5 		"/>
		<polygon class="st2" points="89.6,54.5 89.3,55 91.7,55 91.5,54.5 		"/>
		<polygon class="st2" points="79.1,54.5 78.8,55 81.2,55 81,54.5 		"/>
		<polygon class="st2" points="63.4,55 66.9,55 67.4,54.1 63,54.1 		"/>
		<polygon class="st2" points="53,55 56.4,55 56.9,54.1 52.5,54.1 		"/>
		<polygon class="st2" points="42.5,55 45.9,55 46.4,54.1 42,54.1 		"/>
		<polygon class="st2" points="32,55 35.5,55 35.9,54.1 31.5,54.1 		"/>
		<polygon class="st2" points="21.5,55 25,55 25.4,54.1 21.1,54.1 		"/>
		<polygon class="st2" points="11,55 14.5,55 14.9,54.1 10.6,54.1 		"/>
		<polygon class="st2" points="69.5,54.5 69.3,55 71.7,55 71.4,54.5 		"/>
		<polygon class="st2" points="59.1,54.5 58.8,55 61.2,55 60.9,54.5 		"/>
		<polygon class="st2" points="48.6,54.5 48.3,55 50.7,55 50.4,54.5 		"/>
		<polygon class="st2" points="38.1,54.5 37.8,55 40.2,55 40,54.5 		"/>
		<polygon class="st2" points="27.6,54.5 27.3,55 29.7,55 29.5,54.5 		"/>
		<polygon class="st2" points="17.1,54.5 16.8,55 19.2,55 19,54.5 		"/>
	</g>
	<g>
		<polygon class="st2" points="495.3,3.8 496.4,1.8 495.4,0 493.2,0 492.2,1.8 493.3,3.8 		"/>
		<polygon class="st2" points="495.3,4.9 493.3,4.9 492.2,6.8 493.3,8.8 495.3,8.8 496.4,6.8 		"/>
		<polygon class="st2" points="499.3,1.8 500.2,0 496.2,0 497.2,1.8 		"/>
		<polygon class="st2" points="497.2,2.9 496.2,4.8 497.2,6.8 499.3,6.8 500.3,4.8 499.3,2.9 		"/>
		<polygon class="st2" points="497.2,7.9 496.2,9.8 500.3,9.8 499.3,7.9 		"/>
		<polygon class="st2" points="487,3.8 488,1.8 487,0 484.9,0 483.9,1.8 484.9,3.8 		"/>
		<polygon class="st2" points="487,4.9 484.9,4.9 483.9,6.8 484.9,8.8 487,8.8 488,6.8 		"/>
		<polygon class="st2" points="490.9,1.8 491.9,0 487.9,0 488.8,1.8 		"/>
		<polygon class="st2" points="488.8,2.9 487.8,4.8 488.8,6.8 490.9,6.8 492,4.8 490.9,2.9 		"/>
		<polygon class="st2" points="488.8,7.9 487.8,9.8 492,9.8 490.9,7.9 		"/>
		<polygon class="st2" points="478.6,3.8 479.7,1.8 478.6,0 476.5,0 475.5,1.8 476.5,3.8 		"/>
		<polygon class="st2" points="478.6,4.9 476.5,4.9 475.5,6.8 476.5,8.8 478.6,8.8 479.7,6.8 		"/>
		<polygon class="st2" points="482.5,1.8 483.5,0 479.5,0 480.5,1.8 		"/>
		<polygon class="st2" points="480.5,2.9 479.4,4.8 480.5,6.8 482.5,6.8 483.6,4.8 482.5,2.9 		"/>
		<polygon class="st2" points="480.5,7.9 479.4,9.8 483.6,9.8 482.5,7.9 		"/>
		<polygon class="st2" points="470.2,3.8 471.3,1.8 470.3,0 468.1,0 467.1,1.8 468.2,3.8 		"/>
		<polygon class="st2" points="470.2,4.9 468.2,4.9 467.1,6.8 468.2,8.8 470.2,8.8 471.3,6.8 		"/>
		<polygon class="st2" points="474.2,1.8 475.1,0 471.1,0 472.1,1.8 		"/>
		<polygon class="st2" points="472.1,2.9 471,4.8 472.1,6.8 474.2,6.8 475.2,4.8 474.2,2.9 		"/>
		<polygon class="st2" points="472.1,7.9 471,9.8 475.2,9.8 474.2,7.9 		"/>
		<polygon class="st2" points="461.9,3.8 462.9,1.8 461.9,0 459.7,0 458.7,1.8 459.8,3.8 		"/>
		<polygon class="st2" points="461.9,4.9 459.8,4.9 458.7,6.8 459.8,8.8 461.9,8.8 462.9,6.8 		"/>
		<polygon class="st2" points="465.8,1.8 466.8,0 462.8,0 463.7,1.8 		"/>
		<polygon class="st2" points="463.7,2.9 462.7,4.8 463.7,6.8 465.8,6.8 466.9,4.8 465.8,2.9 		"/>
		<polygon class="st2" points="463.7,7.9 462.7,9.8 466.9,9.8 465.8,7.9 		"/>
		<polygon class="st2" points="453.5,3.8 454.5,1.8 453.5,0 451.4,0 450.4,1.8 451.4,3.8 		"/>
		<polygon class="st2" points="453.5,4.9 451.4,4.9 450.4,6.8 451.4,8.8 453.5,8.8 454.5,6.8 		"/>
		<polygon class="st2" points="457.4,1.8 458.4,0 454.4,0 455.4,1.8 		"/>
		<polygon class="st2" points="455.4,2.9 454.3,4.8 455.4,6.8 457.4,6.8 458.5,4.8 457.4,2.9 		"/>
		<polygon class="st2" points="455.4,7.9 454.3,9.8 458.5,9.8 457.4,7.9 		"/>
		<polygon class="st2" points="445.1,3.8 446.2,1.8 445.2,0 443,0 442,1.8 443,3.8 		"/>
		<polygon class="st2" points="445.1,4.9 443,4.9 442,6.8 443,8.8 445.1,8.8 446.2,6.8 		"/>
		<polygon class="st2" points="449.1,1.8 450,0 446,0 447,1.8 		"/>
		<polygon class="st2" points="447,2.9 445.9,4.8 447,6.8 449.1,6.8 450.1,4.8 449.1,2.9 		"/>
		<polygon class="st2" points="447,7.9 445.9,9.8 450.1,9.8 449.1,7.9 		"/>
		<polygon class="st2" points="436.8,3.8 437.8,1.8 436.8,0 434.6,0 433.6,1.8 434.7,3.8 		"/>
		<polygon class="st2" points="436.8,4.9 434.7,4.9 433.6,6.8 434.7,8.8 436.8,8.8 437.8,6.8 		"/>
		<polygon class="st2" points="440.7,1.8 441.7,0 437.7,0 438.6,1.8 		"/>
		<polygon class="st2" points="438.6,2.9 437.6,4.8 438.6,6.8 440.7,6.8 441.7,4.8 440.7,2.9 		"/>
		<polygon class="st2" points="438.6,7.9 437.6,9.8 441.7,9.8 440.7,7.9 		"/>
		<polygon class="st2" points="428.4,3.8 429.4,1.8 428.4,0 426.3,0 425.3,1.8 426.3,3.8 		"/>
		<polygon class="st2" points="428.4,4.9 426.3,4.9 425.3,6.8 426.3,8.8 428.4,8.8 429.4,6.8 		"/>
		<polygon class="st2" points="432.3,1.8 433.3,0 429.3,0 430.2,1.8 		"/>
		<polygon class="st2" points="430.2,2.9 429.2,4.8 430.2,6.8 432.3,6.8 433.4,4.8 432.3,2.9 		"/>
		<polygon class="st2" points="430.2,7.9 429.2,9.8 433.4,9.8 432.3,7.9 		"/>
		<polygon class="st2" points="420,3.8 421.1,1.8 420,0 417.9,0 416.9,1.8 417.9,3.8 		"/>
		<polygon class="st2" points="420,4.9 417.9,4.9 416.9,6.8 417.9,8.8 420,8.8 421.1,6.8 		"/>
		<polygon class="st2" points="424,1.8 424.9,0 420.9,0 421.9,1.8 		"/>
		<polygon class="st2" points="421.9,2.9 420.8,4.8 421.9,6.8 424,6.8 425,4.8 424,2.9 		"/>
		<polygon class="st2" points="421.9,7.9 420.8,9.8 425,9.8 424,7.9 		"/>
		<polygon class="st2" points="411.6,3.8 412.7,1.8 411.7,0 409.5,0 408.5,1.8 409.6,3.8 		"/>
		<polygon class="st2" points="411.6,4.9 409.6,4.9 408.5,6.8 409.6,8.8 411.6,8.8 412.7,6.8 		"/>
		<polygon class="st2" points="415.6,1.8 416.5,0 412.5,0 413.5,1.8 		"/>
		<polygon class="st2" points="413.5,2.9 412.5,4.8 413.5,6.8 415.6,6.8 416.6,4.8 415.6,2.9 		"/>
		<polygon class="st2" points="413.5,7.9 412.5,9.8 416.6,9.8 415.6,7.9 		"/>
		<polygon class="st2" points="403.3,3.8 404.3,1.8 403.3,0 401.2,0 400.2,1.8 401.2,3.8 		"/>
		<polygon class="st2" points="403.3,4.9 401.2,4.9 400.2,6.8 401.2,8.8 403.3,8.8 404.3,6.8 		"/>
		<polygon class="st2" points="407.2,1.8 408.2,0 404.2,0 405.1,1.8 		"/>
		<polygon class="st2" points="405.1,2.9 404.1,4.8 405.1,6.8 407.2,6.8 408.3,4.8 407.2,2.9 		"/>
		<polygon class="st2" points="405.1,7.9 404.1,9.8 408.3,9.8 407.2,7.9 		"/>
		<polygon class="st2" points="394.9,3.8 396,1.8 394.9,0 392.8,0 391.8,1.8 392.8,3.8 		"/>
		<polygon class="st2" points="394.9,4.9 392.8,4.9 391.8,6.8 392.8,8.8 394.9,8.8 396,6.8 		"/>
		<polygon class="st2" points="398.8,1.8 399.8,0 395.8,0 396.8,1.8 		"/>
		<polygon class="st2" points="396.8,2.9 395.7,4.8 396.8,6.8 398.8,6.8 399.9,4.8 398.8,2.9 		"/>
		<polygon class="st2" points="396.8,7.9 395.7,9.8 399.9,9.8 398.8,7.9 		"/>
		<polygon class="st2" points="386.5,3.8 387.6,1.8 386.6,0 384.4,0 383.4,1.8 384.5,3.8 		"/>
		<polygon class="st2" points="386.5,4.9 384.5,4.9 383.4,6.8 384.5,8.8 386.5,8.8 387.6,6.8 		"/>
		<polygon class="st2" points="390.5,1.8 391.4,0 387.4,0 388.4,1.8 		"/>
		<polygon class="st2" points="388.4,2.9 387.4,4.8 388.4,6.8 390.5,6.8 391.5,4.8 390.5,2.9 		"/>
		<polygon class="st2" points="388.4,7.9 387.4,9.8 391.5,9.8 390.5,7.9 		"/>
		<polygon class="st2" points="378.2,3.8 379.2,1.8 378.2,0 376,0 375,1.8 376.1,3.8 		"/>
		<polygon class="st2" points="378.2,4.9 376.1,4.9 375,6.8 376.1,8.8 378.2,8.8 379.2,6.8 		"/>
		<polygon class="st2" points="382.1,1.8 383.1,0 379.1,0 380,1.8 		"/>
		<polygon class="st2" points="380,2.9 379,4.8 380,6.8 382.1,6.8 383.2,4.8 382.1,2.9 		"/>
		<polygon class="st2" points="380,7.9 379,9.8 383.2,9.8 382.1,7.9 		"/>
		<polygon class="st2" points="369.8,3.8 370.8,1.8 369.8,0 367.7,0 366.7,1.8 367.7,3.8 		"/>
		<polygon class="st2" points="369.8,4.9 367.7,4.9 366.7,6.8 367.7,8.8 369.8,8.8 370.8,6.8 		"/>
		<polygon class="st2" points="373.7,1.8 374.7,0 370.7,0 371.7,1.8 		"/>
		<polygon class="st2" points="371.7,2.9 370.6,4.8 371.7,6.8 373.7,6.8 374.8,4.8 373.7,2.9 		"/>
		<polygon class="st2" points="371.7,7.9 370.6,9.8 374.8,9.8 373.7,7.9 		"/>
		<polygon class="st2" points="361.4,3.8 362.5,1.8 361.5,0 359.3,0 358.3,1.8 359.3,3.8 		"/>
		<polygon class="st2" points="361.4,4.9 359.3,4.9 358.3,6.8 359.3,8.8 361.4,8.8 362.5,6.8 		"/>
		<polygon class="st2" points="365.4,1.8 366.3,0 362.3,0 363.3,1.8 		"/>
		<polygon class="st2" points="363.3,2.9 362.2,4.8 363.3,6.8 365.4,6.8 366.4,4.8 365.4,2.9 		"/>
		<polygon class="st2" points="363.3,7.9 362.2,9.8 366.4,9.8 365.4,7.9 		"/>
		<polygon class="st2" points="353,3.8 354.1,1.8 353.1,0 350.9,0 349.9,1.8 351,3.8 		"/>
		<polygon class="st2" points="353,4.9 351,4.9 349.9,6.8 351,8.8 353,8.8 354.1,6.8 		"/>
		<polygon class="st2" points="357,1.8 358,0 354,0 354.9,1.8 		"/>
		<polygon class="st2" points="354.9,2.9 353.9,4.8 354.9,6.8 357,6.8 358,4.8 357,2.9 		"/>
		<polygon class="st2" points="354.9,7.9 353.9,9.8 358,9.8 357,7.9 		"/>
		<polygon class="st2" points="344.7,3.8 345.7,1.8 344.7,0 342.6,0 341.6,1.8 342.6,3.8 		"/>
		<polygon class="st2" points="344.7,4.9 342.6,4.9 341.6,6.8 342.6,8.8 344.7,8.8 345.7,6.8 		"/>
		<polygon class="st2" points="348.6,1.8 349.6,0 345.6,0 346.5,1.8 		"/>
		<polygon class="st2" points="346.5,2.9 345.5,4.8 346.5,6.8 348.6,6.8 349.7,4.8 348.6,2.9 		"/>
		<polygon class="st2" points="346.5,7.9 345.5,9.8 349.7,9.8 348.6,7.9 		"/>
		<polygon class="st2" points="336.3,3.8 337.4,1.8 336.4,0 334.2,0 333.2,1.8 334.2,3.8 		"/>
		<polygon class="st2" points="336.3,4.9 334.2,4.9 333.2,6.8 334.2,8.8 336.3,8.8 337.4,6.8 		"/>
		<polygon class="st2" points="340.2,1.8 341.2,0 337.2,0 338.2,1.8 		"/>
		<polygon class="st2" points="338.2,2.9 337.1,4.8 338.2,6.8 340.2,6.8 341.3,4.8 340.2,2.9 		"/>
		<polygon class="st2" points="338.2,7.9 337.1,9.8 341.3,9.8 340.2,7.9 		"/>
		<polygon class="st2" points="327.9,3.8 329,1.8 328,0 325.8,0 324.8,1.8 325.9,3.8 		"/>
		<polygon class="st2" points="327.9,4.9 325.9,4.9 324.8,6.8 325.9,8.8 327.9,8.8 329,6.8 		"/>
		<polygon class="st2" points="331.9,1.8 332.9,0 328.8,0 329.8,1.8 		"/>
		<polygon class="st2" points="329.8,2.9 328.8,4.8 329.8,6.8 331.9,6.8 332.9,4.8 331.9,2.9 		"/>
		<polygon class="st2" points="329.8,7.9 328.8,9.8 332.9,9.8 331.9,7.9 		"/>
		<polygon class="st2" points="319.6,3.8 320.6,1.8 319.6,0 317.5,0 316.5,1.8 317.5,3.8 		"/>
		<polygon class="st2" points="319.6,4.9 317.5,4.9 316.5,6.8 317.5,8.8 319.6,8.8 320.6,6.8 		"/>
		<polygon class="st2" points="323.5,1.8 324.5,0 320.5,0 321.4,1.8 		"/>
		<polygon class="st2" points="321.4,2.9 320.4,4.8 321.4,6.8 323.5,6.8 324.6,4.8 323.5,2.9 		"/>
		<polygon class="st2" points="321.4,7.9 320.4,9.8 324.6,9.8 323.5,7.9 		"/>
		<polygon class="st2" points="311.2,3.8 312.2,1.8 311.2,0 309.1,0 308.1,1.8 309.1,3.8 		"/>
		<polygon class="st2" points="311.2,4.9 309.1,4.9 308.1,6.8 309.1,8.8 311.2,8.8 312.2,6.8 		"/>
		<polygon class="st2" points="315.1,1.8 316.1,0 312.1,0 313.1,1.8 		"/>
		<polygon class="st2" points="313.1,2.9 312,4.8 313.1,6.8 315.1,6.8 316.2,4.8 315.1,2.9 		"/>
		<polygon class="st2" points="313.1,7.9 312,9.8 316.2,9.8 315.1,7.9 		"/>
		<polygon class="st2" points="302.8,3.8 303.9,1.8 302.9,0 300.7,0 299.7,1.8 300.8,3.8 		"/>
		<polygon class="st2" points="302.8,4.9 300.8,4.9 299.7,6.8 300.8,8.8 302.8,8.8 303.9,6.8 		"/>
		<polygon class="st2" points="306.8,1.8 307.7,0 303.7,0 304.7,1.8 		"/>
		<polygon class="st2" points="304.7,2.9 303.7,4.8 304.7,6.8 306.8,6.8 307.8,4.8 306.8,2.9 		"/>
		<polygon class="st2" points="304.7,7.9 303.7,9.8 307.8,9.8 306.8,7.9 		"/>
		<polygon class="st2" points="294.5,3.8 295.5,1.8 294.5,0 292.3,0 291.3,1.8 292.4,3.8 		"/>
		<polygon class="st2" points="294.5,4.9 292.4,4.9 291.3,6.8 292.4,8.8 294.5,8.8 295.5,6.8 		"/>
		<polygon class="st2" points="298.4,1.8 299.4,0 295.4,0 296.3,1.8 		"/>
		<polygon class="st2" points="296.3,2.9 295.3,4.8 296.3,6.8 298.4,6.8 299.5,4.8 298.4,2.9 		"/>
		<polygon class="st2" points="296.3,7.9 295.3,9.8 299.5,9.8 298.4,7.9 		"/>
		<polygon class="st2" points="286.1,3.8 287.1,1.8 286.1,0 284,0 283,1.8 284,3.8 		"/>
		<polygon class="st2" points="286.1,4.9 284,4.9 283,6.8 284,8.8 286.1,8.8 287.1,6.8 		"/>
		<polygon class="st2" points="290,1.8 291,0 287,0 288,1.8 		"/>
		<polygon class="st2" points="288,2.9 286.9,4.8 288,6.8 290,6.8 291.1,4.8 290,2.9 		"/>
		<polygon class="st2" points="288,7.9 286.9,9.8 291.1,9.8 290,7.9 		"/>
		<polygon class="st2" points="277.7,3.8 278.8,1.8 277.8,0 275.6,0 274.6,1.8 275.6,3.8 		"/>
		<polygon class="st2" points="277.7,4.9 275.6,4.9 274.6,6.8 275.6,8.8 277.7,8.8 278.8,6.8 		"/>
		<polygon class="st2" points="281.7,1.8 282.6,0 278.6,0 279.6,1.8 		"/>
		<polygon class="st2" points="279.6,2.9 278.5,4.8 279.6,6.8 281.7,6.8 282.7,4.8 281.7,2.9 		"/>
		<polygon class="st2" points="279.6,7.9 278.5,9.8 282.7,9.8 281.7,7.9 		"/>
		<polygon class="st2" points="269.4,3.8 270.4,1.8 269.4,0 267.2,0 266.2,1.8 267.3,3.8 		"/>
		<polygon class="st2" points="269.4,4.9 267.3,4.9 266.2,6.8 267.3,8.8 269.4,8.8 270.4,6.8 		"/>
		<polygon class="st2" points="273.3,1.8 274.3,0 270.2,0 271.2,1.8 		"/>
		<polygon class="st2" points="271.2,2.9 270.2,4.8 271.2,6.8 273.3,6.8 274.3,4.8 273.3,2.9 		"/>
		<polygon class="st2" points="271.2,7.9 270.2,9.8 274.3,9.8 273.3,7.9 		"/>
		<polygon class="st2" points="261,3.8 262,1.8 261,0 258.9,0 257.9,1.8 258.9,3.8 		"/>
		<polygon class="st2" points="261,4.9 258.9,4.9 257.9,6.8 258.9,8.8 261,8.8 262,6.8 		"/>
		<polygon class="st2" points="264.9,1.8 265.9,0 261.9,0 262.8,1.8 		"/>
		<polygon class="st2" points="262.8,2.9 261.8,4.8 262.8,6.8 264.9,6.8 266,4.8 264.9,2.9 		"/>
		<polygon class="st2" points="262.8,7.9 261.8,9.8 266,9.8 264.9,7.9 		"/>
		<polygon class="st2" points="252.6,3.8 253.7,1.8 252.7,0 250.5,0 249.5,1.8 250.5,3.8 		"/>
		<polygon class="st2" points="252.6,4.9 250.5,4.9 249.5,6.8 250.5,8.8 252.6,8.8 253.7,6.8 		"/>
		<polygon class="st2" points="256.5,1.8 257.5,0 253.5,0 254.5,1.8 		"/>
		<polygon class="st2" points="254.5,2.9 253.4,4.8 254.5,6.8 256.5,6.8 257.6,4.8 256.5,2.9 		"/>
		<polygon class="st2" points="254.5,7.9 253.4,9.8 257.6,9.8 256.5,7.9 		"/>
		<polygon class="st2" points="244.2,3.8 245.3,1.8 244.3,0 242.1,0 241.1,1.8 242.2,3.8 		"/>
		<polygon class="st2" points="244.2,4.9 242.2,4.9 241.1,6.8 242.2,8.8 244.2,8.8 245.3,6.8 		"/>
		<polygon class="st2" points="248.2,1.8 249.2,0 245.1,0 246.1,1.8 		"/>
		<polygon class="st2" points="246.1,2.9 245.1,4.8 246.1,6.8 248.2,6.8 249.2,4.8 248.2,2.9 		"/>
		<polygon class="st2" points="246.1,7.9 245.1,9.8 249.2,9.8 248.2,7.9 		"/>
		<polygon class="st2" points="235.9,3.8 236.9,1.8 235.9,0 233.8,0 232.8,1.8 233.8,3.8 		"/>
		<polygon class="st2" points="235.9,4.9 233.8,4.9 232.8,6.8 233.8,8.8 235.9,8.8 236.9,6.8 		"/>
		<polygon class="st2" points="239.8,1.8 240.8,0 236.8,0 237.7,1.8 		"/>
		<polygon class="st2" points="237.7,2.9 236.7,4.8 237.7,6.8 239.8,6.8 240.9,4.8 239.8,2.9 		"/>
		<polygon class="st2" points="237.7,7.9 236.7,9.8 240.9,9.8 239.8,7.9 		"/>
		<polygon class="st2" points="227.5,3.8 228.5,1.8 227.5,0 225.4,0 224.4,1.8 225.4,3.8 		"/>
		<polygon class="st2" points="227.5,4.9 225.4,4.9 224.4,6.8 225.4,8.8 227.5,8.8 228.5,6.8 		"/>
		<polygon class="st2" points="231.4,1.8 232.4,0 228.4,0 229.4,1.8 		"/>
		<polygon class="st2" points="229.4,2.9 228.3,4.8 229.4,6.8 231.4,6.8 232.5,4.8 231.4,2.9 		"/>
		<polygon class="st2" points="229.4,7.9 228.3,9.8 232.5,9.8 231.4,7.9 		"/>
		<polygon class="st2" points="219.1,3.8 220.2,1.8 219.2,0 217,0 216,1.8 217,3.8 		"/>
		<polygon class="st2" points="219.1,4.9 217,4.9 216,6.8 217,8.8 219.1,8.8 220.2,6.8 		"/>
		<polygon class="st2" points="223.1,1.8 224,0 220,0 221,1.8 		"/>
		<polygon class="st2" points="221,2.9 220,4.8 221,6.8 223.1,6.8 224.1,4.8 223.1,2.9 		"/>
		<polygon class="st2" points="221,7.9 220,9.8 224.1,9.8 223.1,7.9 		"/>
		<polygon class="st2" points="210.8,3.8 211.8,1.8 210.8,0 208.6,0 207.6,1.8 208.7,3.8 		"/>
		<polygon class="st2" points="210.8,4.9 208.7,4.9 207.6,6.8 208.7,8.8 210.8,8.8 211.8,6.8 		"/>
		<polygon class="st2" points="214.7,1.8 215.7,0 211.7,0 212.6,1.8 		"/>
		<polygon class="st2" points="212.6,2.9 211.6,4.8 212.6,6.8 214.7,6.8 215.8,4.8 214.7,2.9 		"/>
		<polygon class="st2" points="212.6,7.9 211.6,9.8 215.8,9.8 214.7,7.9 		"/>
		<polygon class="st2" points="202.4,3.8 203.4,1.8 202.4,0 200.3,0 199.3,1.8 200.3,3.8 		"/>
		<polygon class="st2" points="202.4,4.9 200.3,4.9 199.3,6.8 200.3,8.8 202.4,8.8 203.4,6.8 		"/>
		<polygon class="st2" points="206.3,1.8 207.3,0 203.3,0 204.2,1.8 		"/>
		<polygon class="st2" points="204.2,2.9 203.2,4.8 204.2,6.8 206.3,6.8 207.4,4.8 206.3,2.9 		"/>
		<polygon class="st2" points="204.2,7.9 203.2,9.8 207.4,9.8 206.3,7.9 		"/>
		<polygon class="st2" points="194,3.8 195.1,1.8 194.1,0 191.9,0 190.9,1.8 191.9,3.8 		"/>
		<polygon class="st2" points="194,4.9 191.9,4.9 190.9,6.8 191.9,8.8 194,8.8 195.1,6.8 		"/>
		<polygon class="st2" points="198,1.8 198.9,0 194.9,0 195.9,1.8 		"/>
		<polygon class="st2" points="195.9,2.9 194.8,4.8 195.9,6.8 198,6.8 199,4.8 198,2.9 		"/>
		<polygon class="st2" points="195.9,7.9 194.8,9.8 199,9.8 198,7.9 		"/>
		<polygon class="st2" points="185.7,3.8 186.7,1.8 185.7,0 183.5,0 182.5,1.8 183.6,3.8 		"/>
		<polygon class="st2" points="185.7,4.9 183.6,4.9 182.5,6.8 183.6,8.8 185.7,8.8 186.7,6.8 		"/>
		<polygon class="st2" points="189.6,1.8 190.6,0 186.5,0 187.5,1.8 		"/>
		<polygon class="st2" points="187.5,2.9 186.5,4.8 187.5,6.8 189.6,6.8 190.6,4.8 189.6,2.9 		"/>
		<polygon class="st2" points="187.5,7.9 186.5,9.8 190.6,9.8 189.6,7.9 		"/>
		<polygon class="st2" points="177.3,3.8 178.3,1.8 177.3,0 175.2,0 174.2,1.8 175.2,3.8 		"/>
		<polygon class="st2" points="177.3,4.9 175.2,4.9 174.2,6.8 175.2,8.8 177.3,8.8 178.3,6.8 		"/>
		<polygon class="st2" points="181.2,1.8 182.2,0 178.2,0 179.1,1.8 		"/>
		<polygon class="st2" points="179.1,2.9 178.1,4.8 179.1,6.8 181.2,6.8 182.3,4.8 181.2,2.9 		"/>
		<polygon class="st2" points="179.1,7.9 178.1,9.8 182.3,9.8 181.2,7.9 		"/>
		<polygon class="st2" points="168.9,3.8 170,1.8 169,0 166.8,0 165.8,1.8 166.8,3.8 		"/>
		<polygon class="st2" points="168.9,4.9 166.8,4.9 165.8,6.8 166.8,8.8 168.9,8.8 170,6.8 		"/>
		<polygon class="st2" points="172.9,1.8 173.8,0 169.8,0 170.8,1.8 		"/>
		<polygon class="st2" points="170.8,2.9 169.7,4.8 170.8,6.8 172.9,6.8 173.9,4.8 172.9,2.9 		"/>
		<polygon class="st2" points="170.8,7.9 169.7,9.8 173.9,9.8 172.9,7.9 		"/>
		<polygon class="st2" points="160.5,3.8 161.6,1.8 160.6,0 158.4,0 157.4,1.8 158.5,3.8 		"/>
		<polygon class="st2" points="160.5,4.9 158.5,4.9 157.4,6.8 158.5,8.8 160.5,8.8 161.6,6.8 		"/>
		<polygon class="st2" points="164.5,1.8 165.5,0 161.4,0 162.4,1.8 		"/>
		<polygon class="st2" points="162.4,2.9 161.4,4.8 162.4,6.8 164.5,6.8 165.5,4.8 164.5,2.9 		"/>
		<polygon class="st2" points="162.4,7.9 161.4,9.8 165.5,9.8 164.5,7.9 		"/>
		<polygon class="st2" points="152.2,3.8 153.2,1.8 152.2,0 150,0 149,1.8 150.1,3.8 		"/>
		<polygon class="st2" points="152.2,4.9 150.1,4.9 149,6.8 150.1,8.8 152.2,8.8 153.2,6.8 		"/>
		<polygon class="st2" points="156.1,1.8 157.1,0 153.1,0 154,1.8 		"/>
		<polygon class="st2" points="154,2.9 153,4.8 154,6.8 156.1,6.8 157.2,4.8 156.1,2.9 		"/>
		<polygon class="st2" points="154,7.9 153,9.8 157.2,9.8 156.1,7.9 		"/>
		<polygon class="st2" points="143.8,3.8 144.9,1.8 143.8,0 141.7,0 140.7,1.8 141.7,3.8 		"/>
		<polygon class="st2" points="143.8,4.9 141.7,4.9 140.7,6.8 141.7,8.8 143.8,8.8 144.9,6.8 		"/>
		<polygon class="st2" points="147.7,1.8 148.7,0 144.7,0 145.7,1.8 		"/>
		<polygon class="st2" points="145.7,2.9 144.6,4.8 145.7,6.8 147.7,6.8 148.8,4.8 147.7,2.9 		"/>
		<polygon class="st2" points="145.7,7.9 144.6,9.8 148.8,9.8 147.7,7.9 		"/>
		<polygon class="st2" points="135.4,3.8 136.5,1.8 135.5,0 133.3,0 132.3,1.8 133.4,3.8 		"/>
		<polygon class="st2" points="135.4,4.9 133.4,4.9 132.3,6.8 133.4,8.8 135.4,8.8 136.5,6.8 		"/>
		<polygon class="st2" points="139.4,1.8 140.3,0 136.3,0 137.3,1.8 		"/>
		<polygon class="st2" points="137.3,2.9 136.2,4.8 137.3,6.8 139.4,6.8 140.4,4.8 139.4,2.9 		"/>
		<polygon class="st2" points="137.3,7.9 136.2,9.8 140.4,9.8 139.4,7.9 		"/>
		<polygon class="st2" points="127.1,3.8 128.1,1.8 127.1,0 124.9,0 123.9,1.8 125,3.8 		"/>
		<polygon class="st2" points="127.1,4.9 125,4.9 123.9,6.8 125,8.8 127.1,8.8 128.1,6.8 		"/>
		<polygon class="st2" points="131,1.8 132,0 128,0 128.9,1.8 		"/>
		<polygon class="st2" points="128.9,2.9 127.9,4.8 128.9,6.8 131,6.8 132,4.8 131,2.9 		"/>
		<polygon class="st2" points="128.9,7.9 127.9,9.8 132,9.8 131,7.9 		"/>
		<polygon class="st2" points="118.7,3.8 119.7,1.8 118.7,0 116.6,0 115.6,1.8 116.6,3.8 		"/>
		<polygon class="st2" points="118.7,4.9 116.6,4.9 115.6,6.8 116.6,8.8 118.7,8.8 119.7,6.8 		"/>
		<polygon class="st2" points="122.6,1.8 123.6,0 119.6,0 120.5,1.8 		"/>
		<polygon class="st2" points="120.5,2.9 119.5,4.8 120.5,6.8 122.6,6.8 123.7,4.8 122.6,2.9 		"/>
		<polygon class="st2" points="120.5,7.9 119.5,9.8 123.7,9.8 122.6,7.9 		"/>
		<polygon class="st2" points="110.3,3.8 111.4,1.8 110.4,0 108.2,0 107.2,1.8 108.2,3.8 		"/>
		<polygon class="st2" points="110.3,4.9 108.2,4.9 107.2,6.8 108.2,8.8 110.3,8.8 111.4,6.8 		"/>
		<polygon class="st2" points="114.3,1.8 115.2,0 111.2,0 112.2,1.8 		"/>
		<polygon class="st2" points="112.2,2.9 111.1,4.8 112.2,6.8 114.3,6.8 115.3,4.8 114.3,2.9 		"/>
		<polygon class="st2" points="112.2,7.9 111.1,9.8 115.3,9.8 114.3,7.9 		"/>
		<polygon class="st2" points="102,3.8 103,1.8 102,0 99.8,0 98.8,1.8 99.9,3.8 		"/>
		<polygon class="st2" points="102,4.9 99.9,4.9 98.8,6.8 99.9,8.8 102,8.8 103,6.8 		"/>
		<polygon class="st2" points="105.9,1.8 106.9,0 102.8,0 103.8,1.8 		"/>
		<polygon class="st2" points="103.8,2.9 102.8,4.8 103.8,6.8 105.9,6.8 106.9,4.8 105.9,2.9 		"/>
		<polygon class="st2" points="103.8,7.9 102.8,9.8 106.9,9.8 105.9,7.9 		"/>
		<polygon class="st2" points="93.6,3.8 94.6,1.8 93.6,0 91.5,0 90.5,1.8 91.5,3.8 		"/>
		<polygon class="st2" points="93.6,4.9 91.5,4.9 90.5,6.8 91.5,8.8 93.6,8.8 94.6,6.8 		"/>
		<polygon class="st2" points="97.5,1.8 98.5,0 94.5,0 95.4,1.8 		"/>
		<polygon class="st2" points="95.4,2.9 94.4,4.8 95.4,6.8 97.5,6.8 98.6,4.8 97.5,2.9 		"/>
		<polygon class="st2" points="95.4,7.9 94.4,9.8 98.6,9.8 97.5,7.9 		"/>
		<polygon class="st2" points="85.2,3.8 86.3,1.8 85.2,0 83.1,0 82.1,1.8 83.1,3.8 		"/>
		<polygon class="st2" points="85.2,4.9 83.1,4.9 82.1,6.8 83.1,8.8 85.2,8.8 86.3,6.8 		"/>
		<polygon class="st2" points="89.2,1.8 90.1,0 86.1,0 87.1,1.8 		"/>
		<polygon class="st2" points="87.1,2.9 86,4.8 87.1,6.8 89.2,6.8 90.2,4.8 89.2,2.9 		"/>
		<polygon class="st2" points="87.1,7.9 86,9.8 90.2,9.8 89.2,7.9 		"/>
		<polygon class="st2" points="76.8,3.8 77.9,1.8 76.9,0 74.7,0 73.7,1.8 74.8,3.8 		"/>
		<polygon class="st2" points="76.8,4.9 74.8,4.9 73.7,6.8 74.8,8.8 76.8,8.8 77.9,6.8 		"/>
		<polygon class="st2" points="80.8,1.8 81.8,0 77.7,0 78.7,1.8 		"/>
		<polygon class="st2" points="78.7,2.9 77.7,4.8 78.7,6.8 80.8,6.8 81.8,4.8 80.8,2.9 		"/>
		<polygon class="st2" points="78.7,7.9 77.7,9.8 81.8,9.8 80.8,7.9 		"/>
		<polygon class="st2" points="68.5,3.8 69.5,1.8 68.5,0 66.3,0 65.3,1.8 66.4,3.8 		"/>
		<polygon class="st2" points="68.5,4.9 66.4,4.9 65.3,6.8 66.4,8.8 68.5,8.8 69.5,6.8 		"/>
		<polygon class="st2" points="72.4,1.8 73.4,0 69.4,0 70.3,1.8 		"/>
		<polygon class="st2" points="70.3,2.9 69.3,4.8 70.3,6.8 72.4,6.8 73.5,4.8 72.4,2.9 		"/>
		<polygon class="st2" points="70.3,7.9 69.3,9.8 73.5,9.8 72.4,7.9 		"/>
		<polygon class="st2" points="60.1,3.8 61.2,1.8 60.1,0 58,0 57,1.8 58,3.8 		"/>
		<polygon class="st2" points="60.1,4.9 58,4.9 57,6.8 58,8.8 60.1,8.8 61.2,6.8 		"/>
		<polygon class="st2" points="64,1.8 65,0 61,0 62,1.8 		"/>
		<polygon class="st2" points="62,2.9 60.9,4.8 62,6.8 64,6.8 65.1,4.8 64,2.9 		"/>
		<polygon class="st2" points="62,7.9 60.9,9.8 65.1,9.8 64,7.9 		"/>
		<polygon class="st2" points="51.7,3.8 52.8,1.8 51.8,0 49.6,0 48.6,1.8 49.7,3.8 		"/>
		<polygon class="st2" points="51.7,4.9 49.7,4.9 48.6,6.8 49.7,8.8 51.7,8.8 52.8,6.8 		"/>
		<polygon class="st2" points="55.7,1.8 56.6,0 52.6,0 53.6,1.8 		"/>
		<polygon class="st2" points="53.6,2.9 52.5,4.8 53.6,6.8 55.7,6.8 56.7,4.8 55.7,2.9 		"/>
		<polygon class="st2" points="53.6,7.9 52.5,9.8 56.7,9.8 55.7,7.9 		"/>
		<polygon class="st2" points="43.4,3.8 44.4,1.8 43.4,0 41.2,0 40.2,1.8 41.3,3.8 		"/>
		<polygon class="st2" points="43.4,4.9 41.3,4.9 40.2,6.8 41.3,8.8 43.4,8.8 44.4,6.8 		"/>
		<polygon class="st2" points="47.3,1.8 48.3,0 44.3,0 45.2,1.8 		"/>
		<polygon class="st2" points="45.2,2.9 44.2,4.8 45.2,6.8 47.3,6.8 48.3,4.8 47.3,2.9 		"/>
		<polygon class="st2" points="45.2,7.9 44.2,9.8 48.3,9.8 47.3,7.9 		"/>
	</g>
	<g>
		<g>
			<g>
				<path class="st6" d="M128.4,50.6H7.7c-0.3,0-0.6-0.3-0.6-0.6V23.5v-7.6c0-0.3,0.3-0.6,0.6-0.6h120.7c0.3,0,0.6,0.3,0.6,0.6V50
					C129,50.3,128.8,50.6,128.4,50.6z"/>
				<path class="st7" d="M128.2,20.9v-4.6c0-0.3-0.3-0.6-0.6-0.6H127h-0.4c-0.1-0.2-0.3-0.4-0.5-0.4h-2.5c-0.2,0-0.4,0.2-0.5,0.4
					h-13.5c-0.1-0.2-0.3-0.4-0.5-0.4h-2.5c-0.2,0-0.4,0.2-0.5,0.4H89.7c-0.1-0.2-0.3-0.4-0.5-0.4h-2.5c-0.2,0-0.4,0.2-0.5,0.4H69.9
					c-0.1-0.2-0.3-0.4-0.5-0.4h-2.5c-0.2,0-0.4,0.2-0.5,0.4H50.1c-0.1-0.2-0.3-0.4-0.5-0.4H47c-0.2,0-0.4,0.2-0.5,0.4H30.3
					c-0.1-0.2-0.3-0.4-0.5-0.4h-2.5c-0.2,0-0.4,0.2-0.5,0.4H13.8c-0.1-0.2-0.3-0.4-0.5-0.4h-2.5c-0.2,0-0.4,0.2-0.5,0.4H9.4H9.2H8.6
					C8.3,15.7,8,16,8,16.3v4.6c0,0.3,0.2,0.6,0.5,0.6v0.2C8.2,21.8,8,22,8,22.3v3.2c0,0.3,0.2,0.6,0.5,0.6v0.2
					c-0.3,0-0.5,0.3-0.5,0.6v3.2c0,0.3,0.2,0.6,0.5,0.6v0.2c-0.3,0-0.5,0.3-0.5,0.6v3.2c0,0.3,0.2,0.6,0.5,0.6v0.2
					c-0.3,0-0.5,0.3-0.5,0.6v3.2c0,0.3,0.2,0.6,0.5,0.6v0.2c-0.3,0-0.5,0.3-0.5,0.6v3.2c0,0.3,0.2,0.6,0.5,0.6v0.2
					c-0.3,0-0.5,0.3-0.5,0.6V50c0,0.3,0.3,0.6,0.6,0.6h0.5h0.2h117.1h0.4h0.6c0.3,0,0.6-0.3,0.6-0.6v-4.7c0-0.3-0.3-0.6-0.6-0.6
					v-0.2c0.3,0,0.6-0.3,0.6-0.6v-3.2c0-0.3-0.3-0.6-0.6-0.6v-0.2c0.3,0,0.6-0.3,0.6-0.6v-3.2c0-0.3-0.3-0.6-0.6-0.6v-0.2
					c0.3,0,0.6-0.3,0.6-0.6v-3.2c0-0.3-0.3-0.6-0.6-0.6v-0.2c0.3,0,0.6-0.3,0.6-0.6v-3.2c0-0.3-0.3-0.6-0.6-0.6v-0.2
					c0.3,0,0.6-0.3,0.6-0.6v-3.2c0-0.3-0.3-0.6-0.6-0.6v-0.2C127.9,21.5,128.2,21.2,128.2,20.9z"/>
			</g>
			<g>
				<g>
					<g>
						<polygon class="st2" points="27.8,25.3 27.8,16.9 21.6,16.9 21.6,16 15.7,16 15.7,16.9 9.4,16.9 9.4,25.3 9.9,25.3 9.9,27.4 
							9.4,27.4 9.4,31.1 27.8,31.1 27.8,27.4 27.3,27.4 27.3,25.3 						"/>
						<rect x="15.7" y="15.7" class="st8" width="5.9" height="0.5"/>
					</g>
					<g>
						<polygon class="st9" points="13.4,16.9 9.4,16.9 9.4,20.3 13.4,20.3 13.4,18.6 15.7,18.6 15.7,16.9 						"/>
						<g>
							<ellipse class="st10" cx="10.5" cy="18" rx="0.7" ry="0.7"/>
						</g>
						<g>
							<ellipse class="st10" cx="12.4" cy="18" rx="0.7" ry="0.7"/>
						</g>
					</g>
					<g>
						<polygon class="st9" points="23.9,16.9 27.8,16.9 27.8,20.3 23.9,20.3 23.9,18.6 21.6,18.6 21.6,16.9 						"/>
						<g>
							<ellipse class="st10" cx="26.8" cy="18" rx="0.7" ry="0.7"/>
						</g>
						<g>
							<ellipse class="st10" cx="24.8" cy="18" rx="0.7" ry="0.7"/>
						</g>
					</g>
				</g>
				<g>
					<g>
						<polygon class="st2" points="47.6,25.3 47.6,16.9 41.4,16.9 41.4,16 35.5,16 35.5,16.9 29.2,16.9 29.2,25.3 29.7,25.3 
							29.7,27.4 29.2,27.4 29.2,31.1 47.6,31.1 47.6,27.4 47.1,27.4 47.1,25.3 						"/>
						<rect x="35.5" y="15.7" class="st8" width="5.9" height="0.5"/>
					</g>
					<g>
						<polygon class="st9" points="33.2,16.9 29.2,16.9 29.2,20.3 33.2,20.3 33.2,18.6 35.5,18.6 35.5,16.9 						"/>
						<g>
							<ellipse class="st10" cx="30.3" cy="18" rx="0.7" ry="0.7"/>
						</g>
						<g>
							<ellipse class="st10" cx="32.3" cy="18" rx="0.7" ry="0.7"/>
						</g>
					</g>
					<g>
						<polygon class="st9" points="43.7,16.9 47.6,16.9 47.6,20.3 43.7,20.3 43.7,18.6 41.4,18.6 41.4,16.9 						"/>
						<g>
							<ellipse class="st10" cx="46.6" cy="18" rx="0.7" ry="0.7"/>
						</g>
						<g>
							<ellipse class="st10" cx="44.6" cy="18" rx="0.7" ry="0.7"/>
						</g>
					</g>
				</g>
				<g>
					<g>
						<polygon class="st2" points="67.4,25.3 67.4,16.9 61.2,16.9 61.2,16 55.3,16 55.3,16.9 49,16.9 49,25.3 49.5,25.3 49.5,27.4 
							49,27.4 49,31.1 67.4,31.1 67.4,27.4 66.9,27.4 66.9,25.3 						"/>
						<rect x="55.3" y="15.7" class="st8" width="5.9" height="0.5"/>
					</g>
					<g>
						<polygon class="st9" points="53,16.9 49,16.9 49,20.3 53,20.3 53,18.6 55.3,18.6 55.3,16.9 						"/>
						<g>
							<ellipse class="st10" cx="50.1" cy="18" rx="0.7" ry="0.7"/>
						</g>
						<g>
							<ellipse class="st10" cx="52.1" cy="18" rx="0.7" ry="0.7"/>
						</g>
					</g>
					<g>
						<polygon class="st9" points="63.5,16.9 67.4,16.9 67.4,20.3 63.5,20.3 63.5,18.6 61.2,18.6 61.2,16.9 						"/>
						<g>
							<ellipse class="st10" cx="66.4" cy="18" rx="0.7" ry="0.7"/>
						</g>
						<g>
							<ellipse class="st10" cx="64.4" cy="18" rx="0.7" ry="0.7"/>
						</g>
					</g>
				</g>
				<g>
					<g>
						<polygon class="st2" points="87.2,25.3 87.2,16.9 81,16.9 81,16 75.1,16 75.1,16.9 68.8,16.9 68.8,25.3 69.4,25.3 69.4,27.4 
							68.8,27.4 68.8,31.1 87.2,31.1 87.2,27.4 86.7,27.4 86.7,25.3 						"/>
						<rect x="75.1" y="15.7" class="st8" width="5.9" height="0.5"/>
					</g>
					<g>
						<polygon class="st9" points="72.8,16.9 68.8,16.9 68.8,20.3 72.8,20.3 72.8,18.6 75.1,18.6 75.1,16.9 						"/>
						<g>
							<ellipse class="st10" cx="69.9" cy="18" rx="0.7" ry="0.7"/>
						</g>
						<g>
							<ellipse class="st10" cx="71.9" cy="18" rx="0.7" ry="0.7"/>
						</g>
					</g>
					<g>
						<polygon class="st9" points="83.3,16.9 87.2,16.9 87.2,20.3 83.3,20.3 83.3,18.6 81,18.6 81,16.9 						"/>
						<g>
							<ellipse class="st10" cx="86.2" cy="18" rx="0.7" ry="0.7"/>
						</g>
						<g>
							<ellipse class="st10" cx="84.2" cy="18" rx="0.7" ry="0.7"/>
						</g>
					</g>
				</g>
				<g>
					<g>
						<polygon class="st2" points="107,25.3 107,16.9 100.8,16.9 100.8,16 94.9,16 94.9,16.9 88.6,16.9 88.6,25.3 89.2,25.3 
							89.2,27.4 88.6,27.4 88.6,31.1 107,31.1 107,27.4 106.5,27.4 106.5,25.3 						"/>
						<rect x="94.9" y="15.7" class="st8" width="5.9" height="0.5"/>
					</g>
					<g>
						<polygon class="st9" points="92.6,16.9 88.6,16.9 88.6,20.3 92.6,20.3 92.6,18.6 94.9,18.6 94.9,16.9 						"/>
						<g>
							<ellipse class="st10" cx="89.7" cy="18" rx="0.7" ry="0.7"/>
						</g>
						<g>
							<ellipse class="st10" cx="91.7" cy="18" rx="0.7" ry="0.7"/>
						</g>
					</g>
					<g>
						<polygon class="st9" points="103.1,16.9 107,16.9 107,20.3 103.1,20.3 103.1,18.6 100.8,18.6 100.8,16.9 						"/>
						<g>
							<ellipse class="st10" cx="106" cy="18" rx="0.7" ry="0.7"/>
						</g>
						<g>
							<ellipse class="st10" cx="104" cy="18" rx="0.7" ry="0.7"/>
						</g>
					</g>
				</g>
				<g>
					<g>
						<polygon class="st2" points="126.8,25.3 126.8,16.9 120.6,16.9 120.6,16 114.7,16 114.7,16.9 108.4,16.9 108.4,25.3 109,25.3 
							109,27.4 108.4,27.4 108.4,31.1 126.8,31.1 126.8,27.4 126.3,27.4 126.3,25.3 						"/>
						<rect x="114.7" y="15.7" class="st8" width="5.9" height="0.5"/>
					</g>
					<g>
						<polygon class="st9" points="112.4,16.9 108.4,16.9 108.4,20.3 112.4,20.3 112.4,18.6 114.7,18.6 114.7,16.9 						"/>
						<g>
							<ellipse class="st10" cx="109.5" cy="18" rx="0.7" ry="0.7"/>
						</g>
						<g>
							<ellipse class="st10" cx="111.5" cy="18" rx="0.7" ry="0.7"/>
						</g>
					</g>
					<g>
						<polygon class="st9" points="122.9,16.9 126.8,16.9 126.8,20.3 122.9,20.3 122.9,18.6 120.6,18.6 120.6,16.9 						"/>
						<g>
							<ellipse class="st10" cx="125.8" cy="18" rx="0.7" ry="0.7"/>
						</g>
						<g>
							<ellipse class="st10" cx="123.8" cy="18" rx="0.7" ry="0.7"/>
						</g>
					</g>
				</g>
			</g>
			<g>
				<g>
					<g>
						<polygon class="st2" points="27.8,41.1 27.8,49.4 21.6,49.4 21.6,50.4 15.7,50.4 15.7,49.4 9.4,49.4 9.4,41.1 9.9,41.1 
							9.9,38.9 9.4,38.9 9.4,35.2 27.8,35.2 27.8,38.9 27.3,38.9 27.3,41.1 						"/>
						<rect x="15.7" y="50.1" class="st8" width="5.9" height="0.5"/>
					</g>
					<g>
						<polygon class="st9" points="13.4,49.4 9.4,49.4 9.4,46 13.4,46 13.4,47.8 15.7,47.8 15.7,49.4 						"/>
						<g>
							<ellipse class="st10" cx="10.5" cy="48.3" rx="0.7" ry="0.7"/>
						</g>
						<g>
							<ellipse class="st10" cx="12.4" cy="48.3" rx="0.7" ry="0.7"/>
						</g>
					</g>
					<g>
						<polygon class="st9" points="23.9,49.4 27.8,49.4 27.8,46 23.9,46 23.9,47.8 21.6,47.8 21.6,49.4 						"/>
						<g>
							<ellipse class="st10" cx="26.8" cy="48.3" rx="0.7" ry="0.7"/>
						</g>
						<g>
							<ellipse class="st10" cx="24.8" cy="48.3" rx="0.7" ry="0.7"/>
						</g>
					</g>
				</g>
				<g>
					<g>
						<polygon class="st2" points="47.6,41.1 47.6,49.4 41.4,49.4 41.4,50.4 35.5,50.4 35.5,49.4 29.2,49.4 29.2,41.1 29.7,41.1 
							29.7,38.9 29.2,38.9 29.2,35.2 47.6,35.2 47.6,38.9 47.1,38.9 47.1,41.1 						"/>
						<rect x="35.5" y="50.1" class="st8" width="5.9" height="0.5"/>
					</g>
					<g>
						<polygon class="st9" points="33.2,49.4 29.2,49.4 29.2,46 33.2,46 33.2,47.8 35.5,47.8 35.5,49.4 						"/>
						<g>
							<ellipse class="st10" cx="30.3" cy="48.3" rx="0.7" ry="0.7"/>
						</g>
						<g>
							<ellipse class="st10" cx="32.3" cy="48.3" rx="0.7" ry="0.7"/>
						</g>
					</g>
					<g>
						<polygon class="st9" points="43.7,49.4 47.6,49.4 47.6,46 43.7,46 43.7,47.8 41.4,47.8 41.4,49.4 						"/>
						<g>
							<ellipse class="st10" cx="46.6" cy="48.3" rx="0.7" ry="0.7"/>
						</g>
						<g>
							<ellipse class="st10" cx="44.6" cy="48.3" rx="0.7" ry="0.7"/>
						</g>
					</g>
				</g>
				<g>
					<g>
						<polygon class="st2" points="67.4,41.1 67.4,49.4 61.2,49.4 61.2,50.4 55.3,50.4 55.3,49.4 49,49.4 49,41.1 49.5,41.1 
							49.5,38.9 49,38.9 49,35.2 67.4,35.2 67.4,38.9 66.9,38.9 66.9,41.1 						"/>
						<rect x="55.3" y="50.1" class="st8" width="5.9" height="0.5"/>
					</g>
					<g>
						<polygon class="st9" points="53,49.4 49,49.4 49,46 53,46 53,47.8 55.3,47.8 55.3,49.4 						"/>
						<g>
							<ellipse class="st10" cx="50.1" cy="48.3" rx="0.7" ry="0.7"/>
						</g>
						<g>
							<ellipse class="st10" cx="52.1" cy="48.3" rx="0.7" ry="0.7"/>
						</g>
					</g>
					<g>
						<polygon class="st9" points="63.5,49.4 67.4,49.4 67.4,46 63.5,46 63.5,47.8 61.2,47.8 61.2,49.4 						"/>
						<g>
							<ellipse class="st10" cx="66.4" cy="48.3" rx="0.7" ry="0.7"/>
						</g>
						<g>
							<ellipse class="st10" cx="64.4" cy="48.3" rx="0.7" ry="0.7"/>
						</g>
					</g>
				</g>
				<g>
					<g>
						<polygon class="st2" points="87.2,41.1 87.2,49.4 81,49.4 81,50.4 75.1,50.4 75.1,49.4 68.8,49.4 68.8,41.1 69.4,41.1 
							69.4,38.9 68.8,38.9 68.8,35.2 87.2,35.2 87.2,38.9 86.7,38.9 86.7,41.1 						"/>
						<rect x="75.1" y="50.1" class="st8" width="5.9" height="0.5"/>
					</g>
					<g>
						<polygon class="st9" points="72.8,49.4 68.8,49.4 68.8,46 72.8,46 72.8,47.8 75.1,47.8 75.1,49.4 						"/>
						<g>
							<ellipse class="st10" cx="69.9" cy="48.3" rx="0.7" ry="0.7"/>
						</g>
						<g>
							<ellipse class="st10" cx="71.9" cy="48.3" rx="0.7" ry="0.7"/>
						</g>
					</g>
					<g>
						<polygon class="st9" points="83.3,49.4 87.2,49.4 87.2,46 83.3,46 83.3,47.8 81,47.8 81,49.4 						"/>
						<g>
							<ellipse class="st10" cx="86.2" cy="48.3" rx="0.7" ry="0.7"/>
						</g>
						<g>
							<ellipse class="st10" cx="84.2" cy="48.3" rx="0.7" ry="0.7"/>
						</g>
					</g>
				</g>
				<g>
					<g>
						<polygon class="st2" points="107,41.1 107,49.4 100.8,49.4 100.8,50.4 94.9,50.4 94.9,49.4 88.6,49.4 88.6,41.1 89.2,41.1 
							89.2,38.9 88.6,38.9 88.6,35.2 107,35.2 107,38.9 106.5,38.9 106.5,41.1 						"/>
						<rect x="94.9" y="50.1" class="st8" width="5.9" height="0.5"/>
					</g>
					<g>
						<polygon class="st9" points="92.6,49.4 88.6,49.4 88.6,46 92.6,46 92.6,47.8 94.9,47.8 94.9,49.4 						"/>
						<g>
							<ellipse class="st10" cx="89.7" cy="48.3" rx="0.7" ry="0.7"/>
						</g>
						<g>
							<ellipse class="st10" cx="91.7" cy="48.3" rx="0.7" ry="0.7"/>
						</g>
					</g>
					<g>
						<polygon class="st9" points="103.1,49.4 107,49.4 107,46 103.1,46 103.1,47.8 100.8,47.8 100.8,49.4 						"/>
						<g>
							<ellipse class="st10" cx="106" cy="48.3" rx="0.7" ry="0.7"/>
						</g>
						<g>
							<ellipse class="st10" cx="104" cy="48.3" rx="0.7" ry="0.7"/>
						</g>
					</g>
				</g>
				<g>
					<g>
						<polygon class="st2" points="126.8,41.1 126.8,49.4 120.6,49.4 120.6,50.4 114.7,50.4 114.7,49.4 108.4,49.4 108.4,41.1 
							109,41.1 109,38.9 108.4,38.9 108.4,35.2 126.8,35.2 126.8,38.9 126.3,38.9 126.3,41.1 						"/>
						<rect x="114.7" y="50.1" class="st8" width="5.9" height="0.5"/>
					</g>
					<g>
						<polygon class="st9" points="112.4,49.4 108.4,49.4 108.4,46 112.4,46 112.4,47.8 114.7,47.8 114.7,49.4 						"/>
						<g>
							<ellipse class="st10" cx="109.5" cy="48.3" rx="0.7" ry="0.7"/>
						</g>
						<g>
							<ellipse class="st10" cx="111.5" cy="48.3" rx="0.7" ry="0.7"/>
						</g>
					</g>
					<g>
						<polygon class="st9" points="122.9,49.4 126.8,49.4 126.8,46 122.9,46 122.9,47.8 120.6,47.8 120.6,49.4 						"/>
						<g>
							<ellipse class="st10" cx="125.8" cy="48.3" rx="0.7" ry="0.7"/>
						</g>
						<g>
							<ellipse class="st10" cx="123.8" cy="48.3" rx="0.7" ry="0.7"/>
						</g>
					</g>
				</g>
			</g>
		</g>
		<g>
			<g>
				<path class="st6" d="M252,50.6H131.3c-0.3,0-0.6-0.3-0.6-0.6V23.5v-7.6c0-0.3,0.3-0.6,0.6-0.6H252c0.3,0,0.6,0.3,0.6,0.6V50
					C252.7,50.3,252.4,50.6,252,50.6z"/>
				<path class="st7" d="M251.8,20.9v-4.6c0-0.3-0.3-0.6-0.6-0.6h-0.6h-0.4c-0.1-0.2-0.3-0.4-0.5-0.4h-2.5c-0.2,0-0.4,0.2-0.5,0.4
					h-13.5c-0.1-0.2-0.3-0.4-0.5-0.4h-2.5c-0.2,0-0.4,0.2-0.5,0.4h-16.2c-0.1-0.2-0.3-0.4-0.5-0.4h-2.5c-0.2,0-0.4,0.2-0.5,0.4
					h-16.2c-0.1-0.2-0.3-0.4-0.5-0.4h-2.5c-0.2,0-0.4,0.2-0.5,0.4h-16.2c-0.1-0.2-0.3-0.4-0.5-0.4h-2.5c-0.2,0-0.4,0.2-0.5,0.4
					h-16.2c-0.1-0.2-0.3-0.4-0.5-0.4h-2.5c-0.2,0-0.4,0.2-0.5,0.4h-12.9c-0.1-0.2-0.3-0.4-0.5-0.4h-2.5c-0.2,0-0.4,0.2-0.5,0.4H133
					h-0.2h-0.5c-0.3,0-0.6,0.3-0.6,0.6v4.6c0,0.3,0.2,0.6,0.5,0.6v0.2c-0.3,0-0.5,0.3-0.5,0.6v3.2c0,0.3,0.2,0.6,0.5,0.6v0.2
					c-0.3,0-0.5,0.3-0.5,0.6v3.2c0,0.3,0.2,0.6,0.5,0.6v0.2c-0.3,0-0.5,0.3-0.5,0.6v3.2c0,0.3,0.2,0.6,0.5,0.6v0.2
					c-0.3,0-0.5,0.3-0.5,0.6v3.2c0,0.3,0.2,0.6,0.5,0.6v0.2c-0.3,0-0.5,0.3-0.5,0.6v3.2c0,0.3,0.2,0.6,0.5,0.6v0.2
					c-0.3,0-0.5,0.3-0.5,0.6V50c0,0.3,0.3,0.6,0.6,0.6h0.5h0.2h117.1h0.4h0.6c0.3,0,0.6-0.3,0.6-0.6v-4.7c0-0.3-0.3-0.6-0.6-0.6
					v-0.2c0.3,0,0.6-0.3,0.6-0.6v-3.2c0-0.3-0.3-0.6-0.6-0.6v-0.2c0.3,0,0.6-0.3,0.6-0.6v-3.2c0-0.3-0.3-0.6-0.6-0.6v-0.2
					c0.3,0,0.6-0.3,0.6-0.6v-3.2c0-0.3-0.3-0.6-0.6-0.6v-0.2c0.3,0,0.6-0.3,0.6-0.6v-3.2c0-0.3-0.3-0.6-0.6-0.6v-0.2
					c0.3,0,0.6-0.3,0.6-0.6v-3.2c0-0.3-0.3-0.6-0.6-0.6v-0.2C251.6,21.5,251.8,21.2,251.8,20.9z"/>
			</g>
			<g>
				<g>
					<g>
						<polygon class="st2" points="151.4,25.3 151.4,16.9 145.2,16.9 145.2,16 139.3,16 139.3,16.9 133.1,16.9 133.1,25.3 
							133.6,25.3 133.6,27.4 133.1,27.4 133.1,31.1 151.4,31.1 151.4,27.4 150.9,27.4 150.9,25.3 						"/>
						<rect x="139.3" y="15.7" class="st8" width="5.9" height="0.5"/>
					</g>
					<g>
						<polygon class="st9" points="137,16.9 133.1,16.9 133.1,20.3 137,20.3 137,18.6 139.3,18.6 139.3,16.9 						"/>
						<g>
							<ellipse class="st10" cx="134.1" cy="18" rx="0.7" ry="0.7"/>
						</g>
						<g>
							<ellipse class="st10" cx="136.1" cy="18" rx="0.7" ry="0.7"/>
						</g>
					</g>
					<g>
						<polygon class="st9" points="147.5,16.9 151.4,16.9 151.4,20.3 147.5,20.3 147.5,18.6 145.2,18.6 145.2,16.9 						"/>
						<g>
							<ellipse class="st10" cx="150.4" cy="18" rx="0.7" ry="0.7"/>
						</g>
						<g>
							<ellipse class="st10" cx="148.4" cy="18" rx="0.7" ry="0.7"/>
						</g>
					</g>
				</g>
				<g>
					<g>
						<polygon class="st2" points="171.2,25.3 171.2,16.9 165,16.9 165,16 159.1,16 159.1,16.9 152.9,16.9 152.9,25.3 153.4,25.3 
							153.4,27.4 152.9,27.4 152.9,31.1 171.2,31.1 171.2,27.4 170.7,27.4 170.7,25.3 						"/>
						<rect x="159.1" y="15.7" class="st8" width="5.9" height="0.5"/>
					</g>
					<g>
						<polygon class="st9" points="156.8,16.9 152.9,16.9 152.9,20.3 156.8,20.3 156.8,18.6 159.1,18.6 159.1,16.9 						"/>
						<g>
							<ellipse class="st10" cx="153.9" cy="18" rx="0.7" ry="0.7"/>
						</g>
						<g>
							<ellipse class="st10" cx="155.9" cy="18" rx="0.7" ry="0.7"/>
						</g>
					</g>
					<g>
						<polygon class="st9" points="167.3,16.9 171.2,16.9 171.2,20.3 167.3,20.3 167.3,18.6 165,18.6 165,16.9 						"/>
						<g>
							<ellipse class="st10" cx="170.2" cy="18" rx="0.7" ry="0.7"/>
						</g>
						<g>
							<ellipse class="st10" cx="168.2" cy="18" rx="0.7" ry="0.7"/>
						</g>
					</g>
				</g>
				<g>
					<g>
						<polygon class="st2" points="191,25.3 191,16.9 184.8,16.9 184.8,16 178.9,16 178.9,16.9 172.7,16.9 172.7,25.3 173.2,25.3 
							173.2,27.4 172.7,27.4 172.7,31.1 191,31.1 191,27.4 190.5,27.4 190.5,25.3 						"/>
						<rect x="178.9" y="15.7" class="st8" width="5.9" height="0.5"/>
					</g>
					<g>
						<polygon class="st9" points="176.6,16.9 172.7,16.9 172.7,20.3 176.6,20.3 176.6,18.6 178.9,18.6 178.9,16.9 						"/>
						<g>
							<ellipse class="st10" cx="173.7" cy="18" rx="0.7" ry="0.7"/>
						</g>
						<g>
							<ellipse class="st10" cx="175.7" cy="18" rx="0.7" ry="0.7"/>
						</g>
					</g>
					<g>
						<polygon class="st9" points="187.1,16.9 191,16.9 191,20.3 187.1,20.3 187.1,18.6 184.8,18.6 184.8,16.9 						"/>
						<g>
							<ellipse class="st10" cx="190" cy="18" rx="0.7" ry="0.7"/>
						</g>
						<g>
							<ellipse class="st10" cx="188" cy="18" rx="0.7" ry="0.7"/>
						</g>
					</g>
				</g>
				<g>
					<g>
						<polygon class="st2" points="210.9,25.3 210.9,16.9 204.6,16.9 204.6,16 198.7,16 198.7,16.9 192.5,16.9 192.5,25.3 193,25.3 
							193,27.4 192.5,27.4 192.5,31.1 210.9,31.1 210.9,27.4 210.3,27.4 210.3,25.3 						"/>
						<rect x="198.7" y="15.7" class="st8" width="5.9" height="0.5"/>
					</g>
					<g>
						<polygon class="st9" points="196.4,16.9 192.5,16.9 192.5,20.3 196.4,20.3 196.4,18.6 198.7,18.6 198.7,16.9 						"/>
						<g>
							<ellipse class="st10" cx="193.5" cy="18" rx="0.7" ry="0.7"/>
						</g>
						<g>
							<ellipse class="st10" cx="195.5" cy="18" rx="0.7" ry="0.7"/>
						</g>
					</g>
					<g>
						<polygon class="st9" points="206.9,16.9 210.9,16.9 210.9,20.3 206.9,20.3 206.9,18.6 204.6,18.6 204.6,16.9 						"/>
						<g>
							<ellipse class="st10" cx="209.8" cy="18" rx="0.7" ry="0.7"/>
						</g>
						<g>
							<ellipse class="st10" cx="207.8" cy="18" rx="0.7" ry="0.7"/>
						</g>
					</g>
				</g>
				<g>
					<g>
						<polygon class="st2" points="230.7,25.3 230.7,16.9 224.4,16.9 224.4,16 218.5,16 218.5,16.9 212.3,16.9 212.3,25.3 
							212.8,25.3 212.8,27.4 212.3,27.4 212.3,31.1 230.7,31.1 230.7,27.4 230.1,27.4 230.1,25.3 						"/>
						<rect x="218.5" y="15.7" class="st8" width="5.9" height="0.5"/>
					</g>
					<g>
						<polygon class="st9" points="216.2,16.9 212.3,16.9 212.3,20.3 216.2,20.3 216.2,18.6 218.5,18.6 218.5,16.9 						"/>
						<g>
							<ellipse class="st10" cx="213.3" cy="18" rx="0.7" ry="0.7"/>
						</g>
						<g>
							<ellipse class="st10" cx="215.3" cy="18" rx="0.7" ry="0.7"/>
						</g>
					</g>
					<g>
						<polygon class="st9" points="226.7,16.9 230.7,16.9 230.7,20.3 226.7,20.3 226.7,18.6 224.4,18.6 224.4,16.9 						"/>
						<g>
							<ellipse class="st10" cx="229.6" cy="18" rx="0.7" ry="0.7"/>
						</g>
						<g>
							<ellipse class="st10" cx="227.6" cy="18" rx="0.7" ry="0.7"/>
						</g>
					</g>
				</g>
				<g>
					<g>
						<polygon class="st2" points="250.5,25.3 250.5,16.9 244.2,16.9 244.2,16 238.3,16 238.3,16.9 232.1,16.9 232.1,25.3 
							232.6,25.3 232.6,27.4 232.1,27.4 232.1,31.1 250.5,31.1 250.5,27.4 250,27.4 250,25.3 						"/>
						<rect x="238.3" y="15.7" class="st8" width="5.9" height="0.5"/>
					</g>
					<g>
						<polygon class="st9" points="236,16.9 232.1,16.9 232.1,20.3 236,20.3 236,18.6 238.3,18.6 238.3,16.9 						"/>
						<g>
							<ellipse class="st10" cx="233.1" cy="18" rx="0.7" ry="0.7"/>
						</g>
						<g>
							<ellipse class="st10" cx="235.1" cy="18" rx="0.7" ry="0.7"/>
						</g>
					</g>
					<g>
						<polygon class="st9" points="246.5,16.9 250.5,16.9 250.5,20.3 246.5,20.3 246.5,18.6 244.2,18.6 244.2,16.9 						"/>
						<g>
							<ellipse class="st10" cx="249.4" cy="18" rx="0.7" ry="0.7"/>
						</g>
						<g>
							<ellipse class="st10" cx="247.4" cy="18" rx="0.7" ry="0.7"/>
						</g>
					</g>
				</g>
			</g>
			<g>
				<g>
					<g>
						<polygon class="st2" points="151.4,41.1 151.4,49.4 145.2,49.4 145.2,50.4 139.3,50.4 139.3,49.4 133.1,49.4 133.1,41.1 
							133.6,41.1 133.6,38.9 133.1,38.9 133.1,35.2 151.4,35.2 151.4,38.9 150.9,38.9 150.9,41.1 						"/>
						<rect x="139.3" y="50.1" class="st8" width="5.9" height="0.5"/>
					</g>
					<g>
						<polygon class="st9" points="137,49.4 133.1,49.4 133.1,46 137,46 137,47.8 139.3,47.8 139.3,49.4 						"/>
						<g>
							<ellipse class="st10" cx="134.1" cy="48.3" rx="0.7" ry="0.7"/>
						</g>
						<g>
							<ellipse class="st10" cx="136.1" cy="48.3" rx="0.7" ry="0.7"/>
						</g>
					</g>
					<g>
						<polygon class="st9" points="147.5,49.4 151.4,49.4 151.4,46 147.5,46 147.5,47.8 145.2,47.8 145.2,49.4 						"/>
						<g>
							<ellipse class="st10" cx="150.4" cy="48.3" rx="0.7" ry="0.7"/>
						</g>
						<g>
							<ellipse class="st10" cx="148.4" cy="48.3" rx="0.7" ry="0.7"/>
						</g>
					</g>
				</g>
				<g>
					<g>
						<polygon class="st2" points="171.2,41.1 171.2,49.4 165,49.4 165,50.4 159.1,50.4 159.1,49.4 152.9,49.4 152.9,41.1 
							153.4,41.1 153.4,38.9 152.9,38.9 152.9,35.2 171.2,35.2 171.2,38.9 170.7,38.9 170.7,41.1 						"/>
						<rect x="159.1" y="50.1" class="st8" width="5.9" height="0.5"/>
					</g>
					<g>
						<polygon class="st9" points="156.8,49.4 152.9,49.4 152.9,46 156.8,46 156.8,47.8 159.1,47.8 159.1,49.4 						"/>
						<g>
							<ellipse class="st10" cx="153.9" cy="48.3" rx="0.7" ry="0.7"/>
						</g>
						<g>
							<ellipse class="st10" cx="155.9" cy="48.3" rx="0.7" ry="0.7"/>
						</g>
					</g>
					<g>
						<polygon class="st9" points="167.3,49.4 171.2,49.4 171.2,46 167.3,46 167.3,47.8 165,47.8 165,49.4 						"/>
						<g>
							<ellipse class="st10" cx="170.2" cy="48.3" rx="0.7" ry="0.7"/>
						</g>
						<g>
							<ellipse class="st10" cx="168.2" cy="48.3" rx="0.7" ry="0.7"/>
						</g>
					</g>
				</g>
				<g>
					<g>
						<polygon class="st2" points="191,41.1 191,49.4 184.8,49.4 184.8,50.4 178.9,50.4 178.9,49.4 172.7,49.4 172.7,41.1 
							173.2,41.1 173.2,38.9 172.7,38.9 172.7,35.2 191,35.2 191,38.9 190.5,38.9 190.5,41.1 						"/>
						<rect x="178.9" y="50.1" class="st8" width="5.9" height="0.5"/>
					</g>
					<g>
						<polygon class="st9" points="176.6,49.4 172.7,49.4 172.7,46 176.6,46 176.6,47.8 178.9,47.8 178.9,49.4 						"/>
						<g>
							<ellipse class="st10" cx="173.7" cy="48.3" rx="0.7" ry="0.7"/>
						</g>
						<g>
							<ellipse class="st10" cx="175.7" cy="48.3" rx="0.7" ry="0.7"/>
						</g>
					</g>
					<g>
						<polygon class="st9" points="187.1,49.4 191,49.4 191,46 187.1,46 187.1,47.8 184.8,47.8 184.8,49.4 						"/>
						<g>
							<ellipse class="st10" cx="190" cy="48.3" rx="0.7" ry="0.7"/>
						</g>
						<g>
							<ellipse class="st10" cx="188" cy="48.3" rx="0.7" ry="0.7"/>
						</g>
					</g>
				</g>
				<g>
					<g>
						<polygon class="st2" points="210.9,41.1 210.9,49.4 204.6,49.4 204.6,50.4 198.7,50.4 198.7,49.4 192.5,49.4 192.5,41.1 
							193,41.1 193,38.9 192.5,38.9 192.5,35.2 210.9,35.2 210.9,38.9 210.3,38.9 210.3,41.1 						"/>
						<rect x="198.7" y="50.1" class="st8" width="5.9" height="0.5"/>
					</g>
					<g>
						<polygon class="st9" points="196.4,49.4 192.5,49.4 192.5,46 196.4,46 196.4,47.8 198.7,47.8 198.7,49.4 						"/>
						<g>
							<ellipse class="st10" cx="193.5" cy="48.3" rx="0.7" ry="0.7"/>
						</g>
						<g>
							<ellipse class="st10" cx="195.5" cy="48.3" rx="0.7" ry="0.7"/>
						</g>
					</g>
					<g>
						<polygon class="st9" points="206.9,49.4 210.9,49.4 210.9,46 206.9,46 206.9,47.8 204.6,47.8 204.6,49.4 						"/>
						<g>
							<ellipse class="st10" cx="209.8" cy="48.3" rx="0.7" ry="0.7"/>
						</g>
						<g>
							<ellipse class="st10" cx="207.8" cy="48.3" rx="0.7" ry="0.7"/>
						</g>
					</g>
				</g>
				<g>
					<g>
						<polygon class="st2" points="230.7,41.1 230.7,49.4 224.4,49.4 224.4,50.4 218.5,50.4 218.5,49.4 212.3,49.4 212.3,41.1 
							212.8,41.1 212.8,38.9 212.3,38.9 212.3,35.2 230.7,35.2 230.7,38.9 230.1,38.9 230.1,41.1 						"/>
						<rect x="218.5" y="50.1" class="st8" width="5.9" height="0.5"/>
					</g>
					<g>
						<polygon class="st9" points="216.2,49.4 212.3,49.4 212.3,46 216.2,46 216.2,47.8 218.5,47.8 218.5,49.4 						"/>
						<g>
							<ellipse class="st10" cx="213.3" cy="48.3" rx="0.7" ry="0.7"/>
						</g>
						<g>
							<ellipse class="st10" cx="215.3" cy="48.3" rx="0.7" ry="0.7"/>
						</g>
					</g>
					<g>
						<polygon class="st9" points="226.7,49.4 230.7,49.4 230.7,46 226.7,46 226.7,47.8 224.4,47.8 224.4,49.4 						"/>
						<g>
							<ellipse class="st10" cx="229.6" cy="48.3" rx="0.7" ry="0.7"/>
						</g>
						<g>
							<ellipse class="st10" cx="227.6" cy="48.3" rx="0.7" ry="0.7"/>
						</g>
					</g>
				</g>
				<g>
					<g>
						<polygon class="st2" points="250.5,41.1 250.5,49.4 244.2,49.4 244.2,50.4 238.3,50.4 238.3,49.4 232.1,49.4 232.1,41.1 
							232.6,41.1 232.6,38.9 232.1,38.9 232.1,35.2 250.5,35.2 250.5,38.9 250,38.9 250,41.1 						"/>
						<rect x="238.3" y="50.1" class="st8" width="5.9" height="0.5"/>
					</g>
					<g>
						<polygon class="st9" points="236,49.4 232.1,49.4 232.1,46 236,46 236,47.8 238.3,47.8 238.3,49.4 						"/>
						<g>
							<ellipse class="st10" cx="233.1" cy="48.3" rx="0.7" ry="0.7"/>
						</g>
						<g>
							<ellipse class="st10" cx="235.1" cy="48.3" rx="0.7" ry="0.7"/>
						</g>
					</g>
					<g>
						<polygon class="st9" points="246.5,49.4 250.5,49.4 250.5,46 246.5,46 246.5,47.8 244.2,47.8 244.2,49.4 						"/>
						<g>
							<ellipse class="st10" cx="249.4" cy="48.3" rx="0.7" ry="0.7"/>
						</g>
						<g>
							<ellipse class="st10" cx="247.4" cy="48.3" rx="0.7" ry="0.7"/>
						</g>
					</g>
				</g>
			</g>
		</g>
		<g>
			<g>
				<path class="st6" d="M375.8,50.6H255.1c-0.3,0-0.6-0.3-0.6-0.6V23.5v-7.6c0-0.3,0.3-0.6,0.6-0.6h120.7c0.3,0,0.6,0.3,0.6,0.6V50
					C376.5,50.3,376.2,50.6,375.8,50.6z"/>
				<path class="st7" d="M375.6,20.9v-4.6c0-0.3-0.3-0.6-0.6-0.6h-0.6H374c-0.1-0.2-0.3-0.4-0.5-0.4h-2.5c-0.2,0-0.4,0.2-0.5,0.4
					h-13.5c-0.1-0.2-0.3-0.4-0.5-0.4h-2.5c-0.2,0-0.4,0.2-0.5,0.4h-16.2c-0.1-0.2-0.3-0.4-0.5-0.4H334c-0.2,0-0.4,0.2-0.5,0.4h-16.2
					c-0.1-0.2-0.3-0.4-0.5-0.4h-2.5c-0.2,0-0.4,0.2-0.5,0.4h-16.2c-0.1-0.2-0.3-0.4-0.5-0.4h-2.5c-0.2,0-0.4,0.2-0.5,0.4h-16.2
					c-0.1-0.2-0.3-0.4-0.5-0.4h-2.5c-0.2,0-0.4,0.2-0.5,0.4h-12.9c-0.1-0.2-0.3-0.4-0.5-0.4h-2.5c-0.2,0-0.4,0.2-0.5,0.4h-0.8h-0.2
					H256c-0.3,0-0.6,0.3-0.6,0.6v4.6c0,0.3,0.2,0.6,0.5,0.6v0.2c-0.3,0-0.5,0.3-0.5,0.6v3.2c0,0.3,0.2,0.6,0.5,0.6v0.2
					c-0.3,0-0.5,0.3-0.5,0.6v3.2c0,0.3,0.2,0.6,0.5,0.6v0.2c-0.3,0-0.5,0.3-0.5,0.6v3.2c0,0.3,0.2,0.6,0.5,0.6v0.2
					c-0.3,0-0.5,0.3-0.5,0.6v3.2c0,0.3,0.2,0.6,0.5,0.6v0.2c-0.3,0-0.5,0.3-0.5,0.6v3.2c0,0.3,0.2,0.6,0.5,0.6v0.2
					c-0.3,0-0.5,0.3-0.5,0.6V50c0,0.3,0.3,0.6,0.6,0.6h0.5h0.2h117.1h0.4h0.6c0.3,0,0.6-0.3,0.6-0.6v-4.7c0-0.3-0.3-0.6-0.6-0.6
					v-0.2c0.3,0,0.6-0.3,0.6-0.6v-3.2c0-0.3-0.3-0.6-0.6-0.6v-0.2c0.3,0,0.6-0.3,0.6-0.6v-3.2c0-0.3-0.3-0.6-0.6-0.6v-0.2
					c0.3,0,0.6-0.3,0.6-0.6v-3.2c0-0.3-0.3-0.6-0.6-0.6v-0.2c0.3,0,0.6-0.3,0.6-0.6v-3.2c0-0.3-0.3-0.6-0.6-0.6v-0.2
					c0.3,0,0.6-0.3,0.6-0.6v-3.2c0-0.3-0.3-0.6-0.6-0.6v-0.2C375.4,21.5,375.6,21.2,375.6,20.9z"/>
			</g>
			<g>
				<g>
					<g>
						<polygon class="st2" points="275.2,25.3 275.2,16.9 269,16.9 269,16 263.1,16 263.1,16.9 256.8,16.9 256.8,25.3 257.4,25.3 
							257.4,27.4 256.8,27.4 256.8,31.1 275.2,31.1 275.2,27.4 274.7,27.4 274.7,25.3 						"/>
						<rect x="263.1" y="15.7" class="st8" width="5.9" height="0.5"/>
					</g>
					<g>
						<polygon class="st9" points="260.8,16.9 256.8,16.9 256.8,20.3 260.8,20.3 260.8,18.6 263.1,18.6 263.1,16.9 						"/>
						<g>
							<ellipse class="st10" cx="257.9" cy="18" rx="0.7" ry="0.7"/>
						</g>
						<g>
							<ellipse class="st10" cx="259.9" cy="18" rx="0.7" ry="0.7"/>
						</g>
					</g>
					<g>
						<polygon class="st9" points="271.3,16.9 275.2,16.9 275.2,20.3 271.3,20.3 271.3,18.6 269,18.6 269,16.9 						"/>
						<g>
							<ellipse class="st10" cx="274.2" cy="18" rx="0.7" ry="0.7"/>
						</g>
						<g>
							<ellipse class="st10" cx="272.2" cy="18" rx="0.7" ry="0.7"/>
						</g>
					</g>
				</g>
				<g>
					<g>
						<polygon class="st2" points="295,25.3 295,16.9 288.8,16.9 288.8,16 282.9,16 282.9,16.9 276.6,16.9 276.6,25.3 277.2,25.3 
							277.2,27.4 276.6,27.4 276.6,31.1 295,31.1 295,27.4 294.5,27.4 294.5,25.3 						"/>
						<rect x="282.9" y="15.7" class="st8" width="5.9" height="0.5"/>
					</g>
					<g>
						<polygon class="st9" points="280.6,16.9 276.6,16.9 276.6,20.3 280.6,20.3 280.6,18.6 282.9,18.6 282.9,16.9 						"/>
						<g>
							<ellipse class="st10" cx="277.7" cy="18" rx="0.7" ry="0.7"/>
						</g>
						<g>
							<ellipse class="st10" cx="279.7" cy="18" rx="0.7" ry="0.7"/>
						</g>
					</g>
					<g>
						<polygon class="st9" points="291.1,16.9 295,16.9 295,20.3 291.1,20.3 291.1,18.6 288.8,18.6 288.8,16.9 						"/>
						<g>
							<ellipse class="st10" cx="294" cy="18" rx="0.7" ry="0.7"/>
						</g>
						<g>
							<ellipse class="st10" cx="292" cy="18" rx="0.7" ry="0.7"/>
						</g>
					</g>
				</g>
				<g>
					<g>
						<polygon class="st2" points="314.8,25.3 314.8,16.9 308.6,16.9 308.6,16 302.7,16 302.7,16.9 296.5,16.9 296.5,25.3 297,25.3 
							297,27.4 296.5,27.4 296.5,31.1 314.8,31.1 314.8,27.4 314.3,27.4 314.3,25.3 						"/>
						<rect x="302.7" y="15.7" class="st8" width="5.9" height="0.5"/>
					</g>
					<g>
						<polygon class="st9" points="300.4,16.9 296.5,16.9 296.5,20.3 300.4,20.3 300.4,18.6 302.7,18.6 302.7,16.9 						"/>
						<g>
							<ellipse class="st10" cx="297.5" cy="18" rx="0.7" ry="0.7"/>
						</g>
						<g>
							<ellipse class="st10" cx="299.5" cy="18" rx="0.7" ry="0.7"/>
						</g>
					</g>
					<g>
						<polygon class="st9" points="310.9,16.9 314.8,16.9 314.8,20.3 310.9,20.3 310.9,18.6 308.6,18.6 308.6,16.9 						"/>
						<g>
							<ellipse class="st10" cx="313.8" cy="18" rx="0.7" ry="0.7"/>
						</g>
						<g>
							<ellipse class="st10" cx="311.8" cy="18" rx="0.7" ry="0.7"/>
						</g>
					</g>
				</g>
				<g>
					<g>
						<polygon class="st2" points="334.6,25.3 334.6,16.9 328.4,16.9 328.4,16 322.5,16 322.5,16.9 316.3,16.9 316.3,25.3 
							316.8,25.3 316.8,27.4 316.3,27.4 316.3,31.1 334.6,31.1 334.6,27.4 334.1,27.4 334.1,25.3 						"/>
						<rect x="322.5" y="15.7" class="st8" width="5.9" height="0.5"/>
					</g>
					<g>
						<polygon class="st9" points="320.2,16.9 316.3,16.9 316.3,20.3 320.2,20.3 320.2,18.6 322.5,18.6 322.5,16.9 						"/>
						<g>
							<ellipse class="st10" cx="317.3" cy="18" rx="0.7" ry="0.7"/>
						</g>
						<g>
							<ellipse class="st10" cx="319.3" cy="18" rx="0.7" ry="0.7"/>
						</g>
					</g>
					<g>
						<polygon class="st9" points="330.7,16.9 334.6,16.9 334.6,20.3 330.7,20.3 330.7,18.6 328.4,18.6 328.4,16.9 						"/>
						<g>
							<ellipse class="st10" cx="333.6" cy="18" rx="0.7" ry="0.7"/>
						</g>
						<g>
							<ellipse class="st10" cx="331.6" cy="18" rx="0.7" ry="0.7"/>
						</g>
					</g>
				</g>
				<g>
					<g>
						<polygon class="st2" points="354.4,25.3 354.4,16.9 348.2,16.9 348.2,16 342.3,16 342.3,16.9 336.1,16.9 336.1,25.3 
							336.6,25.3 336.6,27.4 336.1,27.4 336.1,31.1 354.4,31.1 354.4,27.4 353.9,27.4 353.9,25.3 						"/>
						<rect x="342.3" y="15.7" class="st8" width="5.9" height="0.5"/>
					</g>
					<g>
						<polygon class="st9" points="340,16.9 336.1,16.9 336.1,20.3 340,20.3 340,18.6 342.3,18.6 342.3,16.9 						"/>
						<g>
							<ellipse class="st10" cx="337.1" cy="18" rx="0.7" ry="0.7"/>
						</g>
						<g>
							<ellipse class="st10" cx="339.1" cy="18" rx="0.7" ry="0.7"/>
						</g>
					</g>
					<g>
						<polygon class="st9" points="350.5,16.9 354.4,16.9 354.4,20.3 350.5,20.3 350.5,18.6 348.2,18.6 348.2,16.9 						"/>
						<g>
							<ellipse class="st10" cx="353.4" cy="18" rx="0.7" ry="0.7"/>
						</g>
						<g>
							<ellipse class="st10" cx="351.4" cy="18" rx="0.7" ry="0.7"/>
						</g>
					</g>
				</g>
				<g>
					<g>
						<polygon class="st2" points="374.2,25.3 374.2,16.9 368,16.9 368,16 362.1,16 362.1,16.9 355.9,16.9 355.9,25.3 356.4,25.3 
							356.4,27.4 355.9,27.4 355.9,31.1 374.2,31.1 374.2,27.4 373.7,27.4 373.7,25.3 						"/>
						<rect x="362.1" y="15.7" class="st8" width="5.9" height="0.5"/>
					</g>
					<g>
						<polygon class="st9" points="359.8,16.9 355.9,16.9 355.9,20.3 359.8,20.3 359.8,18.6 362.1,18.6 362.1,16.9 						"/>
						<g>
							<ellipse class="st10" cx="356.9" cy="18" rx="0.7" ry="0.7"/>
						</g>
						<g>
							<ellipse class="st10" cx="358.9" cy="18" rx="0.7" ry="0.7"/>
						</g>
					</g>
					<g>
						<polygon class="st9" points="370.3,16.9 374.2,16.9 374.2,20.3 370.3,20.3 370.3,18.6 368,18.6 368,16.9 						"/>
						<g>
							<ellipse class="st10" cx="373.2" cy="18" rx="0.7" ry="0.7"/>
						</g>
						<g>
							<ellipse class="st10" cx="371.2" cy="18" rx="0.7" ry="0.7"/>
						</g>
					</g>
				</g>
			</g>
			<g>
				<g>
					<g>
						<polygon class="st2" points="275.2,41.1 275.2,49.4 269,49.4 269,50.4 263.1,50.4 263.1,49.4 256.8,49.4 256.8,41.1 
							257.4,41.1 257.4,38.9 256.8,38.9 256.8,35.2 275.2,35.2 275.2,38.9 274.7,38.9 274.7,41.1 						"/>
						<rect x="263.1" y="50.1" class="st8" width="5.9" height="0.5"/>
					</g>
					<g>
						<polygon class="st9" points="260.8,49.4 256.8,49.4 256.8,46 260.8,46 260.8,47.8 263.1,47.8 263.1,49.4 						"/>
						<g>
							<ellipse class="st10" cx="257.9" cy="48.3" rx="0.7" ry="0.7"/>
						</g>
						<g>
							<ellipse class="st10" cx="259.9" cy="48.3" rx="0.7" ry="0.7"/>
						</g>
					</g>
					<g>
						<polygon class="st9" points="271.3,49.4 275.2,49.4 275.2,46 271.3,46 271.3,47.8 269,47.8 269,49.4 						"/>
						<g>
							<ellipse class="st10" cx="274.2" cy="48.3" rx="0.7" ry="0.7"/>
						</g>
						<g>
							<ellipse class="st10" cx="272.2" cy="48.3" rx="0.7" ry="0.7"/>
						</g>
					</g>
				</g>
				<g>
					<g>
						<polygon class="st2" points="295,41.1 295,49.4 288.8,49.4 288.8,50.4 282.9,50.4 282.9,49.4 276.6,49.4 276.6,41.1 
							277.2,41.1 277.2,38.9 276.6,38.9 276.6,35.2 295,35.2 295,38.9 294.5,38.9 294.5,41.1 						"/>
						<rect x="282.9" y="50.1" class="st8" width="5.9" height="0.5"/>
					</g>
					<g>
						<polygon class="st9" points="280.6,49.4 276.6,49.4 276.6,46 280.6,46 280.6,47.8 282.9,47.8 282.9,49.4 						"/>
						<g>
							<ellipse class="st10" cx="277.7" cy="48.3" rx="0.7" ry="0.7"/>
						</g>
						<g>
							<ellipse class="st10" cx="279.7" cy="48.3" rx="0.7" ry="0.7"/>
						</g>
					</g>
					<g>
						<polygon class="st9" points="291.1,49.4 295,49.4 295,46 291.1,46 291.1,47.8 288.8,47.8 288.8,49.4 						"/>
						<g>
							<ellipse class="st10" cx="294" cy="48.3" rx="0.7" ry="0.7"/>
						</g>
						<g>
							<ellipse class="st10" cx="292" cy="48.3" rx="0.7" ry="0.7"/>
						</g>
					</g>
				</g>
				<g>
					<g>
						<polygon class="st2" points="314.8,41.1 314.8,49.4 308.6,49.4 308.6,50.4 302.7,50.4 302.7,49.4 296.5,49.4 296.5,41.1 
							297,41.1 297,38.9 296.5,38.9 296.5,35.2 314.8,35.2 314.8,38.9 314.3,38.9 314.3,41.1 						"/>
						<rect x="302.7" y="50.1" class="st8" width="5.9" height="0.5"/>
					</g>
					<g>
						<polygon class="st9" points="300.4,49.4 296.5,49.4 296.5,46 300.4,46 300.4,47.8 302.7,47.8 302.7,49.4 						"/>
						<g>
							<ellipse class="st10" cx="297.5" cy="48.3" rx="0.7" ry="0.7"/>
						</g>
						<g>
							<ellipse class="st10" cx="299.5" cy="48.3" rx="0.7" ry="0.7"/>
						</g>
					</g>
					<g>
						<polygon class="st9" points="310.9,49.4 314.8,49.4 314.8,46 310.9,46 310.9,47.8 308.6,47.8 308.6,49.4 						"/>
						<g>
							<ellipse class="st10" cx="313.8" cy="48.3" rx="0.7" ry="0.7"/>
						</g>
						<g>
							<ellipse class="st10" cx="311.8" cy="48.3" rx="0.7" ry="0.7"/>
						</g>
					</g>
				</g>
				<g>
					<g>
						<polygon class="st2" points="334.6,41.1 334.6,49.4 328.4,49.4 328.4,50.4 322.5,50.4 322.5,49.4 316.3,49.4 316.3,41.1 
							316.8,41.1 316.8,38.9 316.3,38.9 316.3,35.2 334.6,35.2 334.6,38.9 334.1,38.9 334.1,41.1 						"/>
						<rect x="322.5" y="50.1" class="st8" width="5.9" height="0.5"/>
					</g>
					<g>
						<polygon class="st9" points="320.2,49.4 316.3,49.4 316.3,46 320.2,46 320.2,47.8 322.5,47.8 322.5,49.4 						"/>
						<g>
							<ellipse class="st10" cx="317.3" cy="48.3" rx="0.7" ry="0.7"/>
						</g>
						<g>
							<ellipse class="st10" cx="319.3" cy="48.3" rx="0.7" ry="0.7"/>
						</g>
					</g>
					<g>
						<polygon class="st9" points="330.7,49.4 334.6,49.4 334.6,46 330.7,46 330.7,47.8 328.4,47.8 328.4,49.4 						"/>
						<g>
							<ellipse class="st10" cx="333.6" cy="48.3" rx="0.7" ry="0.7"/>
						</g>
						<g>
							<ellipse class="st10" cx="331.6" cy="48.3" rx="0.7" ry="0.7"/>
						</g>
					</g>
				</g>
				<g>
					<g>
						<polygon class="st2" points="354.4,41.1 354.4,49.4 348.2,49.4 348.2,50.4 342.3,50.4 342.3,49.4 336.1,49.4 336.1,41.1 
							336.6,41.1 336.6,38.9 336.1,38.9 336.1,35.2 354.4,35.2 354.4,38.9 353.9,38.9 353.9,41.1 						"/>
						<rect x="342.3" y="50.1" class="st8" width="5.9" height="0.5"/>
					</g>
					<g>
						<polygon class="st9" points="340,49.4 336.1,49.4 336.1,46 340,46 340,47.8 342.3,47.8 342.3,49.4 						"/>
						<g>
							<ellipse class="st10" cx="337.1" cy="48.3" rx="0.7" ry="0.7"/>
						</g>
						<g>
							<ellipse class="st10" cx="339.1" cy="48.3" rx="0.7" ry="0.7"/>
						</g>
					</g>
					<g>
						<polygon class="st9" points="350.5,49.4 354.4,49.4 354.4,46 350.5,46 350.5,47.8 348.2,47.8 348.2,49.4 						"/>
						<g>
							<ellipse class="st10" cx="353.4" cy="48.3" rx="0.7" ry="0.7"/>
						</g>
						<g>
							<ellipse class="st10" cx="351.4" cy="48.3" rx="0.7" ry="0.7"/>
						</g>
					</g>
				</g>
				<g>
					<g>
						<polygon class="st2" points="374.2,41.1 374.2,49.4 368,49.4 368,50.4 362.1,50.4 362.1,49.4 355.9,49.4 355.9,41.1 
							356.4,41.1 356.4,38.9 355.9,38.9 355.9,35.2 374.2,35.2 374.2,38.9 373.7,38.9 373.7,41.1 						"/>
						<rect x="362.1" y="50.1" class="st8" width="5.9" height="0.5"/>
					</g>
					<g>
						<polygon class="st9" points="359.8,49.4 355.9,49.4 355.9,46 359.8,46 359.8,47.8 362.1,47.8 362.1,49.4 						"/>
						<g>
							<ellipse class="st10" cx="356.9" cy="48.3" rx="0.7" ry="0.7"/>
						</g>
						<g>
							<ellipse class="st10" cx="358.9" cy="48.3" rx="0.7" ry="0.7"/>
						</g>
					</g>
					<g>
						<polygon class="st9" points="370.3,49.4 374.2,49.4 374.2,46 370.3,46 370.3,47.8 368,47.8 368,49.4 						"/>
						<g>
							<ellipse class="st10" cx="373.2" cy="48.3" rx="0.7" ry="0.7"/>
						</g>
						<g>
							<ellipse class="st10" cx="371.2" cy="48.3" rx="0.7" ry="0.7"/>
						</g>
					</g>
				</g>
			</g>
		</g>
		<g>
			<g>
				<path class="st6" d="M499.6,50.6H378.9c-0.3,0-0.6-0.3-0.6-0.6V23.5v-7.6c0-0.3,0.3-0.6,0.6-0.6h120.7c0.3,0,0.6,0.3,0.6,0.6V50
					C500.2,50.3,500,50.6,499.6,50.6z"/>
				<path class="st7" d="M499.4,20.9v-4.6c0-0.3-0.3-0.6-0.6-0.6h-0.6h-0.4c-0.1-0.2-0.3-0.4-0.5-0.4h-2.5c-0.2,0-0.4,0.2-0.5,0.4
					h-13.5c-0.1-0.2-0.3-0.4-0.5-0.4h-2.5c-0.2,0-0.4,0.2-0.5,0.4h-16.2c-0.1-0.2-0.3-0.4-0.5-0.4h-2.5c-0.2,0-0.4,0.2-0.5,0.4
					h-16.2c-0.1-0.2-0.3-0.4-0.5-0.4H438c-0.2,0-0.4,0.2-0.5,0.4h-16.2c-0.1-0.2-0.3-0.4-0.5-0.4h-2.5c-0.2,0-0.4,0.2-0.5,0.4h-16.2
					c-0.1-0.2-0.3-0.4-0.5-0.4h-2.5c-0.2,0-0.4,0.2-0.5,0.4H385c-0.1-0.2-0.3-0.4-0.5-0.4h-2.5c-0.2,0-0.4,0.2-0.5,0.4h-0.8h-0.2
					h-0.5c-0.3,0-0.6,0.3-0.6,0.6v4.6c0,0.3,0.2,0.6,0.5,0.6v0.2c-0.3,0-0.5,0.3-0.5,0.6v3.2c0,0.3,0.2,0.6,0.5,0.6v0.2
					c-0.3,0-0.5,0.3-0.5,0.6v3.2c0,0.3,0.2,0.6,0.5,0.6v0.2c-0.3,0-0.5,0.3-0.5,0.6v3.2c0,0.3,0.2,0.6,0.5,0.6v0.2
					c-0.3,0-0.5,0.3-0.5,0.6v3.2c0,0.3,0.2,0.6,0.5,0.6v0.2c-0.3,0-0.5,0.3-0.5,0.6v3.2c0,0.3,0.2,0.6,0.5,0.6v0.2
					c-0.3,0-0.5,0.3-0.5,0.6V50c0,0.3,0.3,0.6,0.6,0.6h0.5h0.2h117.1h0.4h0.6c0.3,0,0.6-0.3,0.6-0.6v-4.7c0-0.3-0.3-0.6-0.6-0.6
					v-0.2c0.3,0,0.6-0.3,0.6-0.6v-3.2c0-0.3-0.3-0.6-0.6-0.6v-0.2c0.3,0,0.6-0.3,0.6-0.6v-3.2c0-0.3-0.3-0.6-0.6-0.6v-0.2
					c0.3,0,0.6-0.3,0.6-0.6v-3.2c0-0.3-0.3-0.6-0.6-0.6v-0.2c0.3,0,0.6-0.3,0.6-0.6v-3.2c0-0.3-0.3-0.6-0.6-0.6v-0.2
					c0.3,0,0.6-0.3,0.6-0.6v-3.2c0-0.3-0.3-0.6-0.6-0.6v-0.2C499.1,21.5,499.4,21.2,499.4,20.9z"/>
			</g>
			<g>
				<g>
					<g>
						<polygon class="st2" points="399,25.3 399,16.9 392.8,16.9 392.8,16 386.9,16 386.9,16.9 380.6,16.9 380.6,25.3 381.1,25.3 
							381.1,27.4 380.6,27.4 380.6,31.1 399,31.1 399,27.4 398.5,27.4 398.5,25.3 						"/>
						<rect x="386.9" y="15.7" class="st8" width="5.9" height="0.5"/>
					</g>
					<g>
						<polygon class="st9" points="384.6,16.9 380.6,16.9 380.6,20.3 384.6,20.3 384.6,18.6 386.9,18.6 386.9,16.9 						"/>
						<g>
							<ellipse class="st10" cx="381.7" cy="18" rx="0.7" ry="0.7"/>
						</g>
						<g>
							<ellipse class="st10" cx="383.7" cy="18" rx="0.7" ry="0.7"/>
						</g>
					</g>
					<g>
						<polygon class="st9" points="395.1,16.9 399,16.9 399,20.3 395.1,20.3 395.1,18.6 392.8,18.6 392.8,16.9 						"/>
						<g>
							<ellipse class="st10" cx="398" cy="18" rx="0.7" ry="0.7"/>
						</g>
						<g>
							<ellipse class="st10" cx="396" cy="18" rx="0.7" ry="0.7"/>
						</g>
					</g>
				</g>
				<g>
					<g>
						<polygon class="st2" points="418.8,25.3 418.8,16.9 412.6,16.9 412.6,16 406.7,16 406.7,16.9 400.4,16.9 400.4,25.3 
							400.9,25.3 400.9,27.4 400.4,27.4 400.4,31.1 418.8,31.1 418.8,27.4 418.3,27.4 418.3,25.3 						"/>
						<rect x="406.7" y="15.7" class="st8" width="5.9" height="0.5"/>
					</g>
					<g>
						<polygon class="st9" points="404.4,16.9 400.4,16.9 400.4,20.3 404.4,20.3 404.4,18.6 406.7,18.6 406.7,16.9 						"/>
						<g>
							<ellipse class="st10" cx="401.5" cy="18" rx="0.7" ry="0.7"/>
						</g>
						<g>
							<ellipse class="st10" cx="403.5" cy="18" rx="0.7" ry="0.7"/>
						</g>
					</g>
					<g>
						<polygon class="st9" points="414.9,16.9 418.8,16.9 418.8,20.3 414.9,20.3 414.9,18.6 412.6,18.6 412.6,16.9 						"/>
						<g>
							<ellipse class="st10" cx="417.8" cy="18" rx="0.7" ry="0.7"/>
						</g>
						<g>
							<ellipse class="st10" cx="415.8" cy="18" rx="0.7" ry="0.7"/>
						</g>
					</g>
				</g>
				<g>
					<g>
						<polygon class="st2" points="438.6,25.3 438.6,16.9 432.4,16.9 432.4,16 426.5,16 426.5,16.9 420.2,16.9 420.2,25.3 
							420.8,25.3 420.8,27.4 420.2,27.4 420.2,31.1 438.6,31.1 438.6,27.4 438.1,27.4 438.1,25.3 						"/>
						<rect x="426.5" y="15.7" class="st8" width="5.9" height="0.5"/>
					</g>
					<g>
						<polygon class="st9" points="424.2,16.9 420.2,16.9 420.2,20.3 424.2,20.3 424.2,18.6 426.5,18.6 426.5,16.9 						"/>
						<g>
							<ellipse class="st10" cx="421.3" cy="18" rx="0.7" ry="0.7"/>
						</g>
						<g>
							<ellipse class="st10" cx="423.3" cy="18" rx="0.7" ry="0.7"/>
						</g>
					</g>
					<g>
						<polygon class="st9" points="434.7,16.9 438.6,16.9 438.6,20.3 434.7,20.3 434.7,18.6 432.4,18.6 432.4,16.9 						"/>
						<g>
							<ellipse class="st10" cx="437.6" cy="18" rx="0.7" ry="0.7"/>
						</g>
						<g>
							<ellipse class="st10" cx="435.6" cy="18" rx="0.7" ry="0.7"/>
						</g>
					</g>
				</g>
				<g>
					<g>
						<polygon class="st2" points="458.4,25.3 458.4,16.9 452.2,16.9 452.2,16 446.3,16 446.3,16.9 440,16.9 440,25.3 440.6,25.3 
							440.6,27.4 440,27.4 440,31.1 458.4,31.1 458.4,27.4 457.9,27.4 457.9,25.3 						"/>
						<rect x="446.3" y="15.7" class="st8" width="5.9" height="0.5"/>
					</g>
					<g>
						<polygon class="st9" points="444,16.9 440,16.9 440,20.3 444,20.3 444,18.6 446.3,18.6 446.3,16.9 						"/>
						<g>
							<ellipse class="st10" cx="441.1" cy="18" rx="0.7" ry="0.7"/>
						</g>
						<g>
							<ellipse class="st10" cx="443.1" cy="18" rx="0.7" ry="0.7"/>
						</g>
					</g>
					<g>
						<polygon class="st9" points="454.5,16.9 458.4,16.9 458.4,20.3 454.5,20.3 454.5,18.6 452.2,18.6 452.2,16.9 						"/>
						<g>
							<ellipse class="st10" cx="457.4" cy="18" rx="0.7" ry="0.7"/>
						</g>
						<g>
							<ellipse class="st10" cx="455.4" cy="18" rx="0.7" ry="0.7"/>
						</g>
					</g>
				</g>
				<g>
					<g>
						<polygon class="st2" points="478.2,25.3 478.2,16.9 472,16.9 472,16 466.1,16 466.1,16.9 459.9,16.9 459.9,25.3 460.4,25.3 
							460.4,27.4 459.9,27.4 459.9,31.1 478.2,31.1 478.2,27.4 477.7,27.4 477.7,25.3 						"/>
						<rect x="466.1" y="15.7" class="st8" width="5.9" height="0.5"/>
					</g>
					<g>
						<polygon class="st9" points="463.8,16.9 459.9,16.9 459.9,20.3 463.8,20.3 463.8,18.6 466.1,18.6 466.1,16.9 						"/>
						<g>
							<ellipse class="st10" cx="460.9" cy="18" rx="0.7" ry="0.7"/>
						</g>
						<g>
							<ellipse class="st10" cx="462.9" cy="18" rx="0.7" ry="0.7"/>
						</g>
					</g>
					<g>
						<polygon class="st9" points="474.3,16.9 478.2,16.9 478.2,20.3 474.3,20.3 474.3,18.6 472,18.6 472,16.9 						"/>
						<g>
							<ellipse class="st10" cx="477.2" cy="18" rx="0.7" ry="0.7"/>
						</g>
						<g>
							<ellipse class="st10" cx="475.2" cy="18" rx="0.7" ry="0.7"/>
						</g>
					</g>
				</g>
				<g>
					<g>
						<polygon class="st2" points="498,25.3 498,16.9 491.8,16.9 491.8,16 485.9,16 485.9,16.9 479.7,16.9 479.7,25.3 480.2,25.3 
							480.2,27.4 479.7,27.4 479.7,31.1 498,31.1 498,27.4 497.5,27.4 497.5,25.3 						"/>
						<rect x="485.9" y="15.7" class="st8" width="5.9" height="0.5"/>
					</g>
					<g>
						<polygon class="st9" points="483.6,16.9 479.7,16.9 479.7,20.3 483.6,20.3 483.6,18.6 485.9,18.6 485.9,16.9 						"/>
						<g>
							<ellipse class="st10" cx="480.7" cy="18" rx="0.7" ry="0.7"/>
						</g>
						<g>
							<ellipse class="st10" cx="482.7" cy="18" rx="0.7" ry="0.7"/>
						</g>
					</g>
					<g>
						<polygon class="st9" points="494.1,16.9 498,16.9 498,20.3 494.1,20.3 494.1,18.6 491.8,18.6 491.8,16.9 						"/>
						<g>
							<ellipse class="st10" cx="497" cy="18" rx="0.7" ry="0.7"/>
						</g>
						<g>
							<ellipse class="st10" cx="495" cy="18" rx="0.7" ry="0.7"/>
						</g>
					</g>
				</g>
			</g>
			<g>
				<g>
					<g>
						<polygon class="st2" points="399,41.1 399,49.4 392.8,49.4 392.8,50.4 386.9,50.4 386.9,49.4 380.6,49.4 380.6,41.1 
							381.1,41.1 381.1,38.9 380.6,38.9 380.6,35.2 399,35.2 399,38.9 398.5,38.9 398.5,41.1 						"/>
						<rect x="386.9" y="50.1" class="st8" width="5.9" height="0.5"/>
					</g>
					<g>
						<polygon class="st9" points="384.6,49.4 380.6,49.4 380.6,46 384.6,46 384.6,47.8 386.9,47.8 386.9,49.4 						"/>
						<g>
							<ellipse class="st10" cx="381.7" cy="48.3" rx="0.7" ry="0.7"/>
						</g>
						<g>
							<ellipse class="st10" cx="383.7" cy="48.3" rx="0.7" ry="0.7"/>
						</g>
					</g>
					<g>
						<polygon class="st9" points="395.1,49.4 399,49.4 399,46 395.1,46 395.1,47.8 392.8,47.8 392.8,49.4 						"/>
						<g>
							<ellipse class="st10" cx="398" cy="48.3" rx="0.7" ry="0.7"/>
						</g>
						<g>
							<ellipse class="st10" cx="396" cy="48.3" rx="0.7" ry="0.7"/>
						</g>
					</g>
				</g>
				<g>
					<g>
						<polygon class="st2" points="418.8,41.1 418.8,49.4 412.6,49.4 412.6,50.4 406.7,50.4 406.7,49.4 400.4,49.4 400.4,41.1 
							400.9,41.1 400.9,38.9 400.4,38.9 400.4,35.2 418.8,35.2 418.8,38.9 418.3,38.9 418.3,41.1 						"/>
						<rect x="406.7" y="50.1" class="st8" width="5.9" height="0.5"/>
					</g>
					<g>
						<polygon class="st9" points="404.4,49.4 400.4,49.4 400.4,46 404.4,46 404.4,47.8 406.7,47.8 406.7,49.4 						"/>
						<g>
							<ellipse class="st10" cx="401.5" cy="48.3" rx="0.7" ry="0.7"/>
						</g>
						<g>
							<ellipse class="st10" cx="403.5" cy="48.3" rx="0.7" ry="0.7"/>
						</g>
					</g>
					<g>
						<polygon class="st9" points="414.9,49.4 418.8,49.4 418.8,46 414.9,46 414.9,47.8 412.6,47.8 412.6,49.4 						"/>
						<g>
							<ellipse class="st10" cx="417.8" cy="48.3" rx="0.7" ry="0.7"/>
						</g>
						<g>
							<ellipse class="st10" cx="415.8" cy="48.3" rx="0.7" ry="0.7"/>
						</g>
					</g>
				</g>
				<g>
					<g>
						<polygon class="st2" points="438.6,41.1 438.6,49.4 432.4,49.4 432.4,50.4 426.5,50.4 426.5,49.4 420.2,49.4 420.2,41.1 
							420.8,41.1 420.8,38.9 420.2,38.9 420.2,35.2 438.6,35.2 438.6,38.9 438.1,38.9 438.1,41.1 						"/>
						<rect x="426.5" y="50.1" class="st8" width="5.9" height="0.5"/>
					</g>
					<g>
						<polygon class="st9" points="424.2,49.4 420.2,49.4 420.2,46 424.2,46 424.2,47.8 426.5,47.8 426.5,49.4 						"/>
						<g>
							<ellipse class="st10" cx="421.3" cy="48.3" rx="0.7" ry="0.7"/>
						</g>
						<g>
							<ellipse class="st10" cx="423.3" cy="48.3" rx="0.7" ry="0.7"/>
						</g>
					</g>
					<g>
						<polygon class="st9" points="434.7,49.4 438.6,49.4 438.6,46 434.7,46 434.7,47.8 432.4,47.8 432.4,49.4 						"/>
						<g>
							<ellipse class="st10" cx="437.6" cy="48.3" rx="0.7" ry="0.7"/>
						</g>
						<g>
							<ellipse class="st10" cx="435.6" cy="48.3" rx="0.7" ry="0.7"/>
						</g>
					</g>
				</g>
				<g>
					<g>
						<polygon class="st2" points="458.4,41.1 458.4,49.4 452.2,49.4 452.2,50.4 446.3,50.4 446.3,49.4 440,49.4 440,41.1 
							440.6,41.1 440.6,38.9 440,38.9 440,35.2 458.4,35.2 458.4,38.9 457.9,38.9 457.9,41.1 						"/>
						<rect x="446.3" y="50.1" class="st8" width="5.9" height="0.5"/>
					</g>
					<g>
						<polygon class="st9" points="444,49.4 440,49.4 440,46 444,46 444,47.8 446.3,47.8 446.3,49.4 						"/>
						<g>
							<ellipse class="st10" cx="441.1" cy="48.3" rx="0.7" ry="0.7"/>
						</g>
						<g>
							<ellipse class="st10" cx="443.1" cy="48.3" rx="0.7" ry="0.7"/>
						</g>
					</g>
					<g>
						<polygon class="st9" points="454.5,49.4 458.4,49.4 458.4,46 454.5,46 454.5,47.8 452.2,47.8 452.2,49.4 						"/>
						<g>
							<ellipse class="st10" cx="457.4" cy="48.3" rx="0.7" ry="0.7"/>
						</g>
						<g>
							<ellipse class="st10" cx="455.4" cy="48.3" rx="0.7" ry="0.7"/>
						</g>
					</g>
				</g>
				<g>
					<g>
						<polygon class="st2" points="478.2,41.1 478.2,49.4 472,49.4 472,50.4 466.1,50.4 466.1,49.4 459.9,49.4 459.9,41.1 
							460.4,41.1 460.4,38.9 459.9,38.9 459.9,35.2 478.2,35.2 478.2,38.9 477.7,38.9 477.7,41.1 						"/>
						<rect x="466.1" y="50.1" class="st8" width="5.9" height="0.5"/>
					</g>
					<g>
						<polygon class="st9" points="463.8,49.4 459.9,49.4 459.9,46 463.8,46 463.8,47.8 466.1,47.8 466.1,49.4 						"/>
						<g>
							<ellipse class="st10" cx="460.9" cy="48.3" rx="0.7" ry="0.7"/>
						</g>
						<g>
							<ellipse class="st10" cx="462.9" cy="48.3" rx="0.7" ry="0.7"/>
						</g>
					</g>
					<g>
						<polygon class="st9" points="474.3,49.4 478.2,49.4 478.2,46 474.3,46 474.3,47.8 472,47.8 472,49.4 						"/>
						<g>
							<ellipse class="st10" cx="477.2" cy="48.3" rx="0.7" ry="0.7"/>
						</g>
						<g>
							<ellipse class="st10" cx="475.2" cy="48.3" rx="0.7" ry="0.7"/>
						</g>
					</g>
				</g>
				<g>
					<g>
						<polygon class="st2" points="498,41.1 498,49.4 491.8,49.4 491.8,50.4 485.9,50.4 485.9,49.4 479.7,49.4 479.7,41.1 
							480.2,41.1 480.2,38.9 479.7,38.9 479.7,35.2 498,35.2 498,38.9 497.5,38.9 497.5,41.1 						"/>
						<rect x="485.9" y="50.1" class="st8" width="5.9" height="0.5"/>
					</g>
					<g>
						<polygon class="st9" points="483.6,49.4 479.7,49.4 479.7,46 483.6,46 483.6,47.8 485.9,47.8 485.9,49.4 						"/>
						<g>
							<ellipse class="st10" cx="480.7" cy="48.3" rx="0.7" ry="0.7"/>
						</g>
						<g>
							<ellipse class="st10" cx="482.7" cy="48.3" rx="0.7" ry="0.7"/>
						</g>
					</g>
					<g>
						<polygon class="st9" points="494.1,49.4 498,49.4 498,46 494.1,46 494.1,47.8 491.8,47.8 491.8,49.4 						"/>
						<g>
							<ellipse class="st10" cx="497" cy="48.3" rx="0.7" ry="0.7"/>
						</g>
						<g>
							<ellipse class="st10" cx="495" cy="48.3" rx="0.7" ry="0.7"/>
						</g>
					</g>
				</g>
			</g>
		</g>
	</g>
	<g>
		<path class="st11" d="M572.4,35.9c-0.6,0-1.1,0.3-1.3,0.6h-0.2c-0.2-0.3-0.8-0.6-1.4-0.6c-0.7,0-1.3,0.3-1.5,0.6
			c-0.2-0.4-0.8-0.6-1.5-0.6s-1.3,0.3-1.5,0.6c-0.2-0.4-0.8-0.6-1.5-0.6s-1.3,0.3-1.5,0.6c-0.2-0.4-0.8-0.6-1.5-0.6
			s-1.3,0.3-1.5,0.6c-0.2-0.4-0.8-0.6-1.5-0.6s-1.3,0.3-1.5,0.6c-0.2-0.4-0.8-0.6-1.5-0.6s-1.3,0.3-1.5,0.6
			c-0.2-0.4-0.8-0.6-1.5-0.6s-1.3,0.3-1.5,0.6c-0.2-0.4-0.8-0.6-1.5-0.6s-1.3,0.3-1.5,0.6c-0.2-0.4-0.8-0.6-1.5-0.6
			s-1.3,0.3-1.5,0.6c-0.2-0.4-0.8-0.6-1.5-0.6s-1.3,0.3-1.5,0.6c-0.2-0.4-0.8-0.6-1.5-0.6c-0.5,0-1,0.2-1.2,0.4
			c-0.3-0.2-0.7-0.4-1.2-0.4c-0.6,0-1.1,0.3-1.3,0.6h-0.2c-0.2-0.3-0.8-0.6-1.4-0.6c-0.7,0-1.3,0.3-1.5,0.6
			c-0.2-0.4-0.8-0.6-1.5-0.6s-1.3,0.3-1.5,0.6c-0.2-0.4-0.8-0.6-1.5-0.6s-1.3,0.3-1.5,0.6c-0.2-0.4-0.8-0.6-1.5-0.6
			s-1.3,0.3-1.5,0.6c-0.2-0.4-0.8-0.6-1.5-0.6s-1.3,0.3-1.5,0.6c-0.2-0.4-0.8-0.6-1.5-0.6s-1.3,0.3-1.5,0.6
			c-0.2-0.4-0.8-0.6-1.5-0.6s-1.3,0.3-1.5,0.6c-0.2-0.4-0.8-0.6-1.5-0.6s-1.3,0.3-1.5,0.6c-0.2-0.4-0.8-0.6-1.5-0.6
			s-1.3,0.3-1.5,0.6c-0.2-0.4-0.8-0.6-1.5-0.6s-1.3,0.3-1.5,0.6c-0.2-0.4-0.8-0.6-1.5-0.6c-0.9,0-1.6,0.4-1.6,0.9v0.1v11.3
			c0,0.1,0.1,0.2,0.2,0.2h0.5h34.8h0.2h35h0.5c0.1,0,0.2-0.1,0.2-0.3V36.8C573.9,36.3,573.2,35.9,572.4,35.9z"/>
		<path class="st6" d="M573.9,36.7L573.9,36.7l0.1-0.2c-0.1-0.5-0.8-0.9-1.6-0.9c-0.6,0-1.1,0.3-1.3,0.6h-0.2
			c-0.2-0.3-0.8-0.6-1.4-0.6c-0.7,0-1.3,0.3-1.5,0.6c-0.2-0.4-0.8-0.6-1.5-0.6s-1.3,0.3-1.5,0.6c-0.2-0.4-0.8-0.6-1.5-0.6
			s-1.3,0.3-1.5,0.6c-0.2-0.4-0.8-0.6-1.5-0.6s-1.3,0.3-1.5,0.6c-0.2-0.4-0.8-0.6-1.5-0.6s-1.3,0.3-1.5,0.6
			c-0.2-0.4-0.8-0.6-1.5-0.6s-1.3,0.3-1.5,0.6c-0.2-0.4-0.8-0.6-1.5-0.6s-1.3,0.3-1.5,0.6c-0.2-0.4-0.8-0.6-1.5-0.6
			s-1.3,0.3-1.5,0.6c-0.2-0.4-0.8-0.6-1.5-0.6s-1.3,0.3-1.5,0.6c-0.2-0.4-0.8-0.6-1.5-0.6s-1.3,0.3-1.5,0.6
			c-0.2-0.4-0.8-0.6-1.5-0.6c-0.5,0-1,0.2-1.2,0.4c-0.3-0.2-0.7-0.4-1.2-0.4c-0.6,0-1.1,0.3-1.3,0.6h-0.2c-0.2-0.3-0.8-0.6-1.4-0.6
			c-0.7,0-1.3,0.3-1.5,0.6c-0.2-0.4-0.8-0.6-1.5-0.6s-1.3,0.3-1.5,0.6c-0.2-0.4-0.8-0.6-1.5-0.6s-1.3,0.3-1.5,0.6
			c-0.2-0.4-0.8-0.6-1.5-0.6s-1.3,0.3-1.5,0.6c-0.2-0.4-0.8-0.6-1.5-0.6s-1.3,0.3-1.5,0.6c-0.2-0.4-0.8-0.6-1.5-0.6
			s-1.3,0.3-1.5,0.6c-0.2-0.4-0.8-0.6-1.5-0.6s-1.3,0.3-1.5,0.6c-0.2-0.4-0.8-0.6-1.5-0.6s-1.3,0.3-1.5,0.6
			c-0.2-0.4-0.8-0.6-1.5-0.6s-1.3,0.3-1.5,0.6c-0.2-0.4-0.8-0.6-1.5-0.6s-1.3,0.3-1.5,0.6c-0.2-0.4-0.8-0.6-1.5-0.6
			c-0.9,0-1.6,0.4-1.6,0.9v0.1v0.1c0-0.5,0.7-0.8,1.6-0.8c0.7,0,1.3,0.2,1.5,0.6c0.2-0.3,0.8-0.6,1.5-0.6s1.3,0.2,1.5,0.6
			c0.2-0.3,0.8-0.6,1.5-0.6s1.3,0.2,1.5,0.6c0.2-0.3,0.8-0.6,1.5-0.6s1.3,0.2,1.5,0.6c0.2-0.3,0.8-0.6,1.5-0.6s1.3,0.2,1.5,0.6
			c0.2-0.3,0.8-0.6,1.5-0.6s1.3,0.2,1.5,0.6c0.2-0.3,0.8-0.6,1.5-0.6s1.3,0.2,1.5,0.6c0.2-0.3,0.8-0.6,1.5-0.6s1.3,0.2,1.5,0.6
			c0.2-0.3,0.8-0.6,1.5-0.6s1.3,0.2,1.5,0.6c0.2-0.3,0.8-0.6,1.5-0.6s1.3,0.2,1.5,0.6c0.2-0.3,0.8-0.6,1.5-0.6
			c0.6,0,1.2,0.3,1.4,0.6h0.2c0.2-0.3,0.7-0.6,1.3-0.6c0.5,0,0.9,0.2,1.2,0.4c0.2-0.2,0.7-0.4,1.2-0.4c0.7,0,1.3,0.2,1.5,0.6
			c0.2-0.3,0.8-0.6,1.5-0.6s1.3,0.2,1.5,0.6c0.2-0.3,0.8-0.6,1.5-0.6s1.3,0.2,1.5,0.6c0.2-0.3,0.8-0.6,1.5-0.6s1.3,0.2,1.5,0.6
			c0.2-0.3,0.8-0.6,1.5-0.6s1.3,0.2,1.5,0.6c0.2-0.3,0.8-0.6,1.5-0.6s1.3,0.2,1.5,0.6c0.2-0.3,0.8-0.6,1.5-0.6s1.3,0.2,1.5,0.6
			c0.2-0.3,0.8-0.6,1.5-0.6s1.3,0.2,1.5,0.6c0.2-0.3,0.8-0.6,1.5-0.6s1.3,0.2,1.5,0.6c0.2-0.3,0.8-0.6,1.5-0.6s1.3,0.2,1.5,0.6
			c0.2-0.3,0.8-0.6,1.5-0.6c0.6,0,1.2,0.3,1.4,0.6h0.2c0.2-0.3,0.7-0.6,1.3-0.6C573.1,35.9,573.7,36.3,573.9,36.7z"/>
		<g>
			<g>
				<path class="st2" d="M520.1,47.5h-16.2c-0.2,0-0.3-0.2-0.3-0.3v-10c0-0.2,0.1-0.3,0.3-0.3h16.2c0.2,0,0.3,0.2,0.3,0.3v10
					C520.3,47.4,520.2,47.5,520.1,47.5z"/>
				<rect x="509.1" y="47.2" class="st12" width="5.7" height="1.3"/>
			</g>
			<g>
				<path class="st2" d="M537.6,47.5h-16.2c-0.2,0-0.3-0.2-0.3-0.3v-10c0-0.2,0.2-0.3,0.3-0.3h16.2c0.2,0,0.3,0.2,0.3,0.3v10
					C537.9,47.4,537.7,47.5,537.6,47.5z"/>
				<rect x="526.6" y="47.2" class="st12" width="5.7" height="1.3"/>
			</g>
			<g>
				<path class="st2" d="M555.1,47.5h-16.2c-0.2,0-0.3-0.2-0.3-0.3v-10c0-0.2,0.2-0.3,0.3-0.3h16.2c0.2,0,0.3,0.2,0.3,0.3v10
					C555.3,47.4,555.2,47.5,555.1,47.5z"/>
				<rect x="544.1" y="47.2" class="st12" width="5.7" height="1.3"/>
			</g>
			<g>
				<path class="st2" d="M572.6,47.5h-16.2c-0.2,0-0.3-0.2-0.3-0.3v-10c0-0.2,0.2-0.3,0.3-0.3h16.2c0.2,0,0.3,0.2,0.3,0.3v10
					C572.9,47.4,572.8,47.5,572.6,47.5z"/>
				<rect x="561.6" y="47.2" class="st12" width="5.7" height="1.3"/>
			</g>
		</g>
		<g>
			<g>
				<rect x="507.1" y="49.5" class="st5" width="2" height="4.7"/>
				<rect x="514.9" y="49.5" class="st5" width="2" height="4.7"/>
			</g>
			<g>
				<rect x="524.7" y="49.5" class="st5" width="2" height="4.7"/>
				<rect x="532.4" y="49.5" class="st5" width="2" height="4.7"/>
			</g>
			<g>
				<rect x="542.1" y="49.5" class="st5" width="2" height="4.7"/>
				<rect x="549.9" y="49.5" class="st5" width="2" height="4.7"/>
			</g>
			<g>
				<rect x="559.7" y="49.5" class="st5" width="2" height="4.7"/>
				<rect x="567.4" y="49.5" class="st5" width="2" height="4.7"/>
			</g>
		</g>
	</g>
</g>
</svg>
